<?xml version="1.0" encoding="utf-8"?>
<!-- Generator: Adobe Illustrator 15.0.0, SVG Export Plug-In . SVG Version: 6.00 Build 0)  -->
<!DOCTYPE svg PUBLIC "-//W3C//DTD SVG 1.1//EN" "http://www.w3.org/Graphics/SVG/1.1/DTD/svg11.dtd">
<svg version="1.1" id="Layer_1" xmlns="http://www.w3.org/2000/svg" xmlns:xlink="http://www.w3.org/1999/xlink" x="0px" y="0px"
	 width="112.979px" height="72.949px" viewBox="0 0 112.979 72.949" enable-background="new 0 0 112.979 72.949"
	 xml:space="preserve">
<g>
	<path fill-rule="evenodd" clip-rule="evenodd" fill="#FFFFFF" d="M44.144,11.898c0.695-2.362,1.427-4.728,2.146-7.137
		c0,0,0,0,0-0.051c0,0,0,0,0-0.038c0-0.131-0.034-0.216-0.165-0.262c0,0,0,0-0.052-0.042c-0.813-0.338-1.366-1.165-1.366-2.066
		c0-1.249,0.976-2.282,2.234-2.282c0.254,0,0.55,0,0.855,0c1.033,0,2.071,0,3.099,0c0,0.737,0,1.507,0,2.282
		c-0.939,0-1.887,0-2.831,0c-0.183,0-0.342,0-0.572,0c-0.108,0-0.245,0.127-0.245,0.262c0,0.122,0.033,0.169,0.137,0.259
		c0.713,0.432,1.202,0.901,1.202,1.718c0,0.347-0.047,0.469-0.126,0.822c-0.052,0.211-0.362,1.155-0.362,1.155
		c5.132,0,10.245,0,15.423,0c0.287-0.728,0.602-1.46,0.888-2.234c-1.15-0.3-2.324-0.601-3.475-0.902
		c-0.268-0.047-0.427-0.258-0.427-0.521c0-0.296,0.287-0.558,0.587-0.558c2.647,0,5.268,0,7.888,0c0,1.253-1.023,2.239-2.235,2.239
		c-0.262,0.648-0.525,1.292-0.816,1.977c0.943,1.813,1.926,3.62,2.916,5.423c0.995-0.417,2.117-0.647,3.188-0.647
		c4.644,0,8.442,3.789,8.442,8.484c0,4.648-3.799,8.432-8.442,8.432c-4.343,0-7.959-3.258-8.432-7.573c0,0,0,0,0.031,0
		c-0.337,0-0.68,0-1.027,0c-0.217,0.817-0.648,1.465-1.381,1.944c0.258,0.559,0.564,1.114,0.859,1.714c0.441,0,0.869,0,1.338,0
		c0,0.352,0,0.737,0,1.122c-0.295,0-0.609,0-0.896,0c-0.174,0.179-0.39,0.254-0.648,0.254c-0.267,0-0.473-0.075-0.652-0.254
		c-0.375,0-0.765,0-1.158,0c0-0.348,0-0.728,0-1.122c0.342,0,0.689,0,1.084,0c-0.217-0.432-0.433-0.855-0.69-1.333
		c-0.475,0.178-0.601,0.178-1.122,0.178c-1.846,0-3.362-1.507-3.362-3.362c0-0.343,0.057-0.685,0.137-0.986c0,0,0,0,0-0.047
		c-3.188-2.192-6.418-4.389-9.644-6.621c-0.081,0.292-0.179,0.592-0.297,0.893c0,0,0,0,0.038,0.047
		c2.112,1.634,3.272,4.047,3.272,6.714c0,4.648-3.799,8.432-8.484,8.432c-4.649,0-8.442-3.784-8.442-8.432
		c0-4.695,3.793-8.484,8.442-8.484c1.333,0,1.854,0.093,3.108,0.605C44.106,11.898,44.106,11.898,44.144,11.898 M57.103,19.776
		c0,1.253,0.995,2.235,2.235,2.235c1.249,0,2.272-0.982,2.272-2.235c0-1.244-1.023-2.287-2.272-2.287
		C58.098,17.49,57.103,18.532,57.103,19.776z M45.393,15.776c-0.132,0.474-0.311,0.99-0.47,1.507
		c-0.474,1.55-2.118,2.888-3.695,3.315c-0.051,0.037-0.135,0.037-0.229,0.037c-0.433,0-0.817-0.427-0.817-0.859
		c0-0.301,0.131-0.558,0.338-0.685c0.046,0,0.103-0.047,0.131-0.089c0.996-0.681,1.78-1.413,2.123-2.372
		c0.207-0.728,0.422-1.502,0.681-2.276c0,0,0,0-0.047,0c-0.737-0.348-1.549-0.517-2.408-0.517c-3.23,0-5.897,2.672-5.897,5.939
		c0,3.272,2.667,5.893,5.897,5.893c3.272,0,5.943-2.62,5.943-5.893C46.942,18.227,46.341,16.852,45.393,15.776z M61.61,17.232
		c1.126-2.751,2.249-5.545,3.36-8.348c0.701,1.338,1.391,2.676,2.119,4.01c0,0,0,0-0.053,0.042
		c-1.972,1.418-3.178,3.526-3.436,5.987c0,0,0,0,0.031,0c-0.337,0-0.68,0-1.027,0c-0.159-0.696-0.47-1.165-0.995-1.639
		C61.61,17.283,61.61,17.283,61.61,17.232z M68.291,15.213c-1.201,0.948-1.892,2.155-2.117,3.709c1.338,0,2.723,0,4.09,0
		c-0.644-1.259-1.282-2.503-1.973-3.748C68.291,15.175,68.291,15.175,68.291,15.213z M72.803,19.396c0.047,0.131,0.1,0.249,0.1,0.38
		c0,0.432-0.395,0.859-0.869,0.859c-1.93,0-3.869,0-5.859,0c0.441,2.931,2.935,5.034,5.859,5.034c3.277,0,5.902-2.62,5.902-5.893
		c0-3.268-2.625-5.939-5.902-5.939c-0.647,0-1.381,0.136-1.981,0.347C70.963,15.903,71.859,17.625,72.803,19.396z M57.492,16.936
		c-0.258-0.554-0.568-1.117-0.858-1.68c-0.442,0-0.911,0-1.386,0c0-0.338,0-0.723,0-1.113c0.305,0,0.601,0,0.916,0
		c0,0,0,0,0.029-0.047c0.178-0.174,0.384-0.258,0.601-0.258c0.263,0,0.475,0.136,0.652,0.258c0,0,0,0,0,0.047
		c0.39,0,0.766,0,1.151,0c0,0.338,0,0.732,0,1.113c-0.333,0-0.681,0-1.024,0c0.216,0.431,0.423,0.863,0.639,1.338
		c0,0,0.052,0,0.099-0.042c0.343-0.089,0.681-0.169,1.028-0.169c0.047,0,0.075,0,0.126,0c0,0,0,0,0.048,0
		c1.075-2.629,2.15-5.253,3.225-7.878c-5.079,0-10.16,0-15.244,0c-0.108,0.516-0.296,1.033-0.47,1.587
		c3.404,2.324,6.808,4.657,10.211,7.019C57.314,17.063,57.394,17.025,57.492,16.936z"/>
	<path fill-rule="evenodd" clip-rule="evenodd" fill="#FFFFFF" d="M44.172,11.902c0.517-1.826,1.089-3.69,1.644-5.503l0.507-1.639
		V4.672c0-0.146-0.066-0.239-0.197-0.282l0.019,0.01l-0.052-0.047c-0.813-0.343-1.366-1.164-1.366-2.051
		c0-1.249,0.995-2.258,2.216-2.258h3.954L50.882,0.02v2.282l0.014-0.023h-3.403c-0.128,0-0.272,0.146-0.272,0.286
		c0,0.137,0.046,0.184,0.145,0.272c0.62,0.366,1.193,0.827,1.193,1.705c0,0.305-0.037,0.437-0.098,0.709l-0.033,0.108
		c-0.039,0.211-0.348,1.146-0.348,1.16v0.028h15.442l0.024-0.019c0.285-0.718,0.6-1.46,0.887-2.244l0.019-0.015l-0.042-0.005
		l-3.475-0.906c-0.248-0.037-0.413-0.244-0.413-0.498c0-0.277,0.273-0.535,0.573-0.535h7.888l-0.019-0.023
		c0,0.596-0.249,1.154-0.672,1.578c-0.423,0.418-0.977,0.647-1.545,0.647h-0.014v0.005l-0.051,0.089
		c-0.246,0.61-0.498,1.235-0.785,1.892v0.023c0.977,1.84,2.02,3.742,2.935,5.423l0.015,0.014l0.019-0.005
		c0.954-0.422,2.065-0.643,3.169-0.643c1.136,0,2.24,0.221,3.277,0.657c0.995,0.422,1.887,1.033,2.677,1.817
		c0.765,0.774,1.38,1.676,1.812,2.685c0.432,1.042,0.639,2.151,0.639,3.292c0,4.644-3.761,8.418-8.404,8.418
		c-4.324,0-7.943-3.244-8.414-7.56l-0.018,0.029h0.031v-0.047h-1.047v0.015c-0.215,0.845-0.661,1.469-1.361,1.929l-0.018,0.009
		v0.019c0.178,0.371,0.375,0.747,0.572,1.146l0.291,0.568l0.014,0.014h1.338l-0.019-0.023v1.122l0.019-0.019h-0.91v0.005
		c-0.16,0.165-0.376,0.253-0.635,0.253c-0.248,0-0.464-0.089-0.639-0.253v-0.005h-1.172l0.018,0.019v-1.122l-0.018,0.023h1.111
		l-0.019-0.028l-0.028-0.076c-0.197-0.398-0.413-0.812-0.652-1.258l-0.019-0.019l-0.019,0.01c-0.456,0.164-0.582,0.164-1.104,0.164
		c-1.846,0-3.343-1.497-3.343-3.333c0-0.352,0.051-0.685,0.131-0.986v-0.066c-1.268-0.873-2.554-1.756-3.813-2.62
		c-1.901-1.305-3.887-2.658-5.831-4.009l-0.029-0.015v0.042c-0.103,0.292-0.183,0.592-0.309,0.888v0.014l0.009,0.005l0.037,0.052
		c1.042,0.803,1.859,1.808,2.428,2.963c0.549,1.15,0.845,2.403,0.845,3.732c0,1.127-0.225,2.235-0.671,3.272
		c-0.423,1-1.042,1.902-1.803,2.667c-0.779,0.774-1.671,1.39-2.686,1.808c-1.042,0.446-2.15,0.671-3.305,0.671
		c-4.63,0-8.404-3.775-8.404-8.418c0-1.141,0.211-2.249,0.647-3.292c0.441-1.009,1.042-1.911,1.808-2.685
		c0.784-0.784,1.686-1.395,2.69-1.817c1.023-0.437,2.131-0.657,3.259-0.657c1.295,0,1.822,0.07,3.089,0.596v0.004h0.065
		L44.172,11.902 M44.144,11.874h-0.038v0.01c-1.268-0.525-1.813-0.61-3.108-0.61c-1.141,0-2.235,0.226-3.278,0.667
		c-1.004,0.432-1.92,1.042-2.704,1.827c-0.765,0.785-1.38,1.681-1.803,2.7c-0.441,1.042-0.667,2.16-0.667,3.31
		c0,4.662,3.794,8.461,8.452,8.461c1.155,0,2.263-0.226,3.324-0.667c1.005-0.422,1.916-1.033,2.7-1.816
		c0.774-0.771,1.384-1.681,1.808-2.69c0.455-1.042,0.666-2.15,0.666-3.287c0-1.338-0.276-2.597-0.845-3.756
		c-0.554-1.155-1.385-2.16-2.428-2.973l-0.052-0.037l0.019,0.019c0.131-0.296,0.216-0.602,0.292-0.892v-0.015l-0.029,0.015
		c1.953,1.342,3.926,2.704,5.828,4.005c1.253,0.863,2.558,1.751,3.812,2.625v-0.024v0.047v-0.005
		c-0.081,0.296-0.127,0.639-0.127,0.991c0,1.864,1.512,3.38,3.372,3.38c0.521,0,0.647,0,1.122-0.168l-0.019-0.01
		c0.244,0.437,0.441,0.85,0.652,1.249l0.037,0.075l0.02-0.023h-1.1v1.155h1.174c0.16,0.174,0.386,0.263,0.652,0.263
		c0.259,0,0.494-0.089,0.672-0.263h-0.023h0.93v-1.155h-1.371l0.038,0.009l-0.296-0.578c-0.216-0.394-0.413-0.765-0.568-1.141
		l-0.02,0.023c0.719-0.455,1.17-1.093,1.391-1.948l-0.023,0.019h1.027v-0.047h-0.061v0.019c0.484,4.339,4.118,7.602,8.461,7.602
		c4.662,0,8.456-3.799,8.456-8.461c0-1.15-0.226-2.268-0.662-3.31c-0.423-1.019-1.042-1.915-1.813-2.7
		c-0.779-0.785-1.676-1.395-2.686-1.827c-1.042-0.441-2.15-0.667-3.296-0.667c-1.117,0-2.225,0.226-3.188,0.652l0.019,0.009
		c-0.906-1.681-1.953-3.582-2.917-5.422v0.014c0.273-0.652,0.537-1.277,0.785-1.887l0.033-0.089l-0.02,0.014
		c0.588,0,1.155-0.234,1.578-0.656C68.766,3.479,69,2.911,69,2.301V2.278h-7.906c-0.319,0-0.615,0.286-0.615,0.582
		c0,0.282,0.188,0.498,0.455,0.54l3.475,0.902l-0.01-0.023c-0.309,0.774-0.609,1.512-0.91,2.235l0.032-0.01H48.097l0.028,0.023
		c0-0.046,0.301-0.953,0.347-1.164l0.015-0.108c0.08-0.267,0.117-0.408,0.117-0.713c0-0.901-0.586-1.371-1.22-1.737
		c-0.085-0.079-0.118-0.127-0.118-0.24c0-0.117,0.118-0.239,0.226-0.239h3.441V0h-3.992c-1.244,0-2.268,1.038-2.268,2.301
		c0,0.901,0.573,1.742,1.399,2.089L46.06,4.381l0.046,0.042v0.01c0.118,0.033,0.165,0.108,0.165,0.239v0.089V4.752l-0.502,1.643
		c-0.535,1.798-1.113,3.672-1.643,5.494L44.144,11.874z"/>
	<path fill-rule="evenodd" clip-rule="evenodd" fill="#FFFFFF" d="M57.075,19.776c0,0.61,0.239,1.178,0.667,1.606
		c0.422,0.422,0.994,0.657,1.596,0.657c1.258,0,2.305-1.019,2.305-2.263c0-0.61-0.238-1.183-0.681-1.62
		c-0.441-0.445-1.004-0.681-1.624-0.681C58.098,17.476,57.075,18.499,57.075,19.776 M57.122,19.776c0-1.244,0.991-2.254,2.216-2.254
		c0.601,0,1.169,0.235,1.596,0.667c0.422,0.423,0.667,0.995,0.667,1.587c0,1.221-1.014,2.216-2.263,2.216
		c-0.602,0-1.155-0.23-1.568-0.643C57.347,20.936,57.122,20.377,57.122,19.776z"/>
	<path fill-rule="evenodd" clip-rule="evenodd" fill="#FFFFFF" d="M45.374,15.771c-0.126,0.479-0.311,1-0.469,1.503
		c-0.456,1.46-2,2.841-3.695,3.301v0.009c-0.051,0.033-0.132,0.033-0.211,0.033c-0.413,0-0.784-0.408-0.784-0.84
		c0-0.295,0.118-0.549,0.324-0.671H40.52c0.066,0,0.103-0.038,0.15-0.089c1.159-0.808,1.807-1.541,2.112-2.376l0.15-0.512
		c0.169-0.578,0.343-1.174,0.535-1.765l0.019-0.024h-0.08h0.014c-0.732-0.348-1.544-0.526-2.422-0.526
		c-0.784,0-1.568,0.165-2.282,0.474c-0.718,0.3-1.333,0.728-1.887,1.277c-1.127,1.132-1.747,2.63-1.747,4.212
		c0,3.263,2.657,5.92,5.916,5.92c1.586,0,3.089-0.615,4.216-1.723c1.126-1.123,1.747-2.611,1.747-4.198
		c0-1.469-0.54-2.859-1.549-4.015l-0.038-0.033V15.771 M45.374,15.785c1.014,1.16,1.549,2.536,1.549,3.991
		c0,1.583-0.62,3.052-1.747,4.164c-1.103,1.104-2.602,1.714-4.178,1.714c-3.23,0-5.869-2.639-5.869-5.878
		c0-1.573,0.601-3.052,1.728-4.178c0.539-0.549,1.174-0.968,1.877-1.269c0.714-0.309,1.479-0.469,2.264-0.469
		c0.878,0,1.671,0.174,2.408,0.521h0.047l-0.014-0.028c-0.192,0.596-0.376,1.187-0.535,1.765l-0.15,0.512
		c-0.311,0.826-0.958,1.559-2.104,2.357h-0.014c-0.033,0.038-0.08,0.08-0.117,0.08c-0.226,0.141-0.357,0.399-0.357,0.709
		c0,0.456,0.403,0.888,0.836,0.888c0.094,0,0.197,0,0.239-0.047h-0.009c1.705-0.456,3.268-1.859,3.714-3.333
		c0.154-0.502,0.337-1.028,0.469-1.507L45.374,15.785z"/>
	<path fill-rule="evenodd" clip-rule="evenodd" fill="#FFFFFF" d="M61.629,17.242c1.146-2.794,2.282-5.621,3.371-8.349h-0.047
		c0.629,1.235,1.353,2.634,2.117,4.005v-0.019l-0.051,0.042c-0.973,0.704-1.771,1.572-2.357,2.605
		c-0.588,1.023-0.963,2.165-1.09,3.38v0.029h0.061v-0.042h-1.027l0.023,0.014c-0.169-0.671-0.455-1.146-1-1.643l0.014,0.018v-0.051
		L61.629,17.242 M61.601,17.232v0.065c0.535,0.493,0.831,0.962,0.985,1.625v0.014h1.047v-0.042h-0.031l0.018,0.028
		c0.131-1.226,0.484-2.353,1.076-3.372c0.581-1.019,1.38-1.896,2.356-2.602l0.046-0.051l0.02-0.004l-0.02-0.014
		c-0.736-1.38-1.459-2.766-2.098-4l-0.029-0.037l-0.018,0.037c-1.094,2.738-2.217,5.554-3.353,8.348V17.232z"/>
	<path fill-rule="evenodd" clip-rule="evenodd" fill="#FFFFFF" d="M68.272,15.198c-1.202,0.954-1.901,2.17-2.108,3.709v0.029h4.146
		l-0.015-0.038c-0.704-1.319-1.314-2.517-1.985-3.733l-0.038-0.075v0.122V15.198 M68.311,15.213v-0.038l-0.038,0.01
		c0.671,1.211,1.291,2.413,1.972,3.747l0.02-0.037h-4.09l0.028,0.028c0.216-1.541,0.896-2.747,2.108-3.691V15.213z"/>
	<path fill-rule="evenodd" clip-rule="evenodd" fill="#FFFFFF" d="M72.794,19.4c0.038,0.132,0.075,0.254,0.075,0.376
		c0,0.399-0.361,0.84-0.836,0.84h-5.869v0.019c0.207,1.418,0.906,2.709,2,3.635c1.07,0.919,2.441,1.427,3.869,1.427
		c1.578,0,3.085-0.615,4.188-1.723c1.113-1.123,1.729-2.611,1.729-4.198s-0.615-3.089-1.729-4.212
		c-1.121-1.126-2.609-1.751-4.188-1.751c-0.629,0-1.381,0.132-1.981,0.353l-0.037,0.009l0.019,0.014l0.263,0.502
		C71.113,16.222,71.939,17.805,72.794,19.4 M72.822,19.387c-0.846-1.596-1.672-3.179-2.479-4.709l-0.273-0.502v0.028
		c0.602-0.216,1.334-0.343,1.963-0.343c1.568,0,3.052,0.611,4.16,1.738c1.108,1.113,1.723,2.596,1.723,4.178
		c0,1.583-0.614,3.052-1.723,4.164c-1.108,1.104-2.582,1.714-4.16,1.714c-1.418,0-2.785-0.502-3.851-1.418
		c-1.065-0.92-1.783-2.197-1.98-3.602l-0.028,0.029h5.859c0.46,0,0.883-0.428,0.883-0.888c0-0.131-0.047-0.249-0.084-0.39H72.822z"
		/>
	<path fill-rule="evenodd" clip-rule="evenodd" fill="#FFFFFF" d="M57.506,16.926c-0.253-0.568-0.583-1.155-0.859-1.681
		l-0.014-0.005h-1.386l0.015,0.015v-1.113l-0.015,0.024h0.916l0.01-0.01l0.038-0.051c0.16-0.15,0.366-0.245,0.582-0.245
		c0.263,0,0.475,0.131,0.634,0.258v-0.023v0.071h1.169l-0.01-0.024v1.113l0.01-0.015h-1.052l0.019,0.034
		c0.225,0.451,0.422,0.864,0.628,1.324l0.02,0.019c0.019,0,0.065,0,0.112-0.047H58.31c0.343-0.084,0.681-0.173,1.028-0.173h0.188
		v-0.005l3.23-7.878l0.019-0.038H47.478v0.019c-0.094,0.39-0.211,0.78-0.338,1.198l-0.131,0.39V10.1l0.015,0.014
		c3.338,2.282,6.793,4.648,10.198,7.015l0.014,0.009v-0.009c0.08-0.038,0.178-0.089,0.258-0.178l0.014-0.005V16.926 M57.478,16.926
		c-0.103,0.08-0.178,0.122-0.258,0.165h0.014c-3.385-2.362-6.854-4.723-10.193-7.014l0.015,0.023l0.113-0.395
		c0.131-0.413,0.263-0.813,0.357-1.202l-0.033,0.023h15.244l-0.014-0.033l-3.24,7.879l0.029-0.014h-0.174
		c-0.348,0-0.705,0.089-1.047,0.169v0.01c-0.028,0.032-0.08,0.037-0.08,0.037l0.033,0.009c-0.213-0.465-0.424-0.882-0.653-1.338
		l-0.02,0.033h1.061v-1.16h-1.188l0.015,0.023v-0.07c-0.16-0.117-0.385-0.258-0.667-0.258c-0.225,0-0.441,0.099-0.62,0.268
		l-0.028,0.042l0.019-0.005h-0.935v1.16h1.405l-0.02-0.005c0.276,0.511,0.582,1.107,0.846,1.671L57.478,16.926z"/>
	<path fill-rule="evenodd" clip-rule="evenodd" fill="#FFFFFF" d="M2.864,69.404v0.047c-0.01,0-0.028,0-0.047,0
		c-1.53,0-2.779-1.281-2.779-2.84V54.6c0-0.783,0.629-1.417,1.418-1.417l0.681-15.63c0.047-0.724,0.647-1.287,1.385-1.287
		c0.019,0,0.019,0,0.033,0h102.397c3.888,0,7.062,3.16,7.062,7.052v21.181l-24.331,4.953c0.23-0.69,0.311-1.422,0.311-2.16
		c0-3.868-3.192-7.053-7.052-7.053c-3.878,0-7.067,3.185-7.067,7.053c0,0.738,0.08,1.47,0.315,2.16H32.186
		c0.211-0.69,0.343-1.422,0.343-2.16c0-3.868-3.193-7.053-7.071-7.053c-3.906,0-7.052,3.185-7.052,7.053
		c0,0.738,0.085,1.47,0.31,2.16L2.864,69.404 M14.104,43.317c0-0.784-0.619-1.417-1.38-1.417H8.499c-0.78,0-1.418,0.633-1.418,1.417
		v20.448c0,0.761,0.638,1.375,1.418,1.375h4.225c0.761,0,1.38-0.614,1.38-1.375V43.317z M20.518,51.807
		c-0.788,0-1.427-0.648-1.427-1.427v-7.063c0-0.784,0.639-1.417,1.427-1.417h16.959c0.732,0.023,1.338,0.648,1.338,1.417v7.063
		c0,0.765-0.606,1.399-1.338,1.417L20.518,51.807z M43.797,51.807c-0.779,0-1.418-0.648-1.418-1.427v-7.063
		c0-0.784,0.639-1.417,1.418-1.417h16.959c0.798,0,1.427,0.633,1.427,1.417v7.063c0,0.778-0.629,1.427-1.427,1.427H43.797z
		 M67.141,51.755v0.042c-0.023,0.01-0.043,0.01-0.051,0.01c-0.771,0-1.386-0.648-1.386-1.427v-7.063
		c0-0.784,0.614-1.417,1.386-1.417c0.008,0,0.027,0,0.051,0h16.902c0.78,0,1.409,0.633,1.409,1.417v7.063
		c0,0.778-0.629,1.427-1.409,1.427L67.141,51.755z M90.41,51.807c-0.789,0-1.418-0.648-1.418-1.427v-7.063
		c0-0.784,0.629-1.417,1.418-1.417h14.123c2.328,0,4.211,1.893,4.211,4.221l-0.041,4.259c0,0.765-0.592,1.399-1.344,1.417
		L90.41,51.807z"/>
	<path fill-rule="evenodd" clip-rule="evenodd" fill="#FFFFFF" d="M2.854,69.404v0.047l0.01-0.023h-0.01c-0.019,0-0.019,0-0.038,0
		c-1.53,0-2.761-1.264-2.761-2.816V54.6c0-0.773,0.611-1.403,1.4-1.403h0.009v-0.014l0.704-15.63c0.028-0.71,0.63-1.273,1.353-1.273
		c0,0,0.019,0,0.033,0h102.397c3.879,0,7.028,3.16,7.028,7.038v21.181l0.023-0.023l-24.321,4.953l0.033,0.023
		c0.197-0.643,0.297-1.366,0.297-2.16c0-0.943-0.18-1.873-0.564-2.741c-0.353-0.841-0.854-1.597-1.521-2.249
		c-0.653-0.653-1.404-1.164-2.25-1.525c-0.868-0.371-1.788-0.56-2.736-0.56c-0.958,0-1.874,0.188-2.752,0.56
		c-0.845,0.361-1.597,0.872-2.249,1.525c-0.647,0.652-1.168,1.408-1.535,2.249c-0.376,0.868-0.55,1.798-0.55,2.741
		c0,0.794,0.099,1.518,0.296,2.16l0.038-0.023H32.186l0.019,0.023c0.225-0.732,0.343-1.46,0.343-2.16
		c0-0.943-0.188-1.873-0.559-2.741c-0.362-0.841-0.878-1.597-1.531-2.249c-0.653-0.653-1.398-1.164-2.25-1.525
		c-0.882-0.371-1.793-0.56-2.751-0.56c-3.892,0-7.066,3.169-7.066,7.075c0,0.794,0.099,1.521,0.296,2.16l0.028-0.023L2.864,69.386
		h-0.01V69.404 M18.724,69.442c-0.188-0.634-0.3-1.357-0.3-2.151c0-3.873,3.16-7.033,7.033-7.033c0.944,0,1.869,0.188,2.737,0.555
		c0.832,0.356,1.597,0.867,2.23,1.512c0.658,0.652,1.155,1.404,1.512,2.239c0.375,0.874,0.563,1.784,0.563,2.728
		c0,0.695-0.117,1.418-0.347,2.151v0.027h43.044v-0.027c-0.196-0.648-0.31-1.357-0.31-2.151c0-0.943,0.197-1.854,0.573-2.728
		c0.356-0.835,0.864-1.587,1.512-2.239c0.639-0.645,1.408-1.155,2.234-1.512c0.859-0.367,1.794-0.555,2.733-0.555
		c0.948,0,1.859,0.188,2.714,0.555c0.854,0.356,1.605,0.867,2.254,1.512c0.633,0.652,1.154,1.404,1.52,2.239
		c0.357,0.874,0.555,1.784,0.555,2.728c0,0.78-0.121,1.503-0.318,2.151v0.032l0.037-0.005l24.312-4.953h0.019V43.317
		c0-1.887-0.732-3.666-2.07-5c-1.348-1.343-3.123-2.075-5.01-2.075H3.554c-0.014,0-0.014,0-0.033,0c-0.751,0-1.353,0.582-1.399,1.31
		l-0.704,15.63l0.037-0.028C0.658,53.154,0,53.797,0,54.6v12.012c0,1.572,1.268,2.858,2.817,2.858c0.019,0,0.019,0,0.038,0h0.028
		v-0.065l-0.019,0.023l15.851,0.042h0.009V69.442z"/>
	<path fill-rule="evenodd" clip-rule="evenodd" fill="#FFFFFF" d="M14.123,43.317c0-0.788-0.62-1.44-1.398-1.44H8.499
		c-0.79,0-1.428,0.652-1.428,1.44v20.448c0,0.774,0.639,1.403,1.428,1.403h4.225c0.779,0,1.398-0.629,1.398-1.403V43.317
		 M14.076,63.766c0,0.751-0.601,1.352-1.352,1.352H8.499c-0.761,0-1.4-0.601-1.4-1.352V43.317c0-0.769,0.639-1.394,1.4-1.394h4.225
		c0.751,0,1.352,0.625,1.352,1.394V63.766z"/>
	<path fill-rule="evenodd" clip-rule="evenodd" fill="#FFFFFF" d="M20.518,51.779c-0.779,0-1.399-0.63-1.399-1.399v-7.063
		c0-0.769,0.62-1.394,1.399-1.394h16.959c0.342,0.01,0.685,0.164,0.93,0.422c0.244,0.268,0.375,0.602,0.375,0.972v7.063
		c0,0.366-0.132,0.713-0.375,0.977c-0.245,0.263-0.587,0.403-0.93,0.423H20.518 M37.477,51.82c0.361-0.009,0.695-0.159,0.962-0.44
		c0.245-0.269,0.39-0.63,0.39-1v-7.063c0-0.376-0.146-0.732-0.39-0.999c-0.267-0.268-0.601-0.428-0.962-0.441H20.518
		c-0.788,0-1.446,0.652-1.446,1.44v7.063c0,0.798,0.658,1.44,1.446,1.44H37.477z"/>
	<path fill-rule="evenodd" clip-rule="evenodd" fill="#FFFFFF" d="M43.797,51.779c-0.766,0-1.4-0.63-1.4-1.399v-7.063
		c0-0.769,0.634-1.394,1.4-1.394h16.959c0.779,0,1.398,0.625,1.398,1.394v7.063c0,0.77-0.619,1.399-1.398,1.399H43.797
		 M60.756,51.82c0.798,0,1.445-0.643,1.445-1.44v-7.063c0-0.788-0.647-1.44-1.445-1.44H43.797c-0.799,0-1.438,0.652-1.438,1.44
		v7.063c0,0.798,0.639,1.44,1.438,1.44H60.756z"/>
	<path fill-rule="evenodd" clip-rule="evenodd" fill="#FFFFFF" d="M67.098,51.755v0.042l0.02-0.018c0,0-0.02,0-0.027,0
		c-0.747,0-1.348-0.63-1.348-1.399v-7.063c0-0.769,0.601-1.394,1.348-1.394c0.008,0,0.027,0,0.027,0c0.023,0,16.926,0,16.926,0
		c0.771,0,1.4,0.625,1.4,1.394v7.063c0,0.77-0.63,1.399-1.4,1.399L67.141,51.74h-0.043V51.755 M84.043,51.82
		c0.799,0,1.446-0.643,1.446-1.44v-7.063c0-0.788-0.647-1.44-1.446-1.44H67.141c-0.023,0-0.043,0-0.051,0
		c-0.771,0-1.399,0.652-1.399,1.44v7.063c0,0.798,0.628,1.44,1.399,1.44c0.008,0,0.027,0,0.051,0h0.01v-0.065l-0.01,0.024
		L84.043,51.82z"/>
	<path fill-rule="evenodd" clip-rule="evenodd" fill="#FFFFFF" d="M90.41,51.779c-0.77,0-1.398-0.63-1.398-1.399v-7.063
		c0-0.769,0.629-1.394,1.398-1.394h14.123c2.311,0,4.202,1.883,4.202,4.197l-0.052,4.259c0,0.366-0.131,0.713-0.375,0.977
		c-0.254,0.263-0.588,0.403-0.949,0.423H90.41 M107.359,51.82c0.381-0.009,0.724-0.159,0.963-0.44c0.264-0.269,0.413-0.63,0.413-1
		l0.032-4.259c0-2.334-1.906-4.244-4.234-4.244H90.41c-0.799,0-1.428,0.652-1.428,1.44v7.063c0,0.798,0.629,1.44,1.428,1.44H107.359
		z"/>
	<path fill-rule="evenodd" clip-rule="evenodd" fill="#FFFFFF" d="M25.424,64.498c1.549,0,2.803,1.254,2.803,2.793
		c0,1.549-1.253,2.803-2.803,2.803c-1.544,0-2.803-1.254-2.803-2.803C22.622,65.752,23.88,64.498,25.424,64.498 M25.424,61.657
		c3.113,0,5.634,2.521,5.634,5.634c0,3.122-2.521,5.645-5.634,5.645c-3.113,0-5.629-2.522-5.629-5.645
		C19.795,64.178,22.312,61.657,25.424,61.657z"/>
	<path fill-rule="evenodd" clip-rule="evenodd" fill="#FFFFFF" d="M25.424,64.517c1.535,0,2.77,1.245,2.77,2.774
		c0,1.535-1.235,2.78-2.77,2.78c-1.526,0-2.784-1.245-2.784-2.78C22.641,65.762,23.898,64.517,25.424,64.517 M25.424,64.475
		c-1.563,0-2.817,1.263-2.817,2.816c0,1.555,1.253,2.826,2.817,2.826c1.549,0,2.817-1.271,2.817-2.826
		C28.242,65.737,26.974,64.475,25.424,64.475z"/>
	<path fill-rule="evenodd" clip-rule="evenodd" fill="#FFFFFF" d="M25.424,61.68c3.094,0,5.621,2.518,5.621,5.611
		c0,3.099-2.526,5.62-5.621,5.62s-5.62-2.521-5.62-5.62C19.804,64.197,22.33,61.68,25.424,61.68 M25.424,61.634
		c-3.122,0-5.662,2.54-5.662,5.657c0,3.127,2.54,5.658,5.662,5.658c3.113,0,5.658-2.531,5.658-5.658
		C31.082,64.174,28.538,61.634,25.424,61.634z"/>
	<path fill-rule="evenodd" clip-rule="evenodd" fill="#FFFFFF" d="M81.94,64.498c1.563,0,2.835,1.254,2.835,2.793
		c0,1.549-1.271,2.803-2.835,2.803c-1.578,0-2.851-1.254-2.851-2.803C79.09,65.752,80.362,64.498,81.94,64.498 M81.94,61.657
		c3.108,0,5.634,2.521,5.634,5.634c0,3.122-2.525,5.645-5.634,5.645c-3.127,0-5.648-2.522-5.648-5.645
		C76.292,64.178,78.813,61.657,81.94,61.657z"/>
	<path fill-rule="evenodd" clip-rule="evenodd" fill="#FFFFFF" d="M81.94,64.517c1.549,0,2.817,1.245,2.817,2.774
		c0,1.535-1.269,2.78-2.817,2.78c-1.56,0-2.836-1.245-2.836-2.78C79.104,65.762,80.381,64.517,81.94,64.517 M81.94,64.475
		c-1.578,0-2.869,1.263-2.869,2.816c0,1.555,1.291,2.826,2.869,2.826c1.582,0,2.854-1.271,2.854-2.826
		C84.795,65.737,83.522,64.475,81.94,64.475z"/>
	<path fill-rule="evenodd" clip-rule="evenodd" fill="#FFFFFF" d="M81.94,61.68c3.089,0,5.601,2.518,5.601,5.611
		c0,3.099-2.512,5.62-5.601,5.62c-3.118,0-5.615-2.521-5.615-5.62C76.325,64.197,78.822,61.68,81.94,61.68 M81.94,61.634
		c-3.127,0-5.667,2.54-5.667,5.657c0,3.127,2.54,5.658,5.667,5.658c3.108,0,5.652-2.531,5.652-5.658
		C87.593,64.174,85.049,61.634,81.94,61.634z"/>
</g>
</svg>
