<?xml version="1.0" encoding="utf-8"?>
<!-- Generator: Adobe Illustrator 15.0.0, SVG Export Plug-In . SVG Version: 6.00 Build 0)  -->
<!DOCTYPE svg PUBLIC "-//W3C//DTD SVG 1.1//EN" "http://www.w3.org/Graphics/SVG/1.1/DTD/svg11.dtd">
<svg version="1.1" id="Layer_1" xmlns="http://www.w3.org/2000/svg" xmlns:xlink="http://www.w3.org/1999/xlink" x="0px" y="0px"
	 width="1613.734px" height="1468.711px" viewBox="0 0 1613.734 1468.711" enable-background="new 0 0 1613.734 1468.711"
	 xml:space="preserve">
<g>
	<g>
		<path fill="#080B1A" d="M224.437,800.216c0,73.916,59.884,138.208,133.824,138.208c73.875,0,133.8-66.511,133.8-140.393
			c0-4.879-0.311-21.021-0.813-21.021H225.214C224.729,777.011,224.437,795.358,224.437,800.216z"/>
		<path fill="#080B1A" d="M1243.417,942.768c73.904,0,133.817-68.636,133.817-142.552c0-4.857-0.311-23.205-0.813-23.205h-266.034
			c-0.526,0-0.79,18.348-0.79,23.205C1109.598,874.132,1169.512,942.768,1243.417,942.768z"/>
		<path fill="#080B1A" d="M807.234,0C375.358,0,38.797,347.314,29.914,777.011h94.703c-15.397-36-23.679-91.803-23.679-145.605
			c0-283.063,229.488-508.178,512.552-508.178c203.316,0,378.96,120.55,461.847,292.128c11.959-1.147,29.751-0.624,41.985-0.624
			c202.181,0,372.537,162.225,381.998,362.294l84.945-0.016h0.289C1575.68,347.307,1239.069,0,807.234,0z"/>
		<g display="none">
			<path display="inline" fill-rule="evenodd" clip-rule="evenodd" fill="#080B1A" d="M1534.719,986.285
				c-6.756,18.644,9.293,14.41,11.875,23.727c-5.775,31.797-36.354,38.733-29.633,83.005c-31.332,1.663-57.557-1.733-59.268-29.646
				c-23.75,0-47.464,0-71.131,0c-6.397,11.444-11.385,24.228-35.612,17.783c0,7.892,0,15.797,0,23.725
				c29.718,13.741,84.906,2.01,124.515,5.933c19.731,31.596,89.521,13.178,106.707,47.428c0,13.824,0,27.661,0,41.461
				c-28.929,24.432-74.993,31.727-94.881,65.236c-76.572-0.24-137.25,27.743-183.745-17.797c0-19.755,0-39.511,0-59.266
				c23.175,9.352,12.245-15.404,23.678-17.771c3.994,0,7.94,0,11.875,0c21.563-5.788,2.75,28.845,29.598,17.771
				c1.961,19.707-29.107,6.421-17.746,35.564c50.44,22.674,94.139-12.521,148.216-5.943c5.62-14.123,21.933-17.592,17.795-41.484
				c-31.571-23.774-93.218-17.46-148.265-17.771c-9.147-32.359-68.953-14.003-94.82-29.634c0-15.856,0-31.654,0-47.451
				c21.203-20.318,66.167-16.839,77.074-47.441c48.78,1.34,74.431-20.438,130.444-11.851
				C1497.146,1008.001,1499.836,981.035,1534.719,986.285z"/>
			<path display="inline" fill-rule="evenodd" clip-rule="evenodd" fill="#080B1A" d="M212.646,1004.092
				c9.914,21.501,19.738,52.14,0,71.131c50.454,2.918,76.823,29.919,106.75,53.383c0,19.731,0,39.488,0,59.269
				c-24.084,27.313-51.56,51.194-77.092,77.063c-90.946,5.571-118.092,1.78-213.409,0c7.504-23.32-13.992-17.629-29.64-17.797
				c15.899-61.107,22.602-131.545,17.771-213.427C95.02,1036.632,155.017,1021.504,212.646,1004.092z M105.967,1063.371
				c8.419,30.184-29.878,13.62-47.434,17.783c0,15.797,0,31.595,0,47.451c9.884,0,19.72,0,29.622,0
				c7.426-38.077,67.758-23.176,77.098-59.314c-10.236-5.597-9.704-21.921-29.646-17.807
				C141.712,1071.42,117.137,1060.716,105.967,1063.371z M58.533,1170.103c8.557,22.387-16.33,11.36-11.887,29.598
				c10.637-0.753,13.896,5.92,11.887,17.795c64.117,14.697,98.689,6.41,165.981,0c11.516-30.029,66.568-16.443,47.452-77.074
				C175.58,1125.09,131.434,1161.971,58.533,1170.103z"/>
			<path display="inline" fill-rule="evenodd" clip-rule="evenodd" fill="#080B1A" d="M544.656,1004.092c9.884,0,19.786,0,29.664,0
				c-3.545,15.403,2.356,21.31,17.759,17.771c8.359,27.266-18.751,89.906,17.807,88.949c0,29.609,0,59.291,0,88.889
				c-19.313,22.22-62.419,20.594-77.098,47.439c-28.874,8.646-94.3-19.192-94.863,17.797c-25.663,0-51.333,0-77.038,0
				c1.949-27.649-23.63-27.77-29.658-47.441c23.798-41.438,22.901-107.51,29.658-166.011c29.741,11.97,8.616-26.919,23.721-29.622
				c7.917,0,15.803,0,23.696,0c-0.132,67.041,2.613,136.976-29.616,171.918c2.41,11.421,27.123,0.527,17.771,23.715
				c50.902-14.303,111.545-18.822,165.999-29.621c-8.651-28.917,19.17-94.307-17.8-94.857
				C544.656,1063.371,544.656,1033.713,544.656,1004.092z"/>
			<path display="inline" fill-rule="evenodd" clip-rule="evenodd" fill="#080B1A" d="M1184.939,1110.812c0-15.834,0-31.643,0-47.44
				c-26.765,0.896-62.761-7.45-65.213,17.783c-21.058,9.208-3.551-20.139-17.781-17.783c-20.008,27.421-71.047,23.762-71.155,71.131
				c20.976,14.756,67.64,4.58,65.247-23.69C1125.67,1110.812,1155.305,1110.812,1184.939,1110.812
				c-36.379,44.63-96.914,65.055-154.149,88.889c-0.274,31.332,5.92,69.157-17.758,77.086
				c-45.934-51.769-2.942-178.221-11.875-243.073c36.82-7.188,28.462,30.806,71.142,17.771
				c18.859-40.385,107.665-10.942,130.434-47.393c13.37,12.364,27.159,24.204,59.292,17.771c0,13.824,0,27.672,0,41.509
				C1226.363,1069.194,1231.314,1115.643,1184.939,1110.812z"/>
			<path display="inline" fill-rule="evenodd" clip-rule="evenodd" fill="#080B1A" d="M651.394,1021.862c15.786,0,31.631,0,47.417,0
				c-5.089,50.55,34.357,56.564,47.41,88.949c21.753,0,43.5,0,65.211,0c47.081-20.115,38.662-95.754,112.639-88.949
				c0,75.089,0,150.201,0,225.277c-76.278-2.535-21.656-83.423-29.621-136.328c-57.881,19.492-131.307,97.416-189.732,29.609
				c-15.068,2.679,6.058,41.593-23.678,29.682c0,25.664,0,51.351,0,77.037c-9.926,0-19.786,0-29.646,0
				c10.326-46.949-21.634-136.232,17.777-154.123C651.669,1080.831,647.633,1055.251,651.394,1021.862z"/>
			<path display="inline" fill-rule="evenodd" clip-rule="evenodd" fill="#080B1A" d="M758.107,1336.09c5.932,0,11.833,0,17.776,0
				c0,15.81,0,31.596,0,47.404c-26.895-11.085-8.072,23.559-29.664,17.818C739.756,1369.084,766.861,1370.53,758.107,1336.09z"/>
			<path display="inline" fill-rule="evenodd" clip-rule="evenodd" fill="#080B1A" d="M17.024,1353.873c9.884,0,19.798,0,29.622,0
				c22.428,34.896,77.098,37.502,106.719,65.211c0,29.586-49.951,9.291-47.398,41.496c-32.856,0.754-72.547-5.381-88.943,11.84
				C17.024,1432.919,17.024,1393.396,17.024,1353.873z M28.894,1442.785c37.724,0.24,68.966-6.075,88.901-23.701
				c-15.744-15.881-57.833-5.382-59.262-35.59c-9.902,0-19.755,0-29.64,0C28.894,1403.25,28.894,1423.019,28.894,1442.785z"/>
			<path display="inline" fill-rule="evenodd" clip-rule="evenodd" fill="#080B1A" d="M224.515,1353.873c15.803,0,31.648,0,47.452,0
				c7.127,24.934-9.567,25.962-11.893,41.496c2.594,13.251,29.239,2.403,41.514,5.943c0,23.679,0,47.404,0,71.107
				c-16.897-12.736-15.265-43.996-29.622-59.268c-7.929,0-15.804,0-23.72,0c-12.293,25.232-60.894,14.23-65.223,47.428
				c0-29.645,0-59.268,0-88.925c9.877,0,19.762,0,29.622,0c-2.027,17.699-28.354,11.158-17.771,41.497
				c22.716,2.917,18.943-20.593,47.428-11.84c0-7.917,0-15.833,0-23.738C239.888,1366.154,215.163,1377.06,224.515,1353.873z"/>
			<path display="inline" fill-rule="evenodd" clip-rule="evenodd" fill="#080B1A" d="M396.457,1371.655c-1.967,0-3.934,0-5.932,0
				c-3.934,0-7.904,0-11.839,0c0-5.943,0-11.852,0-17.782c5.92,0,11.839,0,17.771,0
				C396.457,1359.804,396.457,1365.712,396.457,1371.655z"/>
			<path display="inline" fill-rule="evenodd" clip-rule="evenodd" fill="#080B1A" d="M485.376,1383.494
				c3.235-8.61-6.913-30.614,5.902-29.621C511.644,1347.188,508.863,1396.983,485.376,1383.494z"/>
			<path display="inline" fill-rule="evenodd" clip-rule="evenodd" fill="#080B1A" d="M639.507,1413.152
				c20.7,7.008,20.814,34.524,53.401,29.633c13.071-0.718,2.487-25.137,5.902-35.564c-19.899-7.797-22.22-33.138-29.64-53.348
				c9.902,0,19.755,0,29.64,0c5.357,32.755,29.64,98.683-5.902,118.547c-15.54-2.297-16.61-18.991-41.515-11.84
				C654.282,1437.906,630.777,1441.638,639.507,1413.152z"/>
			<path display="inline" fill-rule="evenodd" clip-rule="evenodd" fill="#080B1A" d="M864.827,1371.655c0-5.943,0-11.852,0-17.782
				c19.756,0,39.511,0,59.243,0c8.611,22.422-16.275,11.36-11.851,29.621C883.746,1392.248,887.489,1368.713,864.827,1371.655z"/>
			<path display="inline" fill-rule="evenodd" clip-rule="evenodd" fill="#080B1A" d="M1018.951,1460.58c-5.919,0-11.815,0-17.794,0
				c0-19.756,0-39.535,0-59.268c21.621-25.854,78.042-16.874,94.88-47.439c13.824,0,27.673,0,41.461,0c0,15.796,0,31.606,0,47.439
				c-36.82,7.176-28.474-30.842-71.106-17.818C1050.235,1408.87,1003.022,1403.166,1018.951,1460.58z"/>
			<path display="inline" fill-rule="evenodd" clip-rule="evenodd" fill="#080B1A" d="M1410.229,1383.494
				c-11.827,0-23.667,0-35.578,0c-16.061,19.518-33.854,37.299-53.359,53.385c-2.667,16.49,32.313-4.664,29.658,11.838
				c3.635,23.38-32.528,6.973-47.404,11.863c5.68-25.448-4.234-35.326-29.67-29.645c8.729-28.487-14.77-24.756-11.852-47.441
				c-7.917,0-15.822,0-23.714,0c-4.604,15.163-17.042,22.507-41.484,17.818c-4.473-26.213,30.063-13.44,17.77-47.439
				c9.854,0,19.757,0,29.658,0c0.682,34.835,61.444,9.675,47.429,59.279c39.487-0.048,59.231-19.804,59.268-59.279
				c9.866,0,19.731,0,29.633,0C1367.105,1387.129,1416.891,1357.09,1410.229,1383.494z"/>
			<path display="inline" fill-rule="evenodd" clip-rule="evenodd" fill="#080B1A" d="M349.017,1371.655
				c31.846,22.004-3.08,74.467-5.938,100.765c-24.539,0.836-6.141-41.246-11.852-59.268
				C359.606,1421.739,345.979,1388.373,349.017,1371.655z"/>
			<path display="inline" fill-rule="evenodd" clip-rule="evenodd" fill="#080B1A" d="M396.457,1371.655
				c18.279-4.425,7.229,20.413,29.658,11.839c-2.242,25.962,7.056,40.349,23.702,47.441c8.377-15.345,10.44-36.942,23.708-47.441
				c3.934,0,7.898,0,11.851,0c0,9.901,0,19.756,0,29.658c-5.943,0-11.851,0-17.753,0c7.893,31.642-19.804,27.636-11.887,59.268
				c-38.705,9.064-14.518-44.726-47.434-41.484C416.213,1399.304,388.541,1403.298,396.457,1371.655z"/>
			<path display="inline" fill-rule="evenodd" clip-rule="evenodd" fill="#080B1A" d="M532.787,1371.655
				c13.298,2.512,18.931,12.7,29.669,17.794c-21.478,12.103-19.235,47.931-17.8,82.971
				C518.329,1461.215,539.729,1402.271,532.787,1371.655z"/>
			<path display="inline" fill-rule="evenodd" clip-rule="evenodd" fill="#080B1A" d="M639.507,1413.152c-9.86,0-19.738,0-29.622,0
				c-3.624,14.184,7.426,43.003-5.926,47.428c-26.034-7.582-5.184-62.041-11.881-88.925c9.896,0,19.815,0,29.658,0
				C611.176,1401.982,637.461,1395.453,639.507,1413.152z"/>
			<path display="inline" fill-rule="evenodd" clip-rule="evenodd" fill="#080B1A" d="M864.827,1371.655
				c9.119,24.958-30.692,0.944-29.657,17.794c-9.048,26.836,38.717-3.145,29.657,23.703c-19.786,0-39.56,0-59.304,0
				c-7.133-24.947,9.573-26.01,11.875-41.497C833.202,1371.655,849.005,1371.655,864.827,1371.655z"/>
			<path display="inline" fill-rule="evenodd" clip-rule="evenodd" fill="#080B1A" d="M1410.229,1383.494c5.931,0,11.851,0,17.758,0
				c-3.587,14.171,7.499,43.027-5.907,47.441c-3.934,0-7.893,0-11.851,0C1410.229,1415.137,1410.229,1399.304,1410.229,1383.494z"/>
			<path display="inline" fill-rule="evenodd" clip-rule="evenodd" fill="#080B1A" d="M1475.465,1442.785
				c-5.957,0-11.888,0-17.771,0c3.683-18.01-7.605-51.063,5.884-59.291C1488.164,1382.646,1469.783,1424.74,1475.465,1442.785z"/>
			<path display="inline" fill-rule="evenodd" clip-rule="evenodd" fill="#080B1A" d="M1196.826,1401.313
				c7.127,24.922-9.592,25.975-11.887,41.473c41.579,8.025,55.811-11.408,88.937-11.85c4.413,18.248-20.414,7.234-11.852,29.645
				c-21.274,0.454-48.266-4.831-53.359,11.84c-12.749-16.862-55.872-3.396-59.269-29.635
				c-22.816,19.589-97.021,48.003-130.445,17.795c19.827-5.884,66.454,15.068,59.268-17.795
				C1138.133,1449.303,1155.473,1413.344,1196.826,1401.313z"/>
			<path display="inline" fill-rule="evenodd" clip-rule="evenodd" fill="#080B1A" d="M864.827,1413.152c25.688,0,51.351,0,77.051,0
				c-3.624,14.184,7.449,43.003-5.92,47.428c-22.566,8.729-1.173-26.5-23.738-17.795c0-3.935,0-7.892,0-11.85
				c-14.184-3.6-42.985,7.426-47.393-5.944C864.827,1421.045,864.827,1417.099,864.827,1413.152z"/>
			<path display="inline" fill-rule="evenodd" clip-rule="evenodd" fill="#080B1A" d="M1410.229,1430.936
				c-0.658,7.234-1.782,14.05-11.827,11.85c0-3.935,0-7.892,0-11.85C1402.349,1430.936,1406.271,1430.936,1410.229,1430.936z"/>
			<path display="inline" fill-rule="evenodd" clip-rule="evenodd" fill="#080B1A" d="M1475.465,1442.785
				c47.451,7.952,67.829-11.193,106.707-11.85c5.752,21.584-28.881,2.726-17.782,29.645c-32.827,0.754-72.566-5.381-88.925,11.84
				C1475.465,1462.542,1475.465,1452.676,1475.465,1442.785z"/>
			<path display="inline" fill-rule="evenodd" clip-rule="evenodd" fill="#080B1A" d="M894.449,1460.58
				c-4.036,25.592-53.845,5.441-77.051,11.84c3.229-8.587-6.942-30.639,5.92-29.635
				C835.433,1460.27,861.06,1464.312,894.449,1460.58z"/>
			<path display="inline" fill-rule="evenodd" clip-rule="evenodd" fill="#080B1A" d="M912.22,1442.785c0,5.932,0,11.863,0,17.795
				c-5.92,0-11.828,0-17.771,0c0-5.932,0-11.863,0-17.795C900.392,1442.785,906.3,1442.785,912.22,1442.785z"/>
			<path display="inline" fill-rule="evenodd" clip-rule="evenodd" fill="#080B1A" d="M1368.696,1442.785
				c17.34-8.705,17.34,26.524,0,17.795C1368.696,1454.648,1368.696,1448.717,1368.696,1442.785z"/>
		</g>
	</g>
	<g>
		<path d="M169.556,1413.43c0,7.603-2.958,12.409-8.87,14.414c-9.4,9.083-23.443,15.63-42.134,19.642
			c-15.736,2.534-31.469,5.068-47.203,7.603c-4.225,0.847-9.029,2.376-14.415,4.594c-4.648,2.005-9.293,4.012-13.939,6.02
			c-1.584,0.634-3.009,0.95-4.277,0.95c-4.014,0-7.393-2.007-10.137-6.02c-2.641-3.588-3.96-7.496-3.96-11.721
			c0-4.223,1.478-7.445,4.435-9.663c2.111-8.974,3.168-19.428,3.168-31.362c0-17.107-1.849-33.051-5.544-47.836
			c-4.225-2.852-6.336-6.757-6.336-11.722c0-3.802,1.213-7.259,3.643-10.375c2.428-3.113,5.49-4.673,9.187-4.673
			c2.218,0,5.279,1.321,9.188,3.96c2.745,2.113,5.543,4.225,8.395,6.336c13.409,9.187,30.516,17.953,51.321,26.294
			c18.058,6.865,36.061,13.729,54.014,20.592C165.066,1394.159,169.556,1401.814,169.556,1413.43z M136.768,1410.42
			c-29.462-9.504-56.761-20.96-81.892-34.372c0.95,8.66,1.426,18.27,1.426,28.828c0,7.076-0.265,15.895-0.792,26.452
			c8.447-1.688,24.497-4.328,48.153-7.92C118.552,1421.191,129.585,1416.862,136.768,1410.42z"/>
		<path d="M309.612,1454.771c0,3.062-2.007,5.86-6.019,8.396c-3.591,2.321-7.024,3.484-10.296,3.484
			c-5.282,0-8.87-3.168-10.771-9.504c-1.901-5.913-3.116-12.988-3.643-21.226c-0.106-3.271-0.159-10.506-0.159-21.7
			c0-0.421-0.213-0.634-0.633-0.634c-9.717,0-22.916,1.579-39.6,4.734c-20.275,3.789-33.528,6-39.758,6.628
			c-0.106,0.842-0.159,8.524-0.159,23.042c0,2.737-1.294,4.921-3.881,6.552c-2.588,1.631-5.36,2.445-8.315,2.445
			c-4.542,0-7.604-1.369-9.188-4.111c-1.057-2.005-1.584-5.484-1.584-10.439c0-4.004,0.421-9.593,1.268-16.763
			c-2.324-2.847-3.485-6.433-3.485-10.756c0-5.482,1.953-9.121,5.861-10.912c0.527-5.797,0.896-10.754,1.108-14.867
			c-4.648-1.792-6.969-5.745-6.969-11.86c0-5.271,2.004-8.804,6.019-10.598c-0.53-2.316-0.792-4.268-0.792-5.852
			c0-1.791,0.95-3.294,2.851-4.507c1.901-1.212,3.802-1.818,5.703-1.818c4.222,0,8.236,1.638,12.038,4.91
			c34.107-11.299,58.817-16.949,74.13-16.949c4.539,0,8.34,2.06,11.405,6.178c2.745,3.698,4.118,7.92,4.118,12.672
			c0,4.015-1.322,7.445-3.96,10.296c-6.019,6.232-16.315,13.464-30.888,21.701c13.939-2.218,25.712-3.327,35.323-3.327
			c6.019,0,10.454,0.951,13.306,2.852c3.484,2.218,5.227,6.231,5.227,12.038c0,0.213-0.634,2.431-1.901,6.652
			c-1.163,3.802-1.742,8.925-1.742,15.365c0,6.336,1.529,14.362,4.593,24.076C309.347,1452.554,309.612,1453.821,309.612,1454.771z
			 M254.648,1366.86c-4.965,1.057-22.124,6.391-51.479,15.998c-0.106,3.592-0.265,8.45-0.475,14.573
			c7.497-1.688,16.632-5.648,27.403-11.88C240.867,1379.322,249.049,1373.093,254.648,1366.86z"/>
		<path d="M368.884,1370.82c0,7.92-1.401,19.642-4.197,35.165c-2.799,15.522-4.198,27.192-4.198,35.006
			c0,1.584,0.158,3.935,0.475,7.049c0.317,3.115,0.475,5.464,0.475,7.048c0,2.852-1.594,5.228-4.781,7.128
			c-2.762,1.584-5.737,2.376-8.925,2.376c-5.42,0-8.925-1.531-10.519-4.593c-1.168-2.008-1.752-5.913-1.752-11.722
			c0-8.131,1.371-20.196,4.118-36.194c2.745-15.998,4.119-28.061,4.119-36.193c0-6.229-0.582-12.301-1.743-18.216
			c-0.529-2.535-0.792-4.381-0.792-5.544c0-5.279,3.062-7.92,9.187-7.92c7.391,0,12.514,2.799,15.365,8.395
			C367.828,1356.619,368.884,1362.69,368.884,1370.82z"/>
		<path d="M515.118,1350.229c0,5.386-3.01,13.729-9.029,25.027c-4.225,8.133-8.977,16.053-14.256,23.76
			c-7.92,11.511-13.202,19.379-15.84,23.601c-7.182,11.405-11.301,19.538-12.355,24.394c-1.374,6.76-2.272,10.507-2.693,11.246
			c-1.584,3.168-4.91,4.752-9.979,4.752c-12.778,0-19.166-5.227-19.166-15.681c0-5.279-4.7-16.632-14.098-34.056
			c-7.182-13.199-13.887-24.445-20.117-33.739c-3.064-4.328-6.125-8.657-9.187-12.988c-4.539-6.653-6.811-10.875-6.811-12.672
			c0-3.379,1.849-6.494,5.544-9.346c3.378-2.534,6.863-3.802,10.454-3.802c2.218,0,4.487,0.898,6.812,2.693
			c4.646,3.801,12.459,15.894,23.443,36.272c7.92,14.573,14.835,28.25,20.75,41.025c5.386-9.504,12.724-21.487,22.017-35.956
			c8.024-12.672,13.516-23.547,16.474-32.63c1.054-3.379,2.111-6.757,3.168-10.138c1.794-3.695,4.539-5.544,8.237-5.544
			c3.695,0,7.39,1.4,11.088,4.197C513.269,1343.445,515.118,1346.64,515.118,1350.229z"/>
		<path d="M561.401,1370.82c0,7.92-1.401,19.642-4.197,35.165c-2.799,15.522-4.198,27.192-4.198,35.006
			c0,1.584,0.158,3.935,0.475,7.049c0.317,3.115,0.475,5.464,0.475,7.048c0,2.852-1.594,5.228-4.781,7.128
			c-2.762,1.584-5.737,2.376-8.925,2.376c-5.42,0-8.925-1.531-10.519-4.593c-1.168-2.008-1.752-5.913-1.752-11.722
			c0-8.131,1.371-20.196,4.118-36.194c2.745-15.998,4.119-28.061,4.119-36.193c0-6.229-0.582-12.301-1.743-18.216
			c-0.529-2.535-0.792-4.381-0.792-5.544c0-5.279,3.062-7.92,9.187-7.92c7.391,0,12.514,2.799,15.365,8.395
			C560.345,1356.619,561.401,1362.69,561.401,1370.82z"/>
		<path d="M733.802,1426.735c0,10.35-2.376,18.69-7.128,25.026c-5.385,7.073-13.095,10.613-23.126,10.613
			c-11.405,0-25.557-8.183-42.451-24.552c-9.187-8.975-20.488-22.018-33.897-39.125c-2.641,17.53-3.96,28.936-3.96,34.214
			c0,1.797,0.131,4.463,0.396,8c0.263,3.539,0.396,6.152,0.396,7.84c0,2.958-1.584,5.334-4.752,7.128
			c-2.747,1.478-5.65,2.218-8.711,2.218c-5.175,0-8.608-1.426-10.296-4.276c-1.268-2.111-1.901-5.913-1.901-11.405
			c0-7.073,1.054-17.527,3.168-31.362c2.111-13.833,3.168-24.287,3.168-31.363c0-6.652-0.792-12.09-2.376-16.314
			c-1.267-3.485-1.901-5.807-1.901-6.97c0-2.534,2.321-4.855,6.97-6.97c4.118-1.9,7.603-2.851,10.454-2.851
			c3.485,0,6.336,1.9,8.553,5.702c20.802,34.743,44.668,61.671,71.596,80.783c3.378,2.534,5.702,3.801,6.97,3.801
			c3.168,0,4.752-4.855,4.752-14.572c0-10.348-3.223-21.646-9.663-33.897c-3.381-6.546-9.345-15.892-17.899-28.036
			c-6.336-9.081-9.504-14.941-9.504-17.582c0-3.272,1.267-6.678,3.802-10.217c2.534-3.537,5.385-5.307,8.553-5.307
			c2.745,0,5.806,1.901,9.187,5.702c9.925,11.194,18.901,25.926,26.928,44.193C729.577,1396.587,733.802,1413.112,733.802,1426.735z
			"/>
		<path d="M797.066,1333.28c0,1.9-1.742,7.128-5.227,15.682c-1.584,3.381-3.75,8.553-6.494,15.522
			c-1.584,5.809-4.331,14.362-8.237,25.661c-2.324,5.281-6.759,7.92-13.305,7.92c-3.485,0-6.601-0.845-9.346-2.535
			c-3.274-2.005-4.91-4.646-4.91-7.92c0-3.062,3.168-12.83,9.504-29.304c6.123-15.733,10.399-25.764,12.83-30.096
			c2.638-4.752,6.546-7.128,11.721-7.128c3.589,0,6.732,1.164,9.425,3.485C795.72,1326.893,797.066,1329.795,797.066,1333.28z"/>
		<path d="M955.527,1423.884c0,9.188-9.083,18.164-27.244,26.928c-12.461,6.02-25.502,10.612-39.124,13.78
			c-12.251,2.745-23.498,4.119-33.739,4.119c-24.076,0-36.114-7.076-36.114-21.226c0-1.371-0.055-3.089-0.159-5.148
			c-0.105-2.059-0.158-3.509-0.158-4.355c0-4.223,1.371-8.078,4.118-11.563c3.802-4.752,8.131-7.128,12.989-7.128
			c2.955,0,6.123,0.74,9.504,2.218c4.118,1.9,6.178,4.118,6.178,6.652c0,2.642-0.926,4.728-2.772,6.257
			c-1.849,1.532-2.771,3.302-2.771,5.307c0,3.064,3.009,4.594,9.028,4.594c12.565,0,26.081-1.847,40.55-5.544
			c19.324-4.963,28.987-9.449,28.987-13.464c0-2.218-4.752-4.329-14.256-6.336c-6.02-1.371-11.935-2.376-17.741-3.01
			c-10.243-0.95-20.487-1.847-30.729-2.692c-16.264-1.795-28.936-4.381-38.016-7.762c-12.355-4.646-18.533-10.93-18.533-18.85
			c0-7.286,7.707-14.993,23.125-23.126c11.615-6.02,22.861-10.348,33.739-12.988c10.875-2.639,20.75-3.96,29.62-3.96
			c4.646,0,8.871,0.371,12.672,1.108c4.963-9.82,10.559-14.731,16.79-14.731c4.013,0,7.576,1.453,10.692,4.356
			c3.113,2.905,4.673,6.363,4.673,10.375c0,2.747-1.029,5.175-3.089,7.286c-2.06,2.114-4.039,4.173-5.94,6.178
			c-1.163,1.584-2.192,4.965-3.088,10.138c-0.898,5.175-1.876,8.767-2.931,10.771c-1.901,3.485-5.069,5.228-9.504,5.228
			c-4.752,0-8.977-1.268-12.672-3.802c-4.118-2.955-5.86-6.757-5.228-11.404h-1.425c-7.604-0.104-16.791,0.74-27.562,2.534
			c-14.469,2.534-21.755,5.915-21.859,10.138c2.005,1.69,9.449,3.063,22.334,4.118c22.493,1.9,35.007,3.01,37.541,3.326
			c14.993,1.901,25.66,4.648,31.996,8.237C948.82,1408.044,955.527,1415.86,955.527,1423.884z"/>
		<path d="M1183.906,1420.082c0,6.549-2.324,11.353-6.97,14.414c-2.007,1.268-8.185,3.96-18.532,8.079
			c-39.6,15.84-71.65,23.76-96.147,23.76c-22.389,0-37.54-6.653-45.46-19.959c-3.906-6.546-5.861-13.409-5.861-20.592
			c0-12.459,6.705-25.289,20.117-38.49c11.825-11.615,26.556-21.487,44.192-29.62c17.107-7.92,31.68-11.88,43.718-11.88
			c3.168,0,6.123,0.316,8.871,0.95c2.004-12.672,7.073-19.008,15.206-19.008c4.012,0,7.655,1.431,10.93,4.286
			c3.271,2.859,4.91,6.299,4.91,10.318c0,2.329-1.401,6.616-4.198,12.86c-2.799,6.244-4.197,11.483-4.197,15.716
			c0,1.376,0.184,3.495,0.555,6.351c0.368,2.858,0.555,5.029,0.555,6.51c0,4.551-1.48,8.149-4.436,10.796
			c-2.958,2.646-6.759,3.967-11.404,3.967c-4.965,0-8.292-2.044-9.979-6.138c-0.95-3.881-1.955-7.762-3.01-11.643
			c-1.584-4.091-4.858-6.138-9.82-6.138c-13.306,0-29.779,7.059-49.42,21.174c-17.107,12.221-25.661,22.438-25.661,30.654
			c0,8.638,8.764,12.957,26.294,12.957c22.597,0,47.097-6.123,73.497-18.375c6.229-3.062,12.459-6.177,18.691-9.345
			c9.607-4.646,15.522-6.97,17.74-6.97c3.484,0,6.071,1.797,7.762,5.386C1183.219,1412.851,1183.906,1416.177,1183.906,1420.082z"/>
		<path d="M1319.052,1398.54c0,14.152-9.927,27.034-29.779,38.649c-25.977,15.313-52.536,22.968-79.674,22.968
			c-9.717,0-17.795-1.532-24.235-4.594c-8.553-4.118-12.83-10.506-12.83-19.166c0-18.374,18.109-43.084,54.331-74.131
			c-2.324-2.955-3.485-6.229-3.485-9.82c0-3.695,1.53-6.546,4.594-8.554c2.534-1.794,5.755-2.692,9.662-2.692
			c4.329,0,11.033,1.69,20.117,5.068C1298.618,1361.265,1319.052,1378.688,1319.052,1398.54z M1294.024,1399.174
			c0-11.192-14.31-20.01-42.926-26.452c-2.324,2.323-5.809,5.809-10.454,10.454c-14.679,13.835-22.44,21.173-23.284,22.018
			c-11.301,11.511-16.949,19.589-16.949,24.234c0,3.697,3.906,5.544,11.722,5.544c12.038,0,25.713-2.534,41.025-7.604
			c16.79-5.489,28.773-12.038,35.956-19.641C1292.387,1404.139,1294.024,1401.287,1294.024,1399.174z"/>
		<path d="M1461.008,1398.54c0,14.152-9.927,27.034-29.779,38.649c-25.977,15.313-52.536,22.968-79.674,22.968
			c-9.717,0-17.795-1.532-24.235-4.594c-8.553-4.118-12.83-10.506-12.83-19.166c0-18.374,18.109-43.084,54.331-74.131
			c-2.324-2.955-3.485-6.229-3.485-9.82c0-3.695,1.53-6.546,4.594-8.554c2.534-1.794,5.755-2.692,9.662-2.692
			c4.329,0,11.034,1.69,20.117,5.068C1440.574,1361.265,1461.008,1378.688,1461.008,1398.54z M1435.98,1399.174
			c0-11.192-14.31-20.01-42.926-26.452c-2.324,2.323-5.809,5.809-10.454,10.454c-14.679,13.835-22.44,21.173-23.284,22.018
			c-11.301,11.511-16.949,19.589-16.949,24.234c0,3.697,3.906,5.544,11.722,5.544c12.038,0,25.713-2.534,41.025-7.604
			c16.79-5.489,28.773-12.038,35.956-19.641C1434.343,1404.139,1435.98,1401.287,1435.98,1399.174z"/>
		<path d="M1609.301,1423.567c0,5.915-1.797,10.402-5.386,13.464c-5.281,4.435-14.521,8.291-27.72,11.563
			c-9.927,2.534-20.116,4.331-30.57,5.386c-17.741,1.797-32.42,4.646-44.035,8.554c-2.957,1.16-5.86,2.321-8.712,3.484
			c-4.015,1.478-6.865,2.218-8.554,2.218c-4.435,0-7.974-6.494-10.612-19.483c-1.797-9.397-2.692-17.95-2.692-25.66
			c0-4.012,0.237-10.059,0.712-18.137c0.476-8.078,0.713-14.122,0.713-18.137c0-8.446-1.163-16.842-3.484-25.185
			c-1.057-3.695-1.584-6.123-1.584-7.287c0-4.855,3.484-7.286,10.454-7.286c6.336,0,10.771,2.114,13.306,6.336
			c3.168,5.176,4.752,14.944,4.752,29.304c0,4.331-0.292,10.905-0.871,19.721c-0.582,8.818-0.871,15.443-0.871,19.879
			c0,4.542,0.21,8.87,0.634,12.988c14.676-3.588,32.048-6.704,52.112-9.345c16.261-2.218,29.621-5.807,40.075-10.771
			c2.321-1.268,4.646-2.534,6.97-3.802c3.168-1.584,5.438-2.376,6.811-2.376c2.852,0,5.121,1.797,6.812,5.386
			C1608.719,1417.231,1609.301,1420.295,1609.301,1423.567z"/>
	</g>
	<g>
		<path d="M253.219,1032.518c0,6.653-2.222,12.338-6.653,17.048c-5.821,6.38-21.205,19.127-46.153,38.253
			c20.79-4.71,39.916-7.068,57.379-7.068c25.779,0,47.401,5.269,64.864,15.8c20.79,12.475,31.185,30.77,31.185,54.886
			c0,29.664-14.137,55.995-42.411,79.001c-23.285,19.126-51.143,32.575-83.575,40.332c-19.126,4.71-41.164,7.068-66.111,7.068
			c-25.227,0-51.559-2.638-79.001-7.9c-30.216-5.82-55.301-13.721-75.259-23.7c-4.99-2.768-7.484-7.068-7.484-12.89
			c0-11.915,4.431-21.063,13.306-27.442c0.832-13.026,2.768-32.497,5.821-58.419c3.047-25.916,4.99-45.387,5.821-58.419
			c-1.663,0.831-3.19,1.247-4.574,1.247c-4.438,0-7.9-2.631-10.395-7.9c-1.942-4.158-2.911-8.731-2.911-13.721
			c0-6.653,1.384-11.363,4.158-14.138c1.663-1.663,5.958-3.878,12.89-6.652c-0.279-1.663-1.111-5.679-2.495-12.059
			c-1.111-5.262-1.664-9.283-1.664-12.058c0-5.263,4.158-7.9,12.474-7.9c16.073,0,24.948,6.237,26.611,18.711
			c76.227-26.61,132.223-39.916,167.981-39.916c8.316,0,14.968,4.301,19.958,12.89
			C251.141,1015.055,253.219,1023.37,253.219,1032.518z M308.52,1162.246c0-22.174-20.517-33.264-61.538-33.264
			c-31.88,0-65.838,6.236-101.87,18.711c-26.059,9.147-57.659,23.284-94.801,42.411l-0.832,21.621
			c39.637,17.19,75.116,25.779,106.444,25.779c27.995,0,58.484-6.237,91.475-18.711
			C288.146,1203.553,308.52,1184.699,308.52,1162.246z M191.682,1041.665c-35.758,4.438-79.001,15.801-129.728,34.096
			c-0.559,14.416-2.358,33.264-5.405,56.548C98.128,1109.024,143.17,1078.814,191.682,1041.665z"/>
		<path d="M632.424,1172.225c0,13.864-1.942,24.396-5.821,31.601c-6.653,13.033-20.374,22.596-41.164,28.69
			c-27.169,7.764-59.322,14.553-96.464,20.374c-38.812,6.101-71.38,9.147-97.712,9.147c-32.711,0-49.064-14.41-49.064-43.243
			c0-7.205,0.968-16.073,2.911-26.61c0.832-4.158,10.674-50.864,29.528-140.123c1.384-8.868,4.294-21.758,8.732-38.669
			c3.326-9.147,9.42-13.722,18.289-13.722c6.094,0,11.363,2.014,15.8,6.029c4.431,4.021,6.652,8.946,6.652,14.767
			c0,8.043-1.929,21.628-5.789,40.755c-3.027,14.137-6.062,28.28-9.089,42.418c-5.269,26.89-10.674,52.533-16.209,76.922
			c-2.287,8.589-3.424,15.241-3.424,19.945c0,10.811,6.237,16.209,18.711,16.209c3.047,0,7.484-0.272,13.305-0.831
			c28.274-3.047,56.685-5.958,85.238-8.732c41.3-5.82,66.384-13.994,75.259-24.531c3.599-4.158,5.405-12.747,5.405-25.779
			c0-23.558-6.101-62.643-18.295-117.255c-5.821-26.61-8.732-42.268-8.732-46.984c0-10.531,8.316-15.801,24.948-15.801
			c11.083,0,18.711,8.044,22.869,24.116c1.664,12.475,3.463,25.091,5.406,37.838
			C626.188,1098.908,632.424,1143.398,632.424,1172.225z"/>
		<path d="M975.456,1238.337c0,3.885-3.19,7.211-9.563,9.979c-4.989,2.222-9.843,3.326-14.553,3.326
			c-8.875,0-14.137-2.768-15.801-8.315c-2.773-9.421-4.157-24.39-4.157-44.906c0-9.699,0.623-24.116,1.871-43.242
			c1.247-19.127,1.871-33.537,1.871-43.243c0-13.306-0.56-26.331-1.663-39.085c-24.721,26.611-46.939,48.096-66.651,64.448
			c-20.549,17.743-43.873,26.611-69.977,26.611c-33.602,0-61.512-17.048-83.725-51.143c-1.949,14.969-4.028,30.08-6.25,45.321
			c-2.222,18.022-3.333,33.264-3.333,45.737c0,3.605,0.273,9.219,0.832,16.84c0.552,7.627,0.832,13.24,0.832,16.84
			c0,9.427-7.9,14.137-23.7,14.137c-10.259,0-16.496-3.326-18.711-9.979c-1.111-2.768-1.663-10.396-1.663-22.869
			c0-16.073,2.56-39.845,7.692-71.309c5.126-31.458,7.692-55.229,7.692-71.309c0-7.484-0.279-13.579-0.832-18.296
			c-0.279-2.768-1.942-7.483-4.99-14.137c-2.774-5.821-4.158-10.947-4.158-15.385c0-7.483,2.768-13.513,8.316-18.087
			c5.542-4.573,12.058-6.86,19.542-6.86c8.036,0,14.689,7.068,19.958,21.206c21.063,59.322,51.143,88.979,90.228,88.979
			c32.153,0,65.552-22.453,100.207-67.358c5.263-6.653,8.797-14.826,10.603-24.532c1.8-9.699,10.324-14.553,25.571-14.553
			c20.231,0,30.354,4.717,30.354,14.137c0,1.942-0.279,4.717-0.832,8.316c-0.559,3.605-0.831,6.38-0.831,8.315
			c0,6.38,0.688,16.08,2.079,29.105c1.384,13.033,2.079,22.732,2.079,29.106c0,8.595-0.695,21.349-2.079,38.253
			c-1.391,16.911-2.079,29.664-2.079,38.253c0,7.212,0.968,17.814,2.91,31.809c1.937,14.001,2.911,24.467,2.911,31.393V1238.337z"/>
		<path d="M1306.013,1036.26c0,7.764-2.638,14.001-7.899,18.711c-53.222,47.68-135.55,97.712-246.982,150.103
			c-0.559,7.764-0.832,16.079-0.832,24.947c0,3.885,0,9.635,0,17.256c0,7.627,0,13.377,0,17.255c0,9.421-7.068,14.138-21.205,14.138
			c-8.596,0-14.001-2.774-16.217-8.316c-0.831-2.495-1.247-9.005-1.247-19.542c0-8.589,1.384-24.669,4.158-48.232
			c0-1.663,0-3.326,0-4.989c0-0.832,0.76-4.574,2.293-11.227c3.061-13.578,5.483-44.49,7.271-92.723c-1.111,0-2.079,0-2.911,0
			c-4.717,0-8.459-2.216-11.227-6.652c-2.222-3.6-3.326-7.9-3.326-12.89c0-9.147,5.679-15.657,17.048-19.543
			c-0.279-2.768-1.111-7.757-2.495-14.969c-1.39-6.373-2.079-11.362-2.079-14.968c0-5.821,4.158-8.732,12.475-8.732
			c16.353,0,25.5,8.732,27.442,26.195c87.869-29.105,158.274-44.906,211.224-47.4h3.326c9.7-0.553,17.601,4.021,23.7,13.721
			C1303.519,1016.444,1306.013,1025.729,1306.013,1036.26z M1246.555,1042.913c-61.266,7.484-122.66,20.374-184.197,38.669
			c-0.56,18.574-2.774,43.801-6.653,75.675C1111.693,1130.093,1175.311,1091.977,1246.555,1042.913z"/>
		<path d="M1615.031,1179.294c0,20.789-21.348,40.747-64.032,59.874c-28.833,13.306-58.906,23.428-90.228,30.354
			c-28.001,5.82-53.638,8.731-76.922,8.731c-51.286,0-76.922-14.137-76.922-42.411c0-15.241,9.979-36.59,29.937-64.032
			c6.653-8.868,14.689-13.306,24.116-13.306c5.821,0,11.643,0.831,17.464,2.494c7.757,2.223,11.642,5.549,11.642,9.979
			c0,3.326-5.964,10.259-17.879,20.79c-11.922,10.538-17.879,19.126-17.879,25.779c0,12.474,13.994,18.711,41.995,18.711
			c24.948,0,53.91-4.295,86.901-12.89c15.521-4.158,29.938-9.147,43.242-14.969c21.622-9.147,32.433-17.6,32.433-25.363
			c0-6.926-8.108-13.306-24.324-19.127s-44.009-10.531-83.367-14.137c-51.006-4.99-83.022-8.589-96.049-10.812
			c-33.822-5.82-57.243-14.825-70.269-27.026c-7.205-6.652-10.812-13.721-10.812-21.205c0-16.353,17.601-33.121,52.807-50.312
			c24.947-11.915,50.239-20.998,75.883-27.234c25.636-6.237,48.855-9.355,69.646-9.355c13.025,0,24.531,1.247,34.511,3.742
			c6.652-12.747,11.084-20.647,13.306-23.7c6.652-8.589,13.994-12.89,22.037-12.89c7.205,0,13.721,2.638,19.542,7.899
			c5.821,5.27,8.732,11.506,8.732,18.711c0,4.717-2.495,9.706-7.484,14.969c-8.316,8.043-12.475,12.201-12.475,12.474
			c-2.773,3.606-5.269,10.954-7.484,22.037c-2.222,12.475-4.301,20.79-6.236,24.948c-3.326,8.043-8.731,12.058-16.216,12.058
			c-8.043,0-15.527-2.079-22.453-6.236c-8.316-4.711-12.474-10.812-12.474-18.295c0-3.048,0.688-6.374,2.078-9.979
			c-3.326-1.384-8.595-2.079-15.8-2.079c-17.19,0-40.332,3.326-69.438,9.979c-36.59,8.315-54.885,17.879-54.885,28.689
			c0,8.043,15.384,13.722,46.152,17.048c31.874,2.774,63.754,5.548,95.634,8.315c39.637,4.158,66.8,10.675,81.495,19.543
			c21.622,12.753,35.2,24.811,40.748,36.174C1613.921,1171.394,1615.031,1175.415,1615.031,1179.294z"/>
	</g>
</g>
</svg>
