<?xml version="1.0" encoding="utf-8"?>
<!-- Generator: Adobe Illustrator 15.0.0, SVG Export Plug-In . SVG Version: 6.00 Build 0)  -->
<!DOCTYPE svg PUBLIC "-//W3C//DTD SVG 1.1//EN" "http://www.w3.org/Graphics/SVG/1.1/DTD/svg11.dtd">
<svg version="1.1" id="Layer_1" xmlns="http://www.w3.org/2000/svg" xmlns:xlink="http://www.w3.org/1999/xlink" x="0px" y="0px"
	 width="64.516px" height="100.607px" viewBox="0 0 64.516 100.607" enable-background="new 0 0 64.516 100.607"
	 xml:space="preserve">
<path fill-rule="evenodd" clip-rule="evenodd" fill="#FFFFFF" d="M9.93,23.079c5.464,0,9.92,4.427,9.92,9.891
	c0,5.444-4.456,9.871-9.92,9.871C4.446,42.84,0,38.414,0,32.969C0,27.505,4.446,23.079,9.93,23.079 M9.93,26.813
	c3.395,0,6.141,2.762,6.141,6.156c0,3.389-2.746,6.136-6.141,6.136c-3.398,0-6.155-2.747-6.155-6.136
	C3.774,29.575,6.531,26.813,9.93,26.813z M9.93,29.237c2.085,0,3.774,1.665,3.774,3.732c0,2.06-1.689,3.735-3.774,3.735
	c-2.09,0-3.784-1.675-3.784-3.735C6.146,30.902,7.84,29.237,9.93,29.237z"/>
<path fill-rule="evenodd" clip-rule="evenodd" fill="#FFFFFF" d="M52.437,23.079c5.483,0,9.925,4.427,9.925,9.891
	c0,5.444-4.441,9.871-9.925,9.871c-5.474,0-9.921-4.426-9.921-9.871C42.516,27.505,46.963,23.079,52.437,23.079 M52.437,26.813
	c3.413,0,6.16,2.762,6.16,6.156c0,3.389-2.747,6.136-6.16,6.136c-3.385,0-6.136-2.747-6.136-6.136
	C46.301,29.575,49.052,26.813,52.437,26.813z M52.437,29.237c2.095,0,3.789,1.665,3.789,3.732c0,2.06-1.694,3.735-3.789,3.735
	c-2.07,0-3.77-1.675-3.77-3.735C48.667,30.902,50.366,29.237,52.437,29.237z"/>
<polyline fill-rule="evenodd" clip-rule="evenodd" fill="#FFFFFF" points="51.897,26.085 53.315,30.183 50.218,31.092 48.8,26.994 
	51.897,26.085 "/>
<polyline fill-rule="evenodd" clip-rule="evenodd" fill="#FFFFFF" points="12.751,31.729 17.706,23.773 14.475,21.861 9.56,29.874 
	12.751,31.729 "/>
<path fill-rule="evenodd" clip-rule="evenodd" fill="#FFFFFF" d="M57.14,21.861c4.317,1.855,7.376,6.136,7.376,11.143h-4.066
	l-2.095-5.316l-6.679-2.878l-6.833,4.553v8.376h-8.616c-4.125,0.057-6.955,0.057-10.503,0.057c-3.507,0-4.648-2.458-4.648-4.827
	c0-6.156-5.049-11.2-11.244-11.2l-0.178,0.035v-4.133h2.5c2.005,0,5.138-1.057,6.372-2.969l5.144-7.868
	c0.638-1,1.102-0.455,0.914,0.126l-2.104,8.742c-0.262,1.095,1.008,1.786,2.104,0.729l2.599-2.367l2.727-4.552V8.964
	c-1.324,0-2.416-0.89-2.416-2.003V3.923h-0.854C26.855,1.771,28.096,0,30.59,0c2.51,0,3.918,1.771,3.918,3.923
	c-0.039,1.946-0.459,1.912-0.771,2.492v1.423c0.312-0.057,0.677,0.035,1.274,0.271c0.549,0.217,2.643,1.038,3.093,1.312
	c0.459,0.271,0.638,0.271,1.226,0.874l4.91,5.136c1.102,1.148,1.19,2.332,1.19,3.424h9.92c1.374,0,1.828,0.854,1.828,2.495
	L57.14,21.861 M32.146,16.031l-7.786,4.464l6.318,2.549l4.239-4.281C33.644,17.98,32.957,17.397,32.146,16.031z M42.699,30.82
	c0.509-2.312,1.877-4.373,3.734-5.773c0.237-0.274,0.183-0.603-0.276-0.603h-4.096v6.375C42.062,31.24,42.61,31.332,42.699,30.82z"
	/>
<path fill-rule="evenodd" clip-rule="evenodd" fill="#FFFFFF" d="M4.327,67.517L7.42,51.853c0.316-1.729,2.411-4.952,6.605-5.006
	h31.316c4.185,0.054,6.274,3.278,6.61,5.006l3.033,15.664c2.011,0.363,4.065,2.332,4.065,4.461v12.985
	c0,1.862-1.689,3.498-2.509,4.099v9.416c-1.275,1.274-2.55,2.129-4.288,2.129c-1.729,0-3.543-0.941-4.585-2.129v-9.104l-8.156,0.638
	H19.801l-8.098-0.638v9.104c-1.047,1.188-2.87,2.129-4.6,2.129c-1.729,0-3.008-0.854-4.327-2.129v-9.416
	c-0.82-0.601-2.505-2.236-2.505-4.099V71.978C0.271,69.849,2.366,67.88,4.327,67.517 M51.616,70.34c2.248,0,4.065,1.84,4.065,4.098
	c0,2.261-1.817,4.096-4.065,4.096c-2.224,0-4.041-1.835-4.041-4.096C47.575,72.18,49.393,70.34,51.616,70.34z M7.697,70.34
	c2.257,0,4.09,1.84,4.09,4.098c0,2.261-1.833,4.096-4.09,4.096c-2.264,0-4.101-1.835-4.101-4.096
	C3.597,72.18,5.434,70.34,7.697,70.34z M8.379,61.472l0.859-4.644c1.003-4.919,6.239-5.612,11.57-5.612h17.696
	c5.38,0,10.621,0.693,11.619,5.612l0.854,4.644c0.42,2.821-1.121,3.824-4.18,3.641l-17.128-0.729l-17.152,0.729
	C9.466,65.296,7.964,64.293,8.379,61.472z M14.702,74.806v1.781H44.66v-1.781l-9.372-0.551H24.084L14.702,74.806z M29.73,78.991
	h15.028v2.331H14.613v-2.331H29.73z M14.702,85.33V83.6H44.66v1.729l-9.372,0.545H24.084L14.702,85.33z"/>
</svg>
