<?xml version="1.0" encoding="utf-8"?>
<!-- Generator: Adobe Illustrator 15.0.0, SVG Export Plug-In . SVG Version: 6.00 Build 0)  -->
<!DOCTYPE svg PUBLIC "-//W3C//DTD SVG 1.1//EN" "http://www.w3.org/Graphics/SVG/1.1/DTD/svg11.dtd">
<svg version="1.1" id="Layer_1" xmlns="http://www.w3.org/2000/svg" xmlns:xlink="http://www.w3.org/1999/xlink" x="0px" y="0px"
	 width="106.566px" height="104.278px" viewBox="0 0 106.566 104.278" enable-background="new 0 0 106.566 104.278"
	 xml:space="preserve">
<path fill-rule="evenodd" clip-rule="evenodd" fill="#FFFFFF" d="M16.52,0L6.228,9.443l11.986,0.514
	C3.63,21.698-3.467,41.399,1.66,60.701l9.004-2.399c-4.355-16.317,2.155-33.041,15.011-42.359l-0.599,14.072l10.289-9.442
	L36.2,0.883L16.52,0z"/>
<path fill-rule="evenodd" clip-rule="evenodd" fill="#FFFFFF" d="M103.558,30.459l-6.475,10.148
	C94.233,22.071,80.708,6.058,61.431,0.883l-2.389,8.96c16.272,4.356,27.475,18.39,29.143,34.213l-11.902-7.567l3.072,13.605
	l16.612,10.607l10.599-16.632L103.558,30.459z"/>
<path fill-rule="evenodd" clip-rule="evenodd" fill="#FFFFFF" d="M83.376,82.596l-6.558-6.562
	c-11.93,11.93-29.678,14.616-44.173,8.139l12.424-6.497l-13.302-4.205l-17.469,9.125l9.092,17.516l13.302,4.167l-5.548-10.659
	C48.636,100.414,69.275,96.746,83.376,82.596z"/>
</svg>
