<svg style="display:none" viewBox="0 0 100 100"><symbol viewBox="0 0 112.979 72.949" id="icon-about-you"><title>about-you</title> <g> <path fill-rule="evenodd" clip-rule="evenodd" d="M44.144,11.898c0.695-2.362,1.427-4.728,2.146-7.137
		c0,0,0,0,0-0.051c0,0,0,0,0-0.038c0-0.131-0.034-0.216-0.165-0.262c0,0,0,0-0.052-0.042c-0.813-0.338-1.366-1.165-1.366-2.066
		c0-1.249,0.976-2.282,2.234-2.282c0.254,0,0.55,0,0.855,0c1.033,0,2.071,0,3.099,0c0,0.737,0,1.507,0,2.282
		c-0.939,0-1.887,0-2.831,0c-0.183,0-0.342,0-0.572,0c-0.108,0-0.245,0.127-0.245,0.262c0,0.122,0.033,0.169,0.137,0.259
		c0.713,0.432,1.202,0.901,1.202,1.718c0,0.347-0.047,0.469-0.126,0.822c-0.052,0.211-0.362,1.155-0.362,1.155
		c5.132,0,10.245,0,15.423,0c0.287-0.728,0.602-1.46,0.888-2.234c-1.15-0.3-2.324-0.601-3.475-0.902
		c-0.268-0.047-0.427-0.258-0.427-0.521c0-0.296,0.287-0.558,0.587-0.558c2.647,0,5.268,0,7.888,0c0,1.253-1.023,2.239-2.235,2.239
		c-0.262,0.648-0.525,1.292-0.816,1.977c0.943,1.813,1.926,3.62,2.916,5.423c0.995-0.417,2.117-0.647,3.188-0.647
		c4.644,0,8.442,3.789,8.442,8.484c0,4.648-3.799,8.432-8.442,8.432c-4.343,0-7.959-3.258-8.432-7.573c0,0,0,0,0.031,0
		c-0.337,0-0.68,0-1.027,0c-0.217,0.817-0.648,1.465-1.381,1.944c0.258,0.559,0.564,1.114,0.859,1.714c0.441,0,0.869,0,1.338,0
		c0,0.352,0,0.737,0,1.122c-0.295,0-0.609,0-0.896,0c-0.174,0.179-0.39,0.254-0.648,0.254c-0.267,0-0.473-0.075-0.652-0.254
		c-0.375,0-0.765,0-1.158,0c0-0.348,0-0.728,0-1.122c0.342,0,0.689,0,1.084,0c-0.217-0.432-0.433-0.855-0.69-1.333
		c-0.475,0.178-0.601,0.178-1.122,0.178c-1.846,0-3.362-1.507-3.362-3.362c0-0.343,0.057-0.685,0.137-0.986c0,0,0,0,0-0.047
		c-3.188-2.192-6.418-4.389-9.644-6.621c-0.081,0.292-0.179,0.592-0.297,0.893c0,0,0,0,0.038,0.047
		c2.112,1.634,3.272,4.047,3.272,6.714c0,4.648-3.799,8.432-8.484,8.432c-4.649,0-8.442-3.784-8.442-8.432
		c0-4.695,3.793-8.484,8.442-8.484c1.333,0,1.854,0.093,3.108,0.605C44.106,11.898,44.106,11.898,44.144,11.898 M57.103,19.776
		c0,1.253,0.995,2.235,2.235,2.235c1.249,0,2.272-0.982,2.272-2.235c0-1.244-1.023-2.287-2.272-2.287
		C58.098,17.49,57.103,18.532,57.103,19.776z M45.393,15.776c-0.132,0.474-0.311,0.99-0.47,1.507
		c-0.474,1.55-2.118,2.888-3.695,3.315c-0.051,0.037-0.135,0.037-0.229,0.037c-0.433,0-0.817-0.427-0.817-0.859
		c0-0.301,0.131-0.558,0.338-0.685c0.046,0,0.103-0.047,0.131-0.089c0.996-0.681,1.78-1.413,2.123-2.372
		c0.207-0.728,0.422-1.502,0.681-2.276c0,0,0,0-0.047,0c-0.737-0.348-1.549-0.517-2.408-0.517c-3.23,0-5.897,2.672-5.897,5.939
		c0,3.272,2.667,5.893,5.897,5.893c3.272,0,5.943-2.62,5.943-5.893C46.942,18.227,46.341,16.852,45.393,15.776z M61.61,17.232
		c1.126-2.751,2.249-5.545,3.36-8.348c0.701,1.338,1.391,2.676,2.119,4.01c0,0,0,0-0.053,0.042
		c-1.972,1.418-3.178,3.526-3.436,5.987c0,0,0,0,0.031,0c-0.337,0-0.68,0-1.027,0c-0.159-0.696-0.47-1.165-0.995-1.639
		C61.61,17.283,61.61,17.283,61.61,17.232z M68.291,15.213c-1.201,0.948-1.892,2.155-2.117,3.709c1.338,0,2.723,0,4.09,0
		c-0.644-1.259-1.282-2.503-1.973-3.748C68.291,15.175,68.291,15.175,68.291,15.213z M72.803,19.396c0.047,0.131,0.1,0.249,0.1,0.38
		c0,0.432-0.395,0.859-0.869,0.859c-1.93,0-3.869,0-5.859,0c0.441,2.931,2.935,5.034,5.859,5.034c3.277,0,5.902-2.62,5.902-5.893
		c0-3.268-2.625-5.939-5.902-5.939c-0.647,0-1.381,0.136-1.981,0.347C70.963,15.903,71.859,17.625,72.803,19.396z M57.492,16.936
		c-0.258-0.554-0.568-1.117-0.858-1.68c-0.442,0-0.911,0-1.386,0c0-0.338,0-0.723,0-1.113c0.305,0,0.601,0,0.916,0
		c0,0,0,0,0.029-0.047c0.178-0.174,0.384-0.258,0.601-0.258c0.263,0,0.475,0.136,0.652,0.258c0,0,0,0,0,0.047
		c0.39,0,0.766,0,1.151,0c0,0.338,0,0.732,0,1.113c-0.333,0-0.681,0-1.024,0c0.216,0.431,0.423,0.863,0.639,1.338
		c0,0,0.052,0,0.099-0.042c0.343-0.089,0.681-0.169,1.028-0.169c0.047,0,0.075,0,0.126,0c0,0,0,0,0.048,0
		c1.075-2.629,2.15-5.253,3.225-7.878c-5.079,0-10.16,0-15.244,0c-0.108,0.516-0.296,1.033-0.47,1.587
		c3.404,2.324,6.808,4.657,10.211,7.019C57.314,17.063,57.394,17.025,57.492,16.936z"/> <path fill-rule="evenodd" clip-rule="evenodd" d="M44.172,11.902c0.517-1.826,1.089-3.69,1.644-5.503l0.507-1.639
		V4.672c0-0.146-0.066-0.239-0.197-0.282l0.019,0.01l-0.052-0.047c-0.813-0.343-1.366-1.164-1.366-2.051
		c0-1.249,0.995-2.258,2.216-2.258h3.954L50.882,0.02v2.282l0.014-0.023h-3.403c-0.128,0-0.272,0.146-0.272,0.286
		c0,0.137,0.046,0.184,0.145,0.272c0.62,0.366,1.193,0.827,1.193,1.705c0,0.305-0.037,0.437-0.098,0.709l-0.033,0.108
		c-0.039,0.211-0.348,1.146-0.348,1.16v0.028h15.442l0.024-0.019c0.285-0.718,0.6-1.46,0.887-2.244l0.019-0.015l-0.042-0.005
		l-3.475-0.906c-0.248-0.037-0.413-0.244-0.413-0.498c0-0.277,0.273-0.535,0.573-0.535h7.888l-0.019-0.023
		c0,0.596-0.249,1.154-0.672,1.578c-0.423,0.418-0.977,0.647-1.545,0.647h-0.014v0.005l-0.051,0.089
		c-0.246,0.61-0.498,1.235-0.785,1.892v0.023c0.977,1.84,2.02,3.742,2.935,5.423l0.015,0.014l0.019-0.005
		c0.954-0.422,2.065-0.643,3.169-0.643c1.136,0,2.24,0.221,3.277,0.657c0.995,0.422,1.887,1.033,2.677,1.817
		c0.765,0.774,1.38,1.676,1.812,2.685c0.432,1.042,0.639,2.151,0.639,3.292c0,4.644-3.761,8.418-8.404,8.418
		c-4.324,0-7.943-3.244-8.414-7.56l-0.018,0.029h0.031v-0.047h-1.047v0.015c-0.215,0.845-0.661,1.469-1.361,1.929l-0.018,0.009
		v0.019c0.178,0.371,0.375,0.747,0.572,1.146l0.291,0.568l0.014,0.014h1.338l-0.019-0.023v1.122l0.019-0.019h-0.91v0.005
		c-0.16,0.165-0.376,0.253-0.635,0.253c-0.248,0-0.464-0.089-0.639-0.253v-0.005h-1.172l0.018,0.019v-1.122l-0.018,0.023h1.111
		l-0.019-0.028l-0.028-0.076c-0.197-0.398-0.413-0.812-0.652-1.258l-0.019-0.019l-0.019,0.01c-0.456,0.164-0.582,0.164-1.104,0.164
		c-1.846,0-3.343-1.497-3.343-3.333c0-0.352,0.051-0.685,0.131-0.986v-0.066c-1.268-0.873-2.554-1.756-3.813-2.62
		c-1.901-1.305-3.887-2.658-5.831-4.009l-0.029-0.015v0.042c-0.103,0.292-0.183,0.592-0.309,0.888v0.014l0.009,0.005l0.037,0.052
		c1.042,0.803,1.859,1.808,2.428,2.963c0.549,1.15,0.845,2.403,0.845,3.732c0,1.127-0.225,2.235-0.671,3.272
		c-0.423,1-1.042,1.902-1.803,2.667c-0.779,0.774-1.671,1.39-2.686,1.808c-1.042,0.446-2.15,0.671-3.305,0.671
		c-4.63,0-8.404-3.775-8.404-8.418c0-1.141,0.211-2.249,0.647-3.292c0.441-1.009,1.042-1.911,1.808-2.685
		c0.784-0.784,1.686-1.395,2.69-1.817c1.023-0.437,2.131-0.657,3.259-0.657c1.295,0,1.822,0.07,3.089,0.596v0.004h0.065
		L44.172,11.902 M44.144,11.874h-0.038v0.01c-1.268-0.525-1.813-0.61-3.108-0.61c-1.141,0-2.235,0.226-3.278,0.667
		c-1.004,0.432-1.92,1.042-2.704,1.827c-0.765,0.785-1.38,1.681-1.803,2.7c-0.441,1.042-0.667,2.16-0.667,3.31
		c0,4.662,3.794,8.461,8.452,8.461c1.155,0,2.263-0.226,3.324-0.667c1.005-0.422,1.916-1.033,2.7-1.816
		c0.774-0.771,1.384-1.681,1.808-2.69c0.455-1.042,0.666-2.15,0.666-3.287c0-1.338-0.276-2.597-0.845-3.756
		c-0.554-1.155-1.385-2.16-2.428-2.973l-0.052-0.037l0.019,0.019c0.131-0.296,0.216-0.602,0.292-0.892v-0.015l-0.029,0.015
		c1.953,1.342,3.926,2.704,5.828,4.005c1.253,0.863,2.558,1.751,3.812,2.625v-0.024v0.047v-0.005
		c-0.081,0.296-0.127,0.639-0.127,0.991c0,1.864,1.512,3.38,3.372,3.38c0.521,0,0.647,0,1.122-0.168l-0.019-0.01
		c0.244,0.437,0.441,0.85,0.652,1.249l0.037,0.075l0.02-0.023h-1.1v1.155h1.174c0.16,0.174,0.386,0.263,0.652,0.263
		c0.259,0,0.494-0.089,0.672-0.263h-0.023h0.93v-1.155h-1.371l0.038,0.009l-0.296-0.578c-0.216-0.394-0.413-0.765-0.568-1.141
		l-0.02,0.023c0.719-0.455,1.17-1.093,1.391-1.948l-0.023,0.019h1.027v-0.047h-0.061v0.019c0.484,4.339,4.118,7.602,8.461,7.602
		c4.662,0,8.456-3.799,8.456-8.461c0-1.15-0.226-2.268-0.662-3.31c-0.423-1.019-1.042-1.915-1.813-2.7
		c-0.779-0.785-1.676-1.395-2.686-1.827c-1.042-0.441-2.15-0.667-3.296-0.667c-1.117,0-2.225,0.226-3.188,0.652l0.019,0.009
		c-0.906-1.681-1.953-3.582-2.917-5.422v0.014c0.273-0.652,0.537-1.277,0.785-1.887l0.033-0.089l-0.02,0.014
		c0.588,0,1.155-0.234,1.578-0.656C68.766,3.479,69,2.911,69,2.301V2.278h-7.906c-0.319,0-0.615,0.286-0.615,0.582
		c0,0.282,0.188,0.498,0.455,0.54l3.475,0.902l-0.01-0.023c-0.309,0.774-0.609,1.512-0.91,2.235l0.032-0.01H48.097l0.028,0.023
		c0-0.046,0.301-0.953,0.347-1.164l0.015-0.108c0.08-0.267,0.117-0.408,0.117-0.713c0-0.901-0.586-1.371-1.22-1.737
		c-0.085-0.079-0.118-0.127-0.118-0.24c0-0.117,0.118-0.239,0.226-0.239h3.441V0h-3.992c-1.244,0-2.268,1.038-2.268,2.301
		c0,0.901,0.573,1.742,1.399,2.089L46.06,4.381l0.046,0.042v0.01c0.118,0.033,0.165,0.108,0.165,0.239v0.089V4.752l-0.502,1.643
		c-0.535,1.798-1.113,3.672-1.643,5.494L44.144,11.874z"/> <path fill-rule="evenodd" clip-rule="evenodd" d="M57.075,19.776c0,0.61,0.239,1.178,0.667,1.606
		c0.422,0.422,0.994,0.657,1.596,0.657c1.258,0,2.305-1.019,2.305-2.263c0-0.61-0.238-1.183-0.681-1.62
		c-0.441-0.445-1.004-0.681-1.624-0.681C58.098,17.476,57.075,18.499,57.075,19.776 M57.122,19.776c0-1.244,0.991-2.254,2.216-2.254
		c0.601,0,1.169,0.235,1.596,0.667c0.422,0.423,0.667,0.995,0.667,1.587c0,1.221-1.014,2.216-2.263,2.216
		c-0.602,0-1.155-0.23-1.568-0.643C57.347,20.936,57.122,20.377,57.122,19.776z"/> <path fill-rule="evenodd" clip-rule="evenodd" d="M45.374,15.771c-0.126,0.479-0.311,1-0.469,1.503
		c-0.456,1.46-2,2.841-3.695,3.301v0.009c-0.051,0.033-0.132,0.033-0.211,0.033c-0.413,0-0.784-0.408-0.784-0.84
		c0-0.295,0.118-0.549,0.324-0.671H40.52c0.066,0,0.103-0.038,0.15-0.089c1.159-0.808,1.807-1.541,2.112-2.376l0.15-0.512
		c0.169-0.578,0.343-1.174,0.535-1.765l0.019-0.024h-0.08h0.014c-0.732-0.348-1.544-0.526-2.422-0.526
		c-0.784,0-1.568,0.165-2.282,0.474c-0.718,0.3-1.333,0.728-1.887,1.277c-1.127,1.132-1.747,2.63-1.747,4.212
		c0,3.263,2.657,5.92,5.916,5.92c1.586,0,3.089-0.615,4.216-1.723c1.126-1.123,1.747-2.611,1.747-4.198
		c0-1.469-0.54-2.859-1.549-4.015l-0.038-0.033V15.771 M45.374,15.785c1.014,1.16,1.549,2.536,1.549,3.991
		c0,1.583-0.62,3.052-1.747,4.164c-1.103,1.104-2.602,1.714-4.178,1.714c-3.23,0-5.869-2.639-5.869-5.878
		c0-1.573,0.601-3.052,1.728-4.178c0.539-0.549,1.174-0.968,1.877-1.269c0.714-0.309,1.479-0.469,2.264-0.469
		c0.878,0,1.671,0.174,2.408,0.521h0.047l-0.014-0.028c-0.192,0.596-0.376,1.187-0.535,1.765l-0.15,0.512
		c-0.311,0.826-0.958,1.559-2.104,2.357h-0.014c-0.033,0.038-0.08,0.08-0.117,0.08c-0.226,0.141-0.357,0.399-0.357,0.709
		c0,0.456,0.403,0.888,0.836,0.888c0.094,0,0.197,0,0.239-0.047h-0.009c1.705-0.456,3.268-1.859,3.714-3.333
		c0.154-0.502,0.337-1.028,0.469-1.507L45.374,15.785z"/> <path fill-rule="evenodd" clip-rule="evenodd" d="M61.629,17.242c1.146-2.794,2.282-5.621,3.371-8.349h-0.047
		c0.629,1.235,1.353,2.634,2.117,4.005v-0.019l-0.051,0.042c-0.973,0.704-1.771,1.572-2.357,2.605
		c-0.588,1.023-0.963,2.165-1.09,3.38v0.029h0.061v-0.042h-1.027l0.023,0.014c-0.169-0.671-0.455-1.146-1-1.643l0.014,0.018v-0.051
		L61.629,17.242 M61.601,17.232v0.065c0.535,0.493,0.831,0.962,0.985,1.625v0.014h1.047v-0.042h-0.031l0.018,0.028
		c0.131-1.226,0.484-2.353,1.076-3.372c0.581-1.019,1.38-1.896,2.356-2.602l0.046-0.051l0.02-0.004l-0.02-0.014
		c-0.736-1.38-1.459-2.766-2.098-4l-0.029-0.037l-0.018,0.037c-1.094,2.738-2.217,5.554-3.353,8.348V17.232z"/> <path fill-rule="evenodd" clip-rule="evenodd" d="M68.272,15.198c-1.202,0.954-1.901,2.17-2.108,3.709v0.029h4.146
		l-0.015-0.038c-0.704-1.319-1.314-2.517-1.985-3.733l-0.038-0.075v0.122V15.198 M68.311,15.213v-0.038l-0.038,0.01
		c0.671,1.211,1.291,2.413,1.972,3.747l0.02-0.037h-4.09l0.028,0.028c0.216-1.541,0.896-2.747,2.108-3.691V15.213z"/> <path fill-rule="evenodd" clip-rule="evenodd" d="M72.794,19.4c0.038,0.132,0.075,0.254,0.075,0.376
		c0,0.399-0.361,0.84-0.836,0.84h-5.869v0.019c0.207,1.418,0.906,2.709,2,3.635c1.07,0.919,2.441,1.427,3.869,1.427
		c1.578,0,3.085-0.615,4.188-1.723c1.113-1.123,1.729-2.611,1.729-4.198s-0.615-3.089-1.729-4.212
		c-1.121-1.126-2.609-1.751-4.188-1.751c-0.629,0-1.381,0.132-1.981,0.353l-0.037,0.009l0.019,0.014l0.263,0.502
		C71.113,16.222,71.939,17.805,72.794,19.4 M72.822,19.387c-0.846-1.596-1.672-3.179-2.479-4.709l-0.273-0.502v0.028
		c0.602-0.216,1.334-0.343,1.963-0.343c1.568,0,3.052,0.611,4.16,1.738c1.108,1.113,1.723,2.596,1.723,4.178
		c0,1.583-0.614,3.052-1.723,4.164c-1.108,1.104-2.582,1.714-4.16,1.714c-1.418,0-2.785-0.502-3.851-1.418
		c-1.065-0.92-1.783-2.197-1.98-3.602l-0.028,0.029h5.859c0.46,0,0.883-0.428,0.883-0.888c0-0.131-0.047-0.249-0.084-0.39H72.822z"/> <path fill-rule="evenodd" clip-rule="evenodd" d="M57.506,16.926c-0.253-0.568-0.583-1.155-0.859-1.681
		l-0.014-0.005h-1.386l0.015,0.015v-1.113l-0.015,0.024h0.916l0.01-0.01l0.038-0.051c0.16-0.15,0.366-0.245,0.582-0.245
		c0.263,0,0.475,0.131,0.634,0.258v-0.023v0.071h1.169l-0.01-0.024v1.113l0.01-0.015h-1.052l0.019,0.034
		c0.225,0.451,0.422,0.864,0.628,1.324l0.02,0.019c0.019,0,0.065,0,0.112-0.047H58.31c0.343-0.084,0.681-0.173,1.028-0.173h0.188
		v-0.005l3.23-7.878l0.019-0.038H47.478v0.019c-0.094,0.39-0.211,0.78-0.338,1.198l-0.131,0.39V10.1l0.015,0.014
		c3.338,2.282,6.793,4.648,10.198,7.015l0.014,0.009v-0.009c0.08-0.038,0.178-0.089,0.258-0.178l0.014-0.005V16.926 M57.478,16.926
		c-0.103,0.08-0.178,0.122-0.258,0.165h0.014c-3.385-2.362-6.854-4.723-10.193-7.014l0.015,0.023l0.113-0.395
		c0.131-0.413,0.263-0.813,0.357-1.202l-0.033,0.023h15.244l-0.014-0.033l-3.24,7.879l0.029-0.014h-0.174
		c-0.348,0-0.705,0.089-1.047,0.169v0.01c-0.028,0.032-0.08,0.037-0.08,0.037l0.033,0.009c-0.213-0.465-0.424-0.882-0.653-1.338
		l-0.02,0.033h1.061v-1.16h-1.188l0.015,0.023v-0.07c-0.16-0.117-0.385-0.258-0.667-0.258c-0.225,0-0.441,0.099-0.62,0.268
		l-0.028,0.042l0.019-0.005h-0.935v1.16h1.405l-0.02-0.005c0.276,0.511,0.582,1.107,0.846,1.671L57.478,16.926z"/> <path fill-rule="evenodd" clip-rule="evenodd" d="M2.864,69.404v0.047c-0.01,0-0.028,0-0.047,0
		c-1.53,0-2.779-1.281-2.779-2.84V54.6c0-0.783,0.629-1.417,1.418-1.417l0.681-15.63c0.047-0.724,0.647-1.287,1.385-1.287
		c0.019,0,0.019,0,0.033,0h102.397c3.888,0,7.062,3.16,7.062,7.052v21.181l-24.331,4.953c0.23-0.69,0.311-1.422,0.311-2.16
		c0-3.868-3.192-7.053-7.052-7.053c-3.878,0-7.067,3.185-7.067,7.053c0,0.738,0.08,1.47,0.315,2.16H32.186
		c0.211-0.69,0.343-1.422,0.343-2.16c0-3.868-3.193-7.053-7.071-7.053c-3.906,0-7.052,3.185-7.052,7.053
		c0,0.738,0.085,1.47,0.31,2.16L2.864,69.404 M14.104,43.317c0-0.784-0.619-1.417-1.38-1.417H8.499c-0.78,0-1.418,0.633-1.418,1.417
		v20.448c0,0.761,0.638,1.375,1.418,1.375h4.225c0.761,0,1.38-0.614,1.38-1.375V43.317z M20.518,51.807
		c-0.788,0-1.427-0.648-1.427-1.427v-7.063c0-0.784,0.639-1.417,1.427-1.417h16.959c0.732,0.023,1.338,0.648,1.338,1.417v7.063
		c0,0.765-0.606,1.399-1.338,1.417L20.518,51.807z M43.797,51.807c-0.779,0-1.418-0.648-1.418-1.427v-7.063
		c0-0.784,0.639-1.417,1.418-1.417h16.959c0.798,0,1.427,0.633,1.427,1.417v7.063c0,0.778-0.629,1.427-1.427,1.427H43.797z
		 M67.141,51.755v0.042c-0.023,0.01-0.043,0.01-0.051,0.01c-0.771,0-1.386-0.648-1.386-1.427v-7.063
		c0-0.784,0.614-1.417,1.386-1.417c0.008,0,0.027,0,0.051,0h16.902c0.78,0,1.409,0.633,1.409,1.417v7.063
		c0,0.778-0.629,1.427-1.409,1.427L67.141,51.755z M90.41,51.807c-0.789,0-1.418-0.648-1.418-1.427v-7.063
		c0-0.784,0.629-1.417,1.418-1.417h14.123c2.328,0,4.211,1.893,4.211,4.221l-0.041,4.259c0,0.765-0.592,1.399-1.344,1.417
		L90.41,51.807z"/> <path fill-rule="evenodd" clip-rule="evenodd" d="M2.854,69.404v0.047l0.01-0.023h-0.01c-0.019,0-0.019,0-0.038,0
		c-1.53,0-2.761-1.264-2.761-2.816V54.6c0-0.773,0.611-1.403,1.4-1.403h0.009v-0.014l0.704-15.63c0.028-0.71,0.63-1.273,1.353-1.273
		c0,0,0.019,0,0.033,0h102.397c3.879,0,7.028,3.16,7.028,7.038v21.181l0.023-0.023l-24.321,4.953l0.033,0.023
		c0.197-0.643,0.297-1.366,0.297-2.16c0-0.943-0.18-1.873-0.564-2.741c-0.353-0.841-0.854-1.597-1.521-2.249
		c-0.653-0.653-1.404-1.164-2.25-1.525c-0.868-0.371-1.788-0.56-2.736-0.56c-0.958,0-1.874,0.188-2.752,0.56
		c-0.845,0.361-1.597,0.872-2.249,1.525c-0.647,0.652-1.168,1.408-1.535,2.249c-0.376,0.868-0.55,1.798-0.55,2.741
		c0,0.794,0.099,1.518,0.296,2.16l0.038-0.023H32.186l0.019,0.023c0.225-0.732,0.343-1.46,0.343-2.16
		c0-0.943-0.188-1.873-0.559-2.741c-0.362-0.841-0.878-1.597-1.531-2.249c-0.653-0.653-1.398-1.164-2.25-1.525
		c-0.882-0.371-1.793-0.56-2.751-0.56c-3.892,0-7.066,3.169-7.066,7.075c0,0.794,0.099,1.521,0.296,2.16l0.028-0.023L2.864,69.386
		h-0.01V69.404 M18.724,69.442c-0.188-0.634-0.3-1.357-0.3-2.151c0-3.873,3.16-7.033,7.033-7.033c0.944,0,1.869,0.188,2.737,0.555
		c0.832,0.356,1.597,0.867,2.23,1.512c0.658,0.652,1.155,1.404,1.512,2.239c0.375,0.874,0.563,1.784,0.563,2.728
		c0,0.695-0.117,1.418-0.347,2.151v0.027h43.044v-0.027c-0.196-0.648-0.31-1.357-0.31-2.151c0-0.943,0.197-1.854,0.573-2.728
		c0.356-0.835,0.864-1.587,1.512-2.239c0.639-0.645,1.408-1.155,2.234-1.512c0.859-0.367,1.794-0.555,2.733-0.555
		c0.948,0,1.859,0.188,2.714,0.555c0.854,0.356,1.605,0.867,2.254,1.512c0.633,0.652,1.154,1.404,1.52,2.239
		c0.357,0.874,0.555,1.784,0.555,2.728c0,0.78-0.121,1.503-0.318,2.151v0.032l0.037-0.005l24.312-4.953h0.019V43.317
		c0-1.887-0.732-3.666-2.07-5c-1.348-1.343-3.123-2.075-5.01-2.075H3.554c-0.014,0-0.014,0-0.033,0c-0.751,0-1.353,0.582-1.399,1.31
		l-0.704,15.63l0.037-0.028C0.658,53.154,0,53.797,0,54.6v12.012c0,1.572,1.268,2.858,2.817,2.858c0.019,0,0.019,0,0.038,0h0.028
		v-0.065l-0.019,0.023l15.851,0.042h0.009V69.442z"/> <path fill-rule="evenodd" clip-rule="evenodd" d="M14.123,43.317c0-0.788-0.62-1.44-1.398-1.44H8.499
		c-0.79,0-1.428,0.652-1.428,1.44v20.448c0,0.774,0.639,1.403,1.428,1.403h4.225c0.779,0,1.398-0.629,1.398-1.403V43.317
		 M14.076,63.766c0,0.751-0.601,1.352-1.352,1.352H8.499c-0.761,0-1.4-0.601-1.4-1.352V43.317c0-0.769,0.639-1.394,1.4-1.394h4.225
		c0.751,0,1.352,0.625,1.352,1.394V63.766z"/> <path fill-rule="evenodd" clip-rule="evenodd" d="M20.518,51.779c-0.779,0-1.399-0.63-1.399-1.399v-7.063
		c0-0.769,0.62-1.394,1.399-1.394h16.959c0.342,0.01,0.685,0.164,0.93,0.422c0.244,0.268,0.375,0.602,0.375,0.972v7.063
		c0,0.366-0.132,0.713-0.375,0.977c-0.245,0.263-0.587,0.403-0.93,0.423H20.518 M37.477,51.82c0.361-0.009,0.695-0.159,0.962-0.44
		c0.245-0.269,0.39-0.63,0.39-1v-7.063c0-0.376-0.146-0.732-0.39-0.999c-0.267-0.268-0.601-0.428-0.962-0.441H20.518
		c-0.788,0-1.446,0.652-1.446,1.44v7.063c0,0.798,0.658,1.44,1.446,1.44H37.477z"/> <path fill-rule="evenodd" clip-rule="evenodd" d="M43.797,51.779c-0.766,0-1.4-0.63-1.4-1.399v-7.063
		c0-0.769,0.634-1.394,1.4-1.394h16.959c0.779,0,1.398,0.625,1.398,1.394v7.063c0,0.77-0.619,1.399-1.398,1.399H43.797
		 M60.756,51.82c0.798,0,1.445-0.643,1.445-1.44v-7.063c0-0.788-0.647-1.44-1.445-1.44H43.797c-0.799,0-1.438,0.652-1.438,1.44
		v7.063c0,0.798,0.639,1.44,1.438,1.44H60.756z"/> <path fill-rule="evenodd" clip-rule="evenodd" d="M67.098,51.755v0.042l0.02-0.018c0,0-0.02,0-0.027,0
		c-0.747,0-1.348-0.63-1.348-1.399v-7.063c0-0.769,0.601-1.394,1.348-1.394c0.008,0,0.027,0,0.027,0c0.023,0,16.926,0,16.926,0
		c0.771,0,1.4,0.625,1.4,1.394v7.063c0,0.77-0.63,1.399-1.4,1.399L67.141,51.74h-0.043V51.755 M84.043,51.82
		c0.799,0,1.446-0.643,1.446-1.44v-7.063c0-0.788-0.647-1.44-1.446-1.44H67.141c-0.023,0-0.043,0-0.051,0
		c-0.771,0-1.399,0.652-1.399,1.44v7.063c0,0.798,0.628,1.44,1.399,1.44c0.008,0,0.027,0,0.051,0h0.01v-0.065l-0.01,0.024
		L84.043,51.82z"/> <path fill-rule="evenodd" clip-rule="evenodd" d="M90.41,51.779c-0.77,0-1.398-0.63-1.398-1.399v-7.063
		c0-0.769,0.629-1.394,1.398-1.394h14.123c2.311,0,4.202,1.883,4.202,4.197l-0.052,4.259c0,0.366-0.131,0.713-0.375,0.977
		c-0.254,0.263-0.588,0.403-0.949,0.423H90.41 M107.359,51.82c0.381-0.009,0.724-0.159,0.963-0.44c0.264-0.269,0.413-0.63,0.413-1
		l0.032-4.259c0-2.334-1.906-4.244-4.234-4.244H90.41c-0.799,0-1.428,0.652-1.428,1.44v7.063c0,0.798,0.629,1.44,1.428,1.44H107.359
		z"/> <path fill-rule="evenodd" clip-rule="evenodd" d="M25.424,64.498c1.549,0,2.803,1.254,2.803,2.793
		c0,1.549-1.253,2.803-2.803,2.803c-1.544,0-2.803-1.254-2.803-2.803C22.622,65.752,23.88,64.498,25.424,64.498 M25.424,61.657
		c3.113,0,5.634,2.521,5.634,5.634c0,3.122-2.521,5.645-5.634,5.645c-3.113,0-5.629-2.522-5.629-5.645
		C19.795,64.178,22.312,61.657,25.424,61.657z"/> <path fill-rule="evenodd" clip-rule="evenodd" d="M25.424,64.517c1.535,0,2.77,1.245,2.77,2.774
		c0,1.535-1.235,2.78-2.77,2.78c-1.526,0-2.784-1.245-2.784-2.78C22.641,65.762,23.898,64.517,25.424,64.517 M25.424,64.475
		c-1.563,0-2.817,1.263-2.817,2.816c0,1.555,1.253,2.826,2.817,2.826c1.549,0,2.817-1.271,2.817-2.826
		C28.242,65.737,26.974,64.475,25.424,64.475z"/> <path fill-rule="evenodd" clip-rule="evenodd" d="M25.424,61.68c3.094,0,5.621,2.518,5.621,5.611
		c0,3.099-2.526,5.62-5.621,5.62s-5.62-2.521-5.62-5.62C19.804,64.197,22.33,61.68,25.424,61.68 M25.424,61.634
		c-3.122,0-5.662,2.54-5.662,5.657c0,3.127,2.54,5.658,5.662,5.658c3.113,0,5.658-2.531,5.658-5.658
		C31.082,64.174,28.538,61.634,25.424,61.634z"/> <path fill-rule="evenodd" clip-rule="evenodd" d="M81.94,64.498c1.563,0,2.835,1.254,2.835,2.793
		c0,1.549-1.271,2.803-2.835,2.803c-1.578,0-2.851-1.254-2.851-2.803C79.09,65.752,80.362,64.498,81.94,64.498 M81.94,61.657
		c3.108,0,5.634,2.521,5.634,5.634c0,3.122-2.525,5.645-5.634,5.645c-3.127,0-5.648-2.522-5.648-5.645
		C76.292,64.178,78.813,61.657,81.94,61.657z"/> <path fill-rule="evenodd" clip-rule="evenodd" d="M81.94,64.517c1.549,0,2.817,1.245,2.817,2.774
		c0,1.535-1.269,2.78-2.817,2.78c-1.56,0-2.836-1.245-2.836-2.78C79.104,65.762,80.381,64.517,81.94,64.517 M81.94,64.475
		c-1.578,0-2.869,1.263-2.869,2.816c0,1.555,1.291,2.826,2.869,2.826c1.582,0,2.854-1.271,2.854-2.826
		C84.795,65.737,83.522,64.475,81.94,64.475z"/> <path fill-rule="evenodd" clip-rule="evenodd" d="M81.94,61.68c3.089,0,5.601,2.518,5.601,5.611
		c0,3.099-2.512,5.62-5.601,5.62c-3.118,0-5.615-2.521-5.615-5.62C76.325,64.197,78.822,61.68,81.94,61.68 M81.94,61.634
		c-3.127,0-5.667,2.54-5.667,5.657c0,3.127,2.54,5.658,5.667,5.658c3.108,0,5.652-2.531,5.652-5.658
		C87.593,64.174,85.049,61.634,81.94,61.634z"/> </g> </symbol><symbol viewBox="0 0 1613.734 1468.711" id="icon-bumps-logo"><title>bumps-logo</title> <g> <g> <path d="M224.437,800.216c0,73.916,59.884,138.208,133.824,138.208c73.875,0,133.8-66.511,133.8-140.393
			c0-4.879-0.311-21.021-0.813-21.021H225.214C224.729,777.011,224.437,795.358,224.437,800.216z"/> <path d="M1243.417,942.768c73.904,0,133.817-68.636,133.817-142.552c0-4.857-0.311-23.205-0.813-23.205h-266.034
			c-0.526,0-0.79,18.348-0.79,23.205C1109.598,874.132,1169.512,942.768,1243.417,942.768z"/> <path d="M807.234,0C375.358,0,38.797,347.314,29.914,777.011h94.703c-15.397-36-23.679-91.803-23.679-145.605
			c0-283.063,229.488-508.178,512.552-508.178c203.316,0,378.96,120.55,461.847,292.128c11.959-1.147,29.751-0.624,41.985-0.624
			c202.181,0,372.537,162.225,381.998,362.294l84.945-0.016h0.289C1575.68,347.307,1239.069,0,807.234,0z"/> <g display="none"> <path display="inline" fill-rule="evenodd" clip-rule="evenodd" d="M1534.719,986.285
				c-6.756,18.644,9.293,14.41,11.875,23.727c-5.775,31.797-36.354,38.733-29.633,83.005c-31.332,1.663-57.557-1.733-59.268-29.646
				c-23.75,0-47.464,0-71.131,0c-6.397,11.444-11.385,24.228-35.612,17.783c0,7.892,0,15.797,0,23.725
				c29.718,13.741,84.906,2.01,124.515,5.933c19.731,31.596,89.521,13.178,106.707,47.428c0,13.824,0,27.661,0,41.461
				c-28.929,24.432-74.993,31.727-94.881,65.236c-76.572-0.24-137.25,27.743-183.745-17.797c0-19.755,0-39.511,0-59.266
				c23.175,9.352,12.245-15.404,23.678-17.771c3.994,0,7.94,0,11.875,0c21.563-5.788,2.75,28.845,29.598,17.771
				c1.961,19.707-29.107,6.421-17.746,35.564c50.44,22.674,94.139-12.521,148.216-5.943c5.62-14.123,21.933-17.592,17.795-41.484
				c-31.571-23.774-93.218-17.46-148.265-17.771c-9.147-32.359-68.953-14.003-94.82-29.634c0-15.856,0-31.654,0-47.451
				c21.203-20.318,66.167-16.839,77.074-47.441c48.78,1.34,74.431-20.438,130.444-11.851
				C1497.146,1008.001,1499.836,981.035,1534.719,986.285z"/> <path display="inline" fill-rule="evenodd" clip-rule="evenodd" d="M212.646,1004.092
				c9.914,21.501,19.738,52.14,0,71.131c50.454,2.918,76.823,29.919,106.75,53.383c0,19.731,0,39.488,0,59.269
				c-24.084,27.313-51.56,51.194-77.092,77.063c-90.946,5.571-118.092,1.78-213.409,0c7.504-23.32-13.992-17.629-29.64-17.797
				c15.899-61.107,22.602-131.545,17.771-213.427C95.02,1036.632,155.017,1021.504,212.646,1004.092z M105.967,1063.371
				c8.419,30.184-29.878,13.62-47.434,17.783c0,15.797,0,31.595,0,47.451c9.884,0,19.72,0,29.622,0
				c7.426-38.077,67.758-23.176,77.098-59.314c-10.236-5.597-9.704-21.921-29.646-17.807
				C141.712,1071.42,117.137,1060.716,105.967,1063.371z M58.533,1170.103c8.557,22.387-16.33,11.36-11.887,29.598
				c10.637-0.753,13.896,5.92,11.887,17.795c64.117,14.697,98.689,6.41,165.981,0c11.516-30.029,66.568-16.443,47.452-77.074
				C175.58,1125.09,131.434,1161.971,58.533,1170.103z"/> <path display="inline" fill-rule="evenodd" clip-rule="evenodd" d="M544.656,1004.092c9.884,0,19.786,0,29.664,0
				c-3.545,15.403,2.356,21.31,17.759,17.771c8.359,27.266-18.751,89.906,17.807,88.949c0,29.609,0,59.291,0,88.889
				c-19.313,22.22-62.419,20.594-77.098,47.439c-28.874,8.646-94.3-19.192-94.863,17.797c-25.663,0-51.333,0-77.038,0
				c1.949-27.649-23.63-27.77-29.658-47.441c23.798-41.438,22.901-107.51,29.658-166.011c29.741,11.97,8.616-26.919,23.721-29.622
				c7.917,0,15.803,0,23.696,0c-0.132,67.041,2.613,136.976-29.616,171.918c2.41,11.421,27.123,0.527,17.771,23.715
				c50.902-14.303,111.545-18.822,165.999-29.621c-8.651-28.917,19.17-94.307-17.8-94.857
				C544.656,1063.371,544.656,1033.713,544.656,1004.092z"/> <path display="inline" fill-rule="evenodd" clip-rule="evenodd" d="M1184.939,1110.812c0-15.834,0-31.643,0-47.44
				c-26.765,0.896-62.761-7.45-65.213,17.783c-21.058,9.208-3.551-20.139-17.781-17.783c-20.008,27.421-71.047,23.762-71.155,71.131
				c20.976,14.756,67.64,4.58,65.247-23.69C1125.67,1110.812,1155.305,1110.812,1184.939,1110.812
				c-36.379,44.63-96.914,65.055-154.149,88.889c-0.274,31.332,5.92,69.157-17.758,77.086
				c-45.934-51.769-2.942-178.221-11.875-243.073c36.82-7.188,28.462,30.806,71.142,17.771
				c18.859-40.385,107.665-10.942,130.434-47.393c13.37,12.364,27.159,24.204,59.292,17.771c0,13.824,0,27.672,0,41.509
				C1226.363,1069.194,1231.314,1115.643,1184.939,1110.812z"/> <path display="inline" fill-rule="evenodd" clip-rule="evenodd" d="M651.394,1021.862c15.786,0,31.631,0,47.417,0
				c-5.089,50.55,34.357,56.564,47.41,88.949c21.753,0,43.5,0,65.211,0c47.081-20.115,38.662-95.754,112.639-88.949
				c0,75.089,0,150.201,0,225.277c-76.278-2.535-21.656-83.423-29.621-136.328c-57.881,19.492-131.307,97.416-189.732,29.609
				c-15.068,2.679,6.058,41.593-23.678,29.682c0,25.664,0,51.351,0,77.037c-9.926,0-19.786,0-29.646,0
				c10.326-46.949-21.634-136.232,17.777-154.123C651.669,1080.831,647.633,1055.251,651.394,1021.862z"/> <path display="inline" fill-rule="evenodd" clip-rule="evenodd" d="M758.107,1336.09c5.932,0,11.833,0,17.776,0
				c0,15.81,0,31.596,0,47.404c-26.895-11.085-8.072,23.559-29.664,17.818C739.756,1369.084,766.861,1370.53,758.107,1336.09z"/> <path display="inline" fill-rule="evenodd" clip-rule="evenodd" d="M17.024,1353.873c9.884,0,19.798,0,29.622,0
				c22.428,34.896,77.098,37.502,106.719,65.211c0,29.586-49.951,9.291-47.398,41.496c-32.856,0.754-72.547-5.381-88.943,11.84
				C17.024,1432.919,17.024,1393.396,17.024,1353.873z M28.894,1442.785c37.724,0.24,68.966-6.075,88.901-23.701
				c-15.744-15.881-57.833-5.382-59.262-35.59c-9.902,0-19.755,0-29.64,0C28.894,1403.25,28.894,1423.019,28.894,1442.785z"/> <path display="inline" fill-rule="evenodd" clip-rule="evenodd" d="M224.515,1353.873c15.803,0,31.648,0,47.452,0
				c7.127,24.934-9.567,25.962-11.893,41.496c2.594,13.251,29.239,2.403,41.514,5.943c0,23.679,0,47.404,0,71.107
				c-16.897-12.736-15.265-43.996-29.622-59.268c-7.929,0-15.804,0-23.72,0c-12.293,25.232-60.894,14.23-65.223,47.428
				c0-29.645,0-59.268,0-88.925c9.877,0,19.762,0,29.622,0c-2.027,17.699-28.354,11.158-17.771,41.497
				c22.716,2.917,18.943-20.593,47.428-11.84c0-7.917,0-15.833,0-23.738C239.888,1366.154,215.163,1377.06,224.515,1353.873z"/> <path display="inline" fill-rule="evenodd" clip-rule="evenodd" d="M396.457,1371.655c-1.967,0-3.934,0-5.932,0
				c-3.934,0-7.904,0-11.839,0c0-5.943,0-11.852,0-17.782c5.92,0,11.839,0,17.771,0
				C396.457,1359.804,396.457,1365.712,396.457,1371.655z"/> <path display="inline" fill-rule="evenodd" clip-rule="evenodd" d="M485.376,1383.494
				c3.235-8.61-6.913-30.614,5.902-29.621C511.644,1347.188,508.863,1396.983,485.376,1383.494z"/> <path display="inline" fill-rule="evenodd" clip-rule="evenodd" d="M639.507,1413.152
				c20.7,7.008,20.814,34.524,53.401,29.633c13.071-0.718,2.487-25.137,5.902-35.564c-19.899-7.797-22.22-33.138-29.64-53.348
				c9.902,0,19.755,0,29.64,0c5.357,32.755,29.64,98.683-5.902,118.547c-15.54-2.297-16.61-18.991-41.515-11.84
				C654.282,1437.906,630.777,1441.638,639.507,1413.152z"/> <path display="inline" fill-rule="evenodd" clip-rule="evenodd" d="M864.827,1371.655c0-5.943,0-11.852,0-17.782
				c19.756,0,39.511,0,59.243,0c8.611,22.422-16.275,11.36-11.851,29.621C883.746,1392.248,887.489,1368.713,864.827,1371.655z"/> <path display="inline" fill-rule="evenodd" clip-rule="evenodd" d="M1018.951,1460.58c-5.919,0-11.815,0-17.794,0
				c0-19.756,0-39.535,0-59.268c21.621-25.854,78.042-16.874,94.88-47.439c13.824,0,27.673,0,41.461,0c0,15.796,0,31.606,0,47.439
				c-36.82,7.176-28.474-30.842-71.106-17.818C1050.235,1408.87,1003.022,1403.166,1018.951,1460.58z"/> <path display="inline" fill-rule="evenodd" clip-rule="evenodd" d="M1410.229,1383.494
				c-11.827,0-23.667,0-35.578,0c-16.061,19.518-33.854,37.299-53.359,53.385c-2.667,16.49,32.313-4.664,29.658,11.838
				c3.635,23.38-32.528,6.973-47.404,11.863c5.68-25.448-4.234-35.326-29.67-29.645c8.729-28.487-14.77-24.756-11.852-47.441
				c-7.917,0-15.822,0-23.714,0c-4.604,15.163-17.042,22.507-41.484,17.818c-4.473-26.213,30.063-13.44,17.77-47.439
				c9.854,0,19.757,0,29.658,0c0.682,34.835,61.444,9.675,47.429,59.279c39.487-0.048,59.231-19.804,59.268-59.279
				c9.866,0,19.731,0,29.633,0C1367.105,1387.129,1416.891,1357.09,1410.229,1383.494z"/> <path display="inline" fill-rule="evenodd" clip-rule="evenodd" d="M349.017,1371.655
				c31.846,22.004-3.08,74.467-5.938,100.765c-24.539,0.836-6.141-41.246-11.852-59.268
				C359.606,1421.739,345.979,1388.373,349.017,1371.655z"/> <path display="inline" fill-rule="evenodd" clip-rule="evenodd" d="M396.457,1371.655
				c18.279-4.425,7.229,20.413,29.658,11.839c-2.242,25.962,7.056,40.349,23.702,47.441c8.377-15.345,10.44-36.942,23.708-47.441
				c3.934,0,7.898,0,11.851,0c0,9.901,0,19.756,0,29.658c-5.943,0-11.851,0-17.753,0c7.893,31.642-19.804,27.636-11.887,59.268
				c-38.705,9.064-14.518-44.726-47.434-41.484C416.213,1399.304,388.541,1403.298,396.457,1371.655z"/> <path display="inline" fill-rule="evenodd" clip-rule="evenodd" d="M532.787,1371.655
				c13.298,2.512,18.931,12.7,29.669,17.794c-21.478,12.103-19.235,47.931-17.8,82.971
				C518.329,1461.215,539.729,1402.271,532.787,1371.655z"/> <path display="inline" fill-rule="evenodd" clip-rule="evenodd" d="M639.507,1413.152c-9.86,0-19.738,0-29.622,0
				c-3.624,14.184,7.426,43.003-5.926,47.428c-26.034-7.582-5.184-62.041-11.881-88.925c9.896,0,19.815,0,29.658,0
				C611.176,1401.982,637.461,1395.453,639.507,1413.152z"/> <path display="inline" fill-rule="evenodd" clip-rule="evenodd" d="M864.827,1371.655
				c9.119,24.958-30.692,0.944-29.657,17.794c-9.048,26.836,38.717-3.145,29.657,23.703c-19.786,0-39.56,0-59.304,0
				c-7.133-24.947,9.573-26.01,11.875-41.497C833.202,1371.655,849.005,1371.655,864.827,1371.655z"/> <path display="inline" fill-rule="evenodd" clip-rule="evenodd" d="M1410.229,1383.494c5.931,0,11.851,0,17.758,0
				c-3.587,14.171,7.499,43.027-5.907,47.441c-3.934,0-7.893,0-11.851,0C1410.229,1415.137,1410.229,1399.304,1410.229,1383.494z"/> <path display="inline" fill-rule="evenodd" clip-rule="evenodd" d="M1475.465,1442.785
				c-5.957,0-11.888,0-17.771,0c3.683-18.01-7.605-51.063,5.884-59.291C1488.164,1382.646,1469.783,1424.74,1475.465,1442.785z"/> <path display="inline" fill-rule="evenodd" clip-rule="evenodd" d="M1196.826,1401.313
				c7.127,24.922-9.592,25.975-11.887,41.473c41.579,8.025,55.811-11.408,88.937-11.85c4.413,18.248-20.414,7.234-11.852,29.645
				c-21.274,0.454-48.266-4.831-53.359,11.84c-12.749-16.862-55.872-3.396-59.269-29.635
				c-22.816,19.589-97.021,48.003-130.445,17.795c19.827-5.884,66.454,15.068,59.268-17.795
				C1138.133,1449.303,1155.473,1413.344,1196.826,1401.313z"/> <path display="inline" fill-rule="evenodd" clip-rule="evenodd" d="M864.827,1413.152c25.688,0,51.351,0,77.051,0
				c-3.624,14.184,7.449,43.003-5.92,47.428c-22.566,8.729-1.173-26.5-23.738-17.795c0-3.935,0-7.892,0-11.85
				c-14.184-3.6-42.985,7.426-47.393-5.944C864.827,1421.045,864.827,1417.099,864.827,1413.152z"/> <path display="inline" fill-rule="evenodd" clip-rule="evenodd" d="M1410.229,1430.936
				c-0.658,7.234-1.782,14.05-11.827,11.85c0-3.935,0-7.892,0-11.85C1402.349,1430.936,1406.271,1430.936,1410.229,1430.936z"/> <path display="inline" fill-rule="evenodd" clip-rule="evenodd" d="M1475.465,1442.785
				c47.451,7.952,67.829-11.193,106.707-11.85c5.752,21.584-28.881,2.726-17.782,29.645c-32.827,0.754-72.566-5.381-88.925,11.84
				C1475.465,1462.542,1475.465,1452.676,1475.465,1442.785z"/> <path display="inline" fill-rule="evenodd" clip-rule="evenodd" d="M894.449,1460.58
				c-4.036,25.592-53.845,5.441-77.051,11.84c3.229-8.587-6.942-30.639,5.92-29.635
				C835.433,1460.27,861.06,1464.312,894.449,1460.58z"/> <path display="inline" fill-rule="evenodd" clip-rule="evenodd" d="M912.22,1442.785c0,5.932,0,11.863,0,17.795
				c-5.92,0-11.828,0-17.771,0c0-5.932,0-11.863,0-17.795C900.392,1442.785,906.3,1442.785,912.22,1442.785z"/> <path display="inline" fill-rule="evenodd" clip-rule="evenodd" d="M1368.696,1442.785
				c17.34-8.705,17.34,26.524,0,17.795C1368.696,1454.648,1368.696,1448.717,1368.696,1442.785z"/> </g> </g> <g> <path d="M169.556,1413.43c0,7.603-2.958,12.409-8.87,14.414c-9.4,9.083-23.443,15.63-42.134,19.642
			c-15.736,2.534-31.469,5.068-47.203,7.603c-4.225,0.847-9.029,2.376-14.415,4.594c-4.648,2.005-9.293,4.012-13.939,6.02
			c-1.584,0.634-3.009,0.95-4.277,0.95c-4.014,0-7.393-2.007-10.137-6.02c-2.641-3.588-3.96-7.496-3.96-11.721
			c0-4.223,1.478-7.445,4.435-9.663c2.111-8.974,3.168-19.428,3.168-31.362c0-17.107-1.849-33.051-5.544-47.836
			c-4.225-2.852-6.336-6.757-6.336-11.722c0-3.802,1.213-7.259,3.643-10.375c2.428-3.113,5.49-4.673,9.187-4.673
			c2.218,0,5.279,1.321,9.188,3.96c2.745,2.113,5.543,4.225,8.395,6.336c13.409,9.187,30.516,17.953,51.321,26.294
			c18.058,6.865,36.061,13.729,54.014,20.592C165.066,1394.159,169.556,1401.814,169.556,1413.43z M136.768,1410.42
			c-29.462-9.504-56.761-20.96-81.892-34.372c0.95,8.66,1.426,18.27,1.426,28.828c0,7.076-0.265,15.895-0.792,26.452
			c8.447-1.688,24.497-4.328,48.153-7.92C118.552,1421.191,129.585,1416.862,136.768,1410.42z"/> <path d="M309.612,1454.771c0,3.062-2.007,5.86-6.019,8.396c-3.591,2.321-7.024,3.484-10.296,3.484
			c-5.282,0-8.87-3.168-10.771-9.504c-1.901-5.913-3.116-12.988-3.643-21.226c-0.106-3.271-0.159-10.506-0.159-21.7
			c0-0.421-0.213-0.634-0.633-0.634c-9.717,0-22.916,1.579-39.6,4.734c-20.275,3.789-33.528,6-39.758,6.628
			c-0.106,0.842-0.159,8.524-0.159,23.042c0,2.737-1.294,4.921-3.881,6.552c-2.588,1.631-5.36,2.445-8.315,2.445
			c-4.542,0-7.604-1.369-9.188-4.111c-1.057-2.005-1.584-5.484-1.584-10.439c0-4.004,0.421-9.593,1.268-16.763
			c-2.324-2.847-3.485-6.433-3.485-10.756c0-5.482,1.953-9.121,5.861-10.912c0.527-5.797,0.896-10.754,1.108-14.867
			c-4.648-1.792-6.969-5.745-6.969-11.86c0-5.271,2.004-8.804,6.019-10.598c-0.53-2.316-0.792-4.268-0.792-5.852
			c0-1.791,0.95-3.294,2.851-4.507c1.901-1.212,3.802-1.818,5.703-1.818c4.222,0,8.236,1.638,12.038,4.91
			c34.107-11.299,58.817-16.949,74.13-16.949c4.539,0,8.34,2.06,11.405,6.178c2.745,3.698,4.118,7.92,4.118,12.672
			c0,4.015-1.322,7.445-3.96,10.296c-6.019,6.232-16.315,13.464-30.888,21.701c13.939-2.218,25.712-3.327,35.323-3.327
			c6.019,0,10.454,0.951,13.306,2.852c3.484,2.218,5.227,6.231,5.227,12.038c0,0.213-0.634,2.431-1.901,6.652
			c-1.163,3.802-1.742,8.925-1.742,15.365c0,6.336,1.529,14.362,4.593,24.076C309.347,1452.554,309.612,1453.821,309.612,1454.771z
			 M254.648,1366.86c-4.965,1.057-22.124,6.391-51.479,15.998c-0.106,3.592-0.265,8.45-0.475,14.573
			c7.497-1.688,16.632-5.648,27.403-11.88C240.867,1379.322,249.049,1373.093,254.648,1366.86z"/> <path d="M368.884,1370.82c0,7.92-1.401,19.642-4.197,35.165c-2.799,15.522-4.198,27.192-4.198,35.006
			c0,1.584,0.158,3.935,0.475,7.049c0.317,3.115,0.475,5.464,0.475,7.048c0,2.852-1.594,5.228-4.781,7.128
			c-2.762,1.584-5.737,2.376-8.925,2.376c-5.42,0-8.925-1.531-10.519-4.593c-1.168-2.008-1.752-5.913-1.752-11.722
			c0-8.131,1.371-20.196,4.118-36.194c2.745-15.998,4.119-28.061,4.119-36.193c0-6.229-0.582-12.301-1.743-18.216
			c-0.529-2.535-0.792-4.381-0.792-5.544c0-5.279,3.062-7.92,9.187-7.92c7.391,0,12.514,2.799,15.365,8.395
			C367.828,1356.619,368.884,1362.69,368.884,1370.82z"/> <path d="M515.118,1350.229c0,5.386-3.01,13.729-9.029,25.027c-4.225,8.133-8.977,16.053-14.256,23.76
			c-7.92,11.511-13.202,19.379-15.84,23.601c-7.182,11.405-11.301,19.538-12.355,24.394c-1.374,6.76-2.272,10.507-2.693,11.246
			c-1.584,3.168-4.91,4.752-9.979,4.752c-12.778,0-19.166-5.227-19.166-15.681c0-5.279-4.7-16.632-14.098-34.056
			c-7.182-13.199-13.887-24.445-20.117-33.739c-3.064-4.328-6.125-8.657-9.187-12.988c-4.539-6.653-6.811-10.875-6.811-12.672
			c0-3.379,1.849-6.494,5.544-9.346c3.378-2.534,6.863-3.802,10.454-3.802c2.218,0,4.487,0.898,6.812,2.693
			c4.646,3.801,12.459,15.894,23.443,36.272c7.92,14.573,14.835,28.25,20.75,41.025c5.386-9.504,12.724-21.487,22.017-35.956
			c8.024-12.672,13.516-23.547,16.474-32.63c1.054-3.379,2.111-6.757,3.168-10.138c1.794-3.695,4.539-5.544,8.237-5.544
			c3.695,0,7.39,1.4,11.088,4.197C513.269,1343.445,515.118,1346.64,515.118,1350.229z"/> <path d="M561.401,1370.82c0,7.92-1.401,19.642-4.197,35.165c-2.799,15.522-4.198,27.192-4.198,35.006
			c0,1.584,0.158,3.935,0.475,7.049c0.317,3.115,0.475,5.464,0.475,7.048c0,2.852-1.594,5.228-4.781,7.128
			c-2.762,1.584-5.737,2.376-8.925,2.376c-5.42,0-8.925-1.531-10.519-4.593c-1.168-2.008-1.752-5.913-1.752-11.722
			c0-8.131,1.371-20.196,4.118-36.194c2.745-15.998,4.119-28.061,4.119-36.193c0-6.229-0.582-12.301-1.743-18.216
			c-0.529-2.535-0.792-4.381-0.792-5.544c0-5.279,3.062-7.92,9.187-7.92c7.391,0,12.514,2.799,15.365,8.395
			C560.345,1356.619,561.401,1362.69,561.401,1370.82z"/> <path d="M733.802,1426.735c0,10.35-2.376,18.69-7.128,25.026c-5.385,7.073-13.095,10.613-23.126,10.613
			c-11.405,0-25.557-8.183-42.451-24.552c-9.187-8.975-20.488-22.018-33.897-39.125c-2.641,17.53-3.96,28.936-3.96,34.214
			c0,1.797,0.131,4.463,0.396,8c0.263,3.539,0.396,6.152,0.396,7.84c0,2.958-1.584,5.334-4.752,7.128
			c-2.747,1.478-5.65,2.218-8.711,2.218c-5.175,0-8.608-1.426-10.296-4.276c-1.268-2.111-1.901-5.913-1.901-11.405
			c0-7.073,1.054-17.527,3.168-31.362c2.111-13.833,3.168-24.287,3.168-31.363c0-6.652-0.792-12.09-2.376-16.314
			c-1.267-3.485-1.901-5.807-1.901-6.97c0-2.534,2.321-4.855,6.97-6.97c4.118-1.9,7.603-2.851,10.454-2.851
			c3.485,0,6.336,1.9,8.553,5.702c20.802,34.743,44.668,61.671,71.596,80.783c3.378,2.534,5.702,3.801,6.97,3.801
			c3.168,0,4.752-4.855,4.752-14.572c0-10.348-3.223-21.646-9.663-33.897c-3.381-6.546-9.345-15.892-17.899-28.036
			c-6.336-9.081-9.504-14.941-9.504-17.582c0-3.272,1.267-6.678,3.802-10.217c2.534-3.537,5.385-5.307,8.553-5.307
			c2.745,0,5.806,1.901,9.187,5.702c9.925,11.194,18.901,25.926,26.928,44.193C729.577,1396.587,733.802,1413.112,733.802,1426.735z
			"/> <path d="M797.066,1333.28c0,1.9-1.742,7.128-5.227,15.682c-1.584,3.381-3.75,8.553-6.494,15.522
			c-1.584,5.809-4.331,14.362-8.237,25.661c-2.324,5.281-6.759,7.92-13.305,7.92c-3.485,0-6.601-0.845-9.346-2.535
			c-3.274-2.005-4.91-4.646-4.91-7.92c0-3.062,3.168-12.83,9.504-29.304c6.123-15.733,10.399-25.764,12.83-30.096
			c2.638-4.752,6.546-7.128,11.721-7.128c3.589,0,6.732,1.164,9.425,3.485C795.72,1326.893,797.066,1329.795,797.066,1333.28z"/> <path d="M955.527,1423.884c0,9.188-9.083,18.164-27.244,26.928c-12.461,6.02-25.502,10.612-39.124,13.78
			c-12.251,2.745-23.498,4.119-33.739,4.119c-24.076,0-36.114-7.076-36.114-21.226c0-1.371-0.055-3.089-0.159-5.148
			c-0.105-2.059-0.158-3.509-0.158-4.355c0-4.223,1.371-8.078,4.118-11.563c3.802-4.752,8.131-7.128,12.989-7.128
			c2.955,0,6.123,0.74,9.504,2.218c4.118,1.9,6.178,4.118,6.178,6.652c0,2.642-0.926,4.728-2.772,6.257
			c-1.849,1.532-2.771,3.302-2.771,5.307c0,3.064,3.009,4.594,9.028,4.594c12.565,0,26.081-1.847,40.55-5.544
			c19.324-4.963,28.987-9.449,28.987-13.464c0-2.218-4.752-4.329-14.256-6.336c-6.02-1.371-11.935-2.376-17.741-3.01
			c-10.243-0.95-20.487-1.847-30.729-2.692c-16.264-1.795-28.936-4.381-38.016-7.762c-12.355-4.646-18.533-10.93-18.533-18.85
			c0-7.286,7.707-14.993,23.125-23.126c11.615-6.02,22.861-10.348,33.739-12.988c10.875-2.639,20.75-3.96,29.62-3.96
			c4.646,0,8.871,0.371,12.672,1.108c4.963-9.82,10.559-14.731,16.79-14.731c4.013,0,7.576,1.453,10.692,4.356
			c3.113,2.905,4.673,6.363,4.673,10.375c0,2.747-1.029,5.175-3.089,7.286c-2.06,2.114-4.039,4.173-5.94,6.178
			c-1.163,1.584-2.192,4.965-3.088,10.138c-0.898,5.175-1.876,8.767-2.931,10.771c-1.901,3.485-5.069,5.228-9.504,5.228
			c-4.752,0-8.977-1.268-12.672-3.802c-4.118-2.955-5.86-6.757-5.228-11.404h-1.425c-7.604-0.104-16.791,0.74-27.562,2.534
			c-14.469,2.534-21.755,5.915-21.859,10.138c2.005,1.69,9.449,3.063,22.334,4.118c22.493,1.9,35.007,3.01,37.541,3.326
			c14.993,1.901,25.66,4.648,31.996,8.237C948.82,1408.044,955.527,1415.86,955.527,1423.884z"/> <path d="M1183.906,1420.082c0,6.549-2.324,11.353-6.97,14.414c-2.007,1.268-8.185,3.96-18.532,8.079
			c-39.6,15.84-71.65,23.76-96.147,23.76c-22.389,0-37.54-6.653-45.46-19.959c-3.906-6.546-5.861-13.409-5.861-20.592
			c0-12.459,6.705-25.289,20.117-38.49c11.825-11.615,26.556-21.487,44.192-29.62c17.107-7.92,31.68-11.88,43.718-11.88
			c3.168,0,6.123,0.316,8.871,0.95c2.004-12.672,7.073-19.008,15.206-19.008c4.012,0,7.655,1.431,10.93,4.286
			c3.271,2.859,4.91,6.299,4.91,10.318c0,2.329-1.401,6.616-4.198,12.86c-2.799,6.244-4.197,11.483-4.197,15.716
			c0,1.376,0.184,3.495,0.555,6.351c0.368,2.858,0.555,5.029,0.555,6.51c0,4.551-1.48,8.149-4.436,10.796
			c-2.958,2.646-6.759,3.967-11.404,3.967c-4.965,0-8.292-2.044-9.979-6.138c-0.95-3.881-1.955-7.762-3.01-11.643
			c-1.584-4.091-4.858-6.138-9.82-6.138c-13.306,0-29.779,7.059-49.42,21.174c-17.107,12.221-25.661,22.438-25.661,30.654
			c0,8.638,8.764,12.957,26.294,12.957c22.597,0,47.097-6.123,73.497-18.375c6.229-3.062,12.459-6.177,18.691-9.345
			c9.607-4.646,15.522-6.97,17.74-6.97c3.484,0,6.071,1.797,7.762,5.386C1183.219,1412.851,1183.906,1416.177,1183.906,1420.082z"/> <path d="M1319.052,1398.54c0,14.152-9.927,27.034-29.779,38.649c-25.977,15.313-52.536,22.968-79.674,22.968
			c-9.717,0-17.795-1.532-24.235-4.594c-8.553-4.118-12.83-10.506-12.83-19.166c0-18.374,18.109-43.084,54.331-74.131
			c-2.324-2.955-3.485-6.229-3.485-9.82c0-3.695,1.53-6.546,4.594-8.554c2.534-1.794,5.755-2.692,9.662-2.692
			c4.329,0,11.033,1.69,20.117,5.068C1298.618,1361.265,1319.052,1378.688,1319.052,1398.54z M1294.024,1399.174
			c0-11.192-14.31-20.01-42.926-26.452c-2.324,2.323-5.809,5.809-10.454,10.454c-14.679,13.835-22.44,21.173-23.284,22.018
			c-11.301,11.511-16.949,19.589-16.949,24.234c0,3.697,3.906,5.544,11.722,5.544c12.038,0,25.713-2.534,41.025-7.604
			c16.79-5.489,28.773-12.038,35.956-19.641C1292.387,1404.139,1294.024,1401.287,1294.024,1399.174z"/> <path d="M1461.008,1398.54c0,14.152-9.927,27.034-29.779,38.649c-25.977,15.313-52.536,22.968-79.674,22.968
			c-9.717,0-17.795-1.532-24.235-4.594c-8.553-4.118-12.83-10.506-12.83-19.166c0-18.374,18.109-43.084,54.331-74.131
			c-2.324-2.955-3.485-6.229-3.485-9.82c0-3.695,1.53-6.546,4.594-8.554c2.534-1.794,5.755-2.692,9.662-2.692
			c4.329,0,11.034,1.69,20.117,5.068C1440.574,1361.265,1461.008,1378.688,1461.008,1398.54z M1435.98,1399.174
			c0-11.192-14.31-20.01-42.926-26.452c-2.324,2.323-5.809,5.809-10.454,10.454c-14.679,13.835-22.44,21.173-23.284,22.018
			c-11.301,11.511-16.949,19.589-16.949,24.234c0,3.697,3.906,5.544,11.722,5.544c12.038,0,25.713-2.534,41.025-7.604
			c16.79-5.489,28.773-12.038,35.956-19.641C1434.343,1404.139,1435.98,1401.287,1435.98,1399.174z"/> <path d="M1609.301,1423.567c0,5.915-1.797,10.402-5.386,13.464c-5.281,4.435-14.521,8.291-27.72,11.563
			c-9.927,2.534-20.116,4.331-30.57,5.386c-17.741,1.797-32.42,4.646-44.035,8.554c-2.957,1.16-5.86,2.321-8.712,3.484
			c-4.015,1.478-6.865,2.218-8.554,2.218c-4.435,0-7.974-6.494-10.612-19.483c-1.797-9.397-2.692-17.95-2.692-25.66
			c0-4.012,0.237-10.059,0.712-18.137c0.476-8.078,0.713-14.122,0.713-18.137c0-8.446-1.163-16.842-3.484-25.185
			c-1.057-3.695-1.584-6.123-1.584-7.287c0-4.855,3.484-7.286,10.454-7.286c6.336,0,10.771,2.114,13.306,6.336
			c3.168,5.176,4.752,14.944,4.752,29.304c0,4.331-0.292,10.905-0.871,19.721c-0.582,8.818-0.871,15.443-0.871,19.879
			c0,4.542,0.21,8.87,0.634,12.988c14.676-3.588,32.048-6.704,52.112-9.345c16.261-2.218,29.621-5.807,40.075-10.771
			c2.321-1.268,4.646-2.534,6.97-3.802c3.168-1.584,5.438-2.376,6.811-2.376c2.852,0,5.121,1.797,6.812,5.386
			C1608.719,1417.231,1609.301,1420.295,1609.301,1423.567z"/> </g> <g> <path d="M253.219,1032.518c0,6.653-2.222,12.338-6.653,17.048c-5.821,6.38-21.205,19.127-46.153,38.253
			c20.79-4.71,39.916-7.068,57.379-7.068c25.779,0,47.401,5.269,64.864,15.8c20.79,12.475,31.185,30.77,31.185,54.886
			c0,29.664-14.137,55.995-42.411,79.001c-23.285,19.126-51.143,32.575-83.575,40.332c-19.126,4.71-41.164,7.068-66.111,7.068
			c-25.227,0-51.559-2.638-79.001-7.9c-30.216-5.82-55.301-13.721-75.259-23.7c-4.99-2.768-7.484-7.068-7.484-12.89
			c0-11.915,4.431-21.063,13.306-27.442c0.832-13.026,2.768-32.497,5.821-58.419c3.047-25.916,4.99-45.387,5.821-58.419
			c-1.663,0.831-3.19,1.247-4.574,1.247c-4.438,0-7.9-2.631-10.395-7.9c-1.942-4.158-2.911-8.731-2.911-13.721
			c0-6.653,1.384-11.363,4.158-14.138c1.663-1.663,5.958-3.878,12.89-6.652c-0.279-1.663-1.111-5.679-2.495-12.059
			c-1.111-5.262-1.664-9.283-1.664-12.058c0-5.263,4.158-7.9,12.474-7.9c16.073,0,24.948,6.237,26.611,18.711
			c76.227-26.61,132.223-39.916,167.981-39.916c8.316,0,14.968,4.301,19.958,12.89
			C251.141,1015.055,253.219,1023.37,253.219,1032.518z M308.52,1162.246c0-22.174-20.517-33.264-61.538-33.264
			c-31.88,0-65.838,6.236-101.87,18.711c-26.059,9.147-57.659,23.284-94.801,42.411l-0.832,21.621
			c39.637,17.19,75.116,25.779,106.444,25.779c27.995,0,58.484-6.237,91.475-18.711
			C288.146,1203.553,308.52,1184.699,308.52,1162.246z M191.682,1041.665c-35.758,4.438-79.001,15.801-129.728,34.096
			c-0.559,14.416-2.358,33.264-5.405,56.548C98.128,1109.024,143.17,1078.814,191.682,1041.665z"/> <path d="M632.424,1172.225c0,13.864-1.942,24.396-5.821,31.601c-6.653,13.033-20.374,22.596-41.164,28.69
			c-27.169,7.764-59.322,14.553-96.464,20.374c-38.812,6.101-71.38,9.147-97.712,9.147c-32.711,0-49.064-14.41-49.064-43.243
			c0-7.205,0.968-16.073,2.911-26.61c0.832-4.158,10.674-50.864,29.528-140.123c1.384-8.868,4.294-21.758,8.732-38.669
			c3.326-9.147,9.42-13.722,18.289-13.722c6.094,0,11.363,2.014,15.8,6.029c4.431,4.021,6.652,8.946,6.652,14.767
			c0,8.043-1.929,21.628-5.789,40.755c-3.027,14.137-6.062,28.28-9.089,42.418c-5.269,26.89-10.674,52.533-16.209,76.922
			c-2.287,8.589-3.424,15.241-3.424,19.945c0,10.811,6.237,16.209,18.711,16.209c3.047,0,7.484-0.272,13.305-0.831
			c28.274-3.047,56.685-5.958,85.238-8.732c41.3-5.82,66.384-13.994,75.259-24.531c3.599-4.158,5.405-12.747,5.405-25.779
			c0-23.558-6.101-62.643-18.295-117.255c-5.821-26.61-8.732-42.268-8.732-46.984c0-10.531,8.316-15.801,24.948-15.801
			c11.083,0,18.711,8.044,22.869,24.116c1.664,12.475,3.463,25.091,5.406,37.838
			C626.188,1098.908,632.424,1143.398,632.424,1172.225z"/> <path d="M975.456,1238.337c0,3.885-3.19,7.211-9.563,9.979c-4.989,2.222-9.843,3.326-14.553,3.326
			c-8.875,0-14.137-2.768-15.801-8.315c-2.773-9.421-4.157-24.39-4.157-44.906c0-9.699,0.623-24.116,1.871-43.242
			c1.247-19.127,1.871-33.537,1.871-43.243c0-13.306-0.56-26.331-1.663-39.085c-24.721,26.611-46.939,48.096-66.651,64.448
			c-20.549,17.743-43.873,26.611-69.977,26.611c-33.602,0-61.512-17.048-83.725-51.143c-1.949,14.969-4.028,30.08-6.25,45.321
			c-2.222,18.022-3.333,33.264-3.333,45.737c0,3.605,0.273,9.219,0.832,16.84c0.552,7.627,0.832,13.24,0.832,16.84
			c0,9.427-7.9,14.137-23.7,14.137c-10.259,0-16.496-3.326-18.711-9.979c-1.111-2.768-1.663-10.396-1.663-22.869
			c0-16.073,2.56-39.845,7.692-71.309c5.126-31.458,7.692-55.229,7.692-71.309c0-7.484-0.279-13.579-0.832-18.296
			c-0.279-2.768-1.942-7.483-4.99-14.137c-2.774-5.821-4.158-10.947-4.158-15.385c0-7.483,2.768-13.513,8.316-18.087
			c5.542-4.573,12.058-6.86,19.542-6.86c8.036,0,14.689,7.068,19.958,21.206c21.063,59.322,51.143,88.979,90.228,88.979
			c32.153,0,65.552-22.453,100.207-67.358c5.263-6.653,8.797-14.826,10.603-24.532c1.8-9.699,10.324-14.553,25.571-14.553
			c20.231,0,30.354,4.717,30.354,14.137c0,1.942-0.279,4.717-0.832,8.316c-0.559,3.605-0.831,6.38-0.831,8.315
			c0,6.38,0.688,16.08,2.079,29.105c1.384,13.033,2.079,22.732,2.079,29.106c0,8.595-0.695,21.349-2.079,38.253
			c-1.391,16.911-2.079,29.664-2.079,38.253c0,7.212,0.968,17.814,2.91,31.809c1.937,14.001,2.911,24.467,2.911,31.393V1238.337z"/> <path d="M1306.013,1036.26c0,7.764-2.638,14.001-7.899,18.711c-53.222,47.68-135.55,97.712-246.982,150.103
			c-0.559,7.764-0.832,16.079-0.832,24.947c0,3.885,0,9.635,0,17.256c0,7.627,0,13.377,0,17.255c0,9.421-7.068,14.138-21.205,14.138
			c-8.596,0-14.001-2.774-16.217-8.316c-0.831-2.495-1.247-9.005-1.247-19.542c0-8.589,1.384-24.669,4.158-48.232
			c0-1.663,0-3.326,0-4.989c0-0.832,0.76-4.574,2.293-11.227c3.061-13.578,5.483-44.49,7.271-92.723c-1.111,0-2.079,0-2.911,0
			c-4.717,0-8.459-2.216-11.227-6.652c-2.222-3.6-3.326-7.9-3.326-12.89c0-9.147,5.679-15.657,17.048-19.543
			c-0.279-2.768-1.111-7.757-2.495-14.969c-1.39-6.373-2.079-11.362-2.079-14.968c0-5.821,4.158-8.732,12.475-8.732
			c16.353,0,25.5,8.732,27.442,26.195c87.869-29.105,158.274-44.906,211.224-47.4h3.326c9.7-0.553,17.601,4.021,23.7,13.721
			C1303.519,1016.444,1306.013,1025.729,1306.013,1036.26z M1246.555,1042.913c-61.266,7.484-122.66,20.374-184.197,38.669
			c-0.56,18.574-2.774,43.801-6.653,75.675C1111.693,1130.093,1175.311,1091.977,1246.555,1042.913z"/> <path d="M1615.031,1179.294c0,20.789-21.348,40.747-64.032,59.874c-28.833,13.306-58.906,23.428-90.228,30.354
			c-28.001,5.82-53.638,8.731-76.922,8.731c-51.286,0-76.922-14.137-76.922-42.411c0-15.241,9.979-36.59,29.937-64.032
			c6.653-8.868,14.689-13.306,24.116-13.306c5.821,0,11.643,0.831,17.464,2.494c7.757,2.223,11.642,5.549,11.642,9.979
			c0,3.326-5.964,10.259-17.879,20.79c-11.922,10.538-17.879,19.126-17.879,25.779c0,12.474,13.994,18.711,41.995,18.711
			c24.948,0,53.91-4.295,86.901-12.89c15.521-4.158,29.938-9.147,43.242-14.969c21.622-9.147,32.433-17.6,32.433-25.363
			c0-6.926-8.108-13.306-24.324-19.127s-44.009-10.531-83.367-14.137c-51.006-4.99-83.022-8.589-96.049-10.812
			c-33.822-5.82-57.243-14.825-70.269-27.026c-7.205-6.652-10.812-13.721-10.812-21.205c0-16.353,17.601-33.121,52.807-50.312
			c24.947-11.915,50.239-20.998,75.883-27.234c25.636-6.237,48.855-9.355,69.646-9.355c13.025,0,24.531,1.247,34.511,3.742
			c6.652-12.747,11.084-20.647,13.306-23.7c6.652-8.589,13.994-12.89,22.037-12.89c7.205,0,13.721,2.638,19.542,7.899
			c5.821,5.27,8.732,11.506,8.732,18.711c0,4.717-2.495,9.706-7.484,14.969c-8.316,8.043-12.475,12.201-12.475,12.474
			c-2.773,3.606-5.269,10.954-7.484,22.037c-2.222,12.475-4.301,20.79-6.236,24.948c-3.326,8.043-8.731,12.058-16.216,12.058
			c-8.043,0-15.527-2.079-22.453-6.236c-8.316-4.711-12.474-10.812-12.474-18.295c0-3.048,0.688-6.374,2.078-9.979
			c-3.326-1.384-8.595-2.079-15.8-2.079c-17.19,0-40.332,3.326-69.438,9.979c-36.59,8.315-54.885,17.879-54.885,28.689
			c0,8.043,15.384,13.722,46.152,17.048c31.874,2.774,63.754,5.548,95.634,8.315c39.637,4.158,66.8,10.675,81.495,19.543
			c21.622,12.753,35.2,24.811,40.748,36.174C1613.921,1171.394,1615.031,1175.415,1615.031,1179.294z"/> </g> </g> </symbol><symbol viewBox="0 0 78.096 97.627" id="icon-links"><title>links</title> <polyline fill-rule="evenodd" clip-rule="evenodd" points="13.477,81.19 13.477,27.075 0,40.609 0,20.304 20.246,0 
	40.508,20.304 40.508,40.609 27.007,27.075 27.007,81.19 13.477,81.19 "/> <path fill-rule="evenodd" clip-rule="evenodd" d="M69.08,74.589V39.526h-12v35.063l-9-9.172v17.182l15.014,15.028
	L78.08,82.599V65.417L69.08,74.589z M77.08,82.102L63.063,95.886L49.08,82.102V68.32l9,9.192V40.526h10v36.986l9-9.192V82.102z"/> </symbol><symbol viewBox="0 0 64.516 100.607" id="icon-prices"><title>prices</title> <path fill-rule="evenodd" clip-rule="evenodd" d="M9.93,23.079c5.464,0,9.92,4.427,9.92,9.891
	c0,5.444-4.456,9.871-9.92,9.871C4.446,42.84,0,38.414,0,32.969C0,27.505,4.446,23.079,9.93,23.079 M9.93,26.813
	c3.395,0,6.141,2.762,6.141,6.156c0,3.389-2.746,6.136-6.141,6.136c-3.398,0-6.155-2.747-6.155-6.136
	C3.774,29.575,6.531,26.813,9.93,26.813z M9.93,29.237c2.085,0,3.774,1.665,3.774,3.732c0,2.06-1.689,3.735-3.774,3.735
	c-2.09,0-3.784-1.675-3.784-3.735C6.146,30.902,7.84,29.237,9.93,29.237z"/> <path fill-rule="evenodd" clip-rule="evenodd" d="M52.437,23.079c5.483,0,9.925,4.427,9.925,9.891
	c0,5.444-4.441,9.871-9.925,9.871c-5.474,0-9.921-4.426-9.921-9.871C42.516,27.505,46.963,23.079,52.437,23.079 M52.437,26.813
	c3.413,0,6.16,2.762,6.16,6.156c0,3.389-2.747,6.136-6.16,6.136c-3.385,0-6.136-2.747-6.136-6.136
	C46.301,29.575,49.052,26.813,52.437,26.813z M52.437,29.237c2.095,0,3.789,1.665,3.789,3.732c0,2.06-1.694,3.735-3.789,3.735
	c-2.07,0-3.77-1.675-3.77-3.735C48.667,30.902,50.366,29.237,52.437,29.237z"/> <polyline fill-rule="evenodd" clip-rule="evenodd" points="51.897,26.085 53.315,30.183 50.218,31.092 48.8,26.994 
	51.897,26.085 "/> <polyline fill-rule="evenodd" clip-rule="evenodd" points="12.751,31.729 17.706,23.773 14.475,21.861 9.56,29.874 
	12.751,31.729 "/> <path fill-rule="evenodd" clip-rule="evenodd" d="M57.14,21.861c4.317,1.855,7.376,6.136,7.376,11.143h-4.066
	l-2.095-5.316l-6.679-2.878l-6.833,4.553v8.376h-8.616c-4.125,0.057-6.955,0.057-10.503,0.057c-3.507,0-4.648-2.458-4.648-4.827
	c0-6.156-5.049-11.2-11.244-11.2l-0.178,0.035v-4.133h2.5c2.005,0,5.138-1.057,6.372-2.969l5.144-7.868
	c0.638-1,1.102-0.455,0.914,0.126l-2.104,8.742c-0.262,1.095,1.008,1.786,2.104,0.729l2.599-2.367l2.727-4.552V8.964
	c-1.324,0-2.416-0.89-2.416-2.003V3.923h-0.854C26.855,1.771,28.096,0,30.59,0c2.51,0,3.918,1.771,3.918,3.923
	c-0.039,1.946-0.459,1.912-0.771,2.492v1.423c0.312-0.057,0.677,0.035,1.274,0.271c0.549,0.217,2.643,1.038,3.093,1.312
	c0.459,0.271,0.638,0.271,1.226,0.874l4.91,5.136c1.102,1.148,1.19,2.332,1.19,3.424h9.92c1.374,0,1.828,0.854,1.828,2.495
	L57.14,21.861 M32.146,16.031l-7.786,4.464l6.318,2.549l4.239-4.281C33.644,17.98,32.957,17.397,32.146,16.031z M42.699,30.82
	c0.509-2.312,1.877-4.373,3.734-5.773c0.237-0.274,0.183-0.603-0.276-0.603h-4.096v6.375C42.062,31.24,42.61,31.332,42.699,30.82z"/> <path fill-rule="evenodd" clip-rule="evenodd" d="M4.327,67.517L7.42,51.853c0.316-1.729,2.411-4.952,6.605-5.006
	h31.316c4.185,0.054,6.274,3.278,6.61,5.006l3.033,15.664c2.011,0.363,4.065,2.332,4.065,4.461v12.985
	c0,1.862-1.689,3.498-2.509,4.099v9.416c-1.275,1.274-2.55,2.129-4.288,2.129c-1.729,0-3.543-0.941-4.585-2.129v-9.104l-8.156,0.638
	H19.801l-8.098-0.638v9.104c-1.047,1.188-2.87,2.129-4.6,2.129c-1.729,0-3.008-0.854-4.327-2.129v-9.416
	c-0.82-0.601-2.505-2.236-2.505-4.099V71.978C0.271,69.849,2.366,67.88,4.327,67.517 M51.616,70.34c2.248,0,4.065,1.84,4.065,4.098
	c0,2.261-1.817,4.096-4.065,4.096c-2.224,0-4.041-1.835-4.041-4.096C47.575,72.18,49.393,70.34,51.616,70.34z M7.697,70.34
	c2.257,0,4.09,1.84,4.09,4.098c0,2.261-1.833,4.096-4.09,4.096c-2.264,0-4.101-1.835-4.101-4.096
	C3.597,72.18,5.434,70.34,7.697,70.34z M8.379,61.472l0.859-4.644c1.003-4.919,6.239-5.612,11.57-5.612h17.696
	c5.38,0,10.621,0.693,11.619,5.612l0.854,4.644c0.42,2.821-1.121,3.824-4.18,3.641l-17.128-0.729l-17.152,0.729
	C9.466,65.296,7.964,64.293,8.379,61.472z M14.702,74.806v1.781H44.66v-1.781l-9.372-0.551H24.084L14.702,74.806z M29.73,78.991
	h15.028v2.331H14.613v-2.331H29.73z M14.702,85.33V83.6H44.66v1.729l-9.372,0.545H24.084L14.702,85.33z"/> </symbol><symbol viewBox="0 0 106.566 104.278" id="icon-testimonials"><title>testimonials</title> <path fill-rule="evenodd" clip-rule="evenodd" d="M16.52,0L6.228,9.443l11.986,0.514
	C3.63,21.698-3.467,41.399,1.66,60.701l9.004-2.399c-4.355-16.317,2.155-33.041,15.011-42.359l-0.599,14.072l10.289-9.442
	L36.2,0.883L16.52,0z"/> <path fill-rule="evenodd" clip-rule="evenodd" d="M103.558,30.459l-6.475,10.148
	C94.233,22.071,80.708,6.058,61.431,0.883l-2.389,8.96c16.272,4.356,27.475,18.39,29.143,34.213l-11.902-7.567l3.072,13.605
	l16.612,10.607l10.599-16.632L103.558,30.459z"/> <path fill-rule="evenodd" clip-rule="evenodd" d="M83.376,82.596l-6.558-6.562
	c-11.93,11.93-29.678,14.616-44.173,8.139l12.424-6.497l-13.302-4.205l-17.469,9.125l9.092,17.516l13.302,4.167l-5.548-10.659
	C48.636,100.414,69.275,96.746,83.376,82.596z"/> </symbol></svg>