<svg style="display:none" viewBox="0 0 100 100"><symbol viewBox="0 0 112.979 72.949" id="icon-about-you"><title>about-you</title> <g> <path fill-rule="evenodd" clip-rule="evenodd" d="M44.144,11.898c0.695-2.362,1.427-4.728,2.146-7.137
		c0,0,0,0,0-0.051c0,0,0,0,0-0.038c0-0.131-0.034-0.216-0.165-0.262c0,0,0,0-0.052-0.042c-0.813-0.338-1.366-1.165-1.366-2.066
		c0-1.249,0.976-2.282,2.234-2.282c0.254,0,0.55,0,0.855,0c1.033,0,2.071,0,3.099,0c0,0.737,0,1.507,0,2.282
		c-0.939,0-1.887,0-2.831,0c-0.183,0-0.342,0-0.572,0c-0.108,0-0.245,0.127-0.245,0.262c0,0.122,0.033,0.169,0.137,0.259
		c0.713,0.432,1.202,0.901,1.202,1.718c0,0.347-0.047,0.469-0.126,0.822c-0.052,0.211-0.362,1.155-0.362,1.155
		c5.132,0,10.245,0,15.423,0c0.287-0.728,0.602-1.46,0.888-2.234c-1.15-0.3-2.324-0.601-3.475-0.902
		c-0.268-0.047-0.427-0.258-0.427-0.521c0-0.296,0.287-0.558,0.587-0.558c2.647,0,5.268,0,7.888,0c0,1.253-1.023,2.239-2.235,2.239
		c-0.262,0.648-0.525,1.292-0.816,1.977c0.943,1.813,1.926,3.62,2.916,5.423c0.995-0.417,2.117-0.647,3.188-0.647
		c4.644,0,8.442,3.789,8.442,8.484c0,4.648-3.799,8.432-8.442,8.432c-4.343,0-7.959-3.258-8.432-7.573c0,0,0,0,0.031,0
		c-0.337,0-0.68,0-1.027,0c-0.217,0.817-0.648,1.465-1.381,1.944c0.258,0.559,0.564,1.114,0.859,1.714c0.441,0,0.869,0,1.338,0
		c0,0.352,0,0.737,0,1.122c-0.295,0-0.609,0-0.896,0c-0.174,0.179-0.39,0.254-0.648,0.254c-0.267,0-0.473-0.075-0.652-0.254
		c-0.375,0-0.765,0-1.158,0c0-0.348,0-0.728,0-1.122c0.342,0,0.689,0,1.084,0c-0.217-0.432-0.433-0.855-0.69-1.333
		c-0.475,0.178-0.601,0.178-1.122,0.178c-1.846,0-3.362-1.507-3.362-3.362c0-0.343,0.057-0.685,0.137-0.986c0,0,0,0,0-0.047
		c-3.188-2.192-6.418-4.389-9.644-6.621c-0.081,0.292-0.179,0.592-0.297,0.893c0,0,0,0,0.038,0.047
		c2.112,1.634,3.272,4.047,3.272,6.714c0,4.648-3.799,8.432-8.484,8.432c-4.649,0-8.442-3.784-8.442-8.432
		c0-4.695,3.793-8.484,8.442-8.484c1.333,0,1.854,0.093,3.108,0.605C44.106,11.898,44.106,11.898,44.144,11.898 M57.103,19.776
		c0,1.253,0.995,2.235,2.235,2.235c1.249,0,2.272-0.982,2.272-2.235c0-1.244-1.023-2.287-2.272-2.287
		C58.098,17.49,57.103,18.532,57.103,19.776z M45.393,15.776c-0.132,0.474-0.311,0.99-0.47,1.507
		c-0.474,1.55-2.118,2.888-3.695,3.315c-0.051,0.037-0.135,0.037-0.229,0.037c-0.433,0-0.817-0.427-0.817-0.859
		c0-0.301,0.131-0.558,0.338-0.685c0.046,0,0.103-0.047,0.131-0.089c0.996-0.681,1.78-1.413,2.123-2.372
		c0.207-0.728,0.422-1.502,0.681-2.276c0,0,0,0-0.047,0c-0.737-0.348-1.549-0.517-2.408-0.517c-3.23,0-5.897,2.672-5.897,5.939
		c0,3.272,2.667,5.893,5.897,5.893c3.272,0,5.943-2.62,5.943-5.893C46.942,18.227,46.341,16.852,45.393,15.776z M61.61,17.232
		c1.126-2.751,2.249-5.545,3.36-8.348c0.701,1.338,1.391,2.676,2.119,4.01c0,0,0,0-0.053,0.042
		c-1.972,1.418-3.178,3.526-3.436,5.987c0,0,0,0,0.031,0c-0.337,0-0.68,0-1.027,0c-0.159-0.696-0.47-1.165-0.995-1.639
		C61.61,17.283,61.61,17.283,61.61,17.232z M68.291,15.213c-1.201,0.948-1.892,2.155-2.117,3.709c1.338,0,2.723,0,4.09,0
		c-0.644-1.259-1.282-2.503-1.973-3.748C68.291,15.175,68.291,15.175,68.291,15.213z M72.803,19.396c0.047,0.131,0.1,0.249,0.1,0.38
		c0,0.432-0.395,0.859-0.869,0.859c-1.93,0-3.869,0-5.859,0c0.441,2.931,2.935,5.034,5.859,5.034c3.277,0,5.902-2.62,5.902-5.893
		c0-3.268-2.625-5.939-5.902-5.939c-0.647,0-1.381,0.136-1.981,0.347C70.963,15.903,71.859,17.625,72.803,19.396z M57.492,16.936
		c-0.258-0.554-0.568-1.117-0.858-1.68c-0.442,0-0.911,0-1.386,0c0-0.338,0-0.723,0-1.113c0.305,0,0.601,0,0.916,0
		c0,0,0,0,0.029-0.047c0.178-0.174,0.384-0.258,0.601-0.258c0.263,0,0.475,0.136,0.652,0.258c0,0,0,0,0,0.047
		c0.39,0,0.766,0,1.151,0c0,0.338,0,0.732,0,1.113c-0.333,0-0.681,0-1.024,0c0.216,0.431,0.423,0.863,0.639,1.338
		c0,0,0.052,0,0.099-0.042c0.343-0.089,0.681-0.169,1.028-0.169c0.047,0,0.075,0,0.126,0c0,0,0,0,0.048,0
		c1.075-2.629,2.15-5.253,3.225-7.878c-5.079,0-10.16,0-15.244,0c-0.108,0.516-0.296,1.033-0.47,1.587
		c3.404,2.324,6.808,4.657,10.211,7.019C57.314,17.063,57.394,17.025,57.492,16.936z"/> <path fill-rule="evenodd" clip-rule="evenodd" d="M44.172,11.902c0.517-1.826,1.089-3.69,1.644-5.503l0.507-1.639
		V4.672c0-0.146-0.066-0.239-0.197-0.282l0.019,0.01l-0.052-0.047c-0.813-0.343-1.366-1.164-1.366-2.051
		c0-1.249,0.995-2.258,2.216-2.258h3.954L50.882,0.02v2.282l0.014-0.023h-3.403c-0.128,0-0.272,0.146-0.272,0.286
		c0,0.137,0.046,0.184,0.145,0.272c0.62,0.366,1.193,0.827,1.193,1.705c0,0.305-0.037,0.437-0.098,0.709l-0.033,0.108
		c-0.039,0.211-0.348,1.146-0.348,1.16v0.028h15.442l0.024-0.019c0.285-0.718,0.6-1.46,0.887-2.244l0.019-0.015l-0.042-0.005
		l-3.475-0.906c-0.248-0.037-0.413-0.244-0.413-0.498c0-0.277,0.273-0.535,0.573-0.535h7.888l-0.019-0.023
		c0,0.596-0.249,1.154-0.672,1.578c-0.423,0.418-0.977,0.647-1.545,0.647h-0.014v0.005l-0.051,0.089
		c-0.246,0.61-0.498,1.235-0.785,1.892v0.023c0.977,1.84,2.02,3.742,2.935,5.423l0.015,0.014l0.019-0.005
		c0.954-0.422,2.065-0.643,3.169-0.643c1.136,0,2.24,0.221,3.277,0.657c0.995,0.422,1.887,1.033,2.677,1.817
		c0.765,0.774,1.38,1.676,1.812,2.685c0.432,1.042,0.639,2.151,0.639,3.292c0,4.644-3.761,8.418-8.404,8.418
		c-4.324,0-7.943-3.244-8.414-7.56l-0.018,0.029h0.031v-0.047h-1.047v0.015c-0.215,0.845-0.661,1.469-1.361,1.929l-0.018,0.009
		v0.019c0.178,0.371,0.375,0.747,0.572,1.146l0.291,0.568l0.014,0.014h1.338l-0.019-0.023v1.122l0.019-0.019h-0.91v0.005
		c-0.16,0.165-0.376,0.253-0.635,0.253c-0.248,0-0.464-0.089-0.639-0.253v-0.005h-1.172l0.018,0.019v-1.122l-0.018,0.023h1.111
		l-0.019-0.028l-0.028-0.076c-0.197-0.398-0.413-0.812-0.652-1.258l-0.019-0.019l-0.019,0.01c-0.456,0.164-0.582,0.164-1.104,0.164
		c-1.846,0-3.343-1.497-3.343-3.333c0-0.352,0.051-0.685,0.131-0.986v-0.066c-1.268-0.873-2.554-1.756-3.813-2.62
		c-1.901-1.305-3.887-2.658-5.831-4.009l-0.029-0.015v0.042c-0.103,0.292-0.183,0.592-0.309,0.888v0.014l0.009,0.005l0.037,0.052
		c1.042,0.803,1.859,1.808,2.428,2.963c0.549,1.15,0.845,2.403,0.845,3.732c0,1.127-0.225,2.235-0.671,3.272
		c-0.423,1-1.042,1.902-1.803,2.667c-0.779,0.774-1.671,1.39-2.686,1.808c-1.042,0.446-2.15,0.671-3.305,0.671
		c-4.63,0-8.404-3.775-8.404-8.418c0-1.141,0.211-2.249,0.647-3.292c0.441-1.009,1.042-1.911,1.808-2.685
		c0.784-0.784,1.686-1.395,2.69-1.817c1.023-0.437,2.131-0.657,3.259-0.657c1.295,0,1.822,0.07,3.089,0.596v0.004h0.065
		L44.172,11.902 M44.144,11.874h-0.038v0.01c-1.268-0.525-1.813-0.61-3.108-0.61c-1.141,0-2.235,0.226-3.278,0.667
		c-1.004,0.432-1.92,1.042-2.704,1.827c-0.765,0.785-1.38,1.681-1.803,2.7c-0.441,1.042-0.667,2.16-0.667,3.31
		c0,4.662,3.794,8.461,8.452,8.461c1.155,0,2.263-0.226,3.324-0.667c1.005-0.422,1.916-1.033,2.7-1.816
		c0.774-0.771,1.384-1.681,1.808-2.69c0.455-1.042,0.666-2.15,0.666-3.287c0-1.338-0.276-2.597-0.845-3.756
		c-0.554-1.155-1.385-2.16-2.428-2.973l-0.052-0.037l0.019,0.019c0.131-0.296,0.216-0.602,0.292-0.892v-0.015l-0.029,0.015
		c1.953,1.342,3.926,2.704,5.828,4.005c1.253,0.863,2.558,1.751,3.812,2.625v-0.024v0.047v-0.005
		c-0.081,0.296-0.127,0.639-0.127,0.991c0,1.864,1.512,3.38,3.372,3.38c0.521,0,0.647,0,1.122-0.168l-0.019-0.01
		c0.244,0.437,0.441,0.85,0.652,1.249l0.037,0.075l0.02-0.023h-1.1v1.155h1.174c0.16,0.174,0.386,0.263,0.652,0.263
		c0.259,0,0.494-0.089,0.672-0.263h-0.023h0.93v-1.155h-1.371l0.038,0.009l-0.296-0.578c-0.216-0.394-0.413-0.765-0.568-1.141
		l-0.02,0.023c0.719-0.455,1.17-1.093,1.391-1.948l-0.023,0.019h1.027v-0.047h-0.061v0.019c0.484,4.339,4.118,7.602,8.461,7.602
		c4.662,0,8.456-3.799,8.456-8.461c0-1.15-0.226-2.268-0.662-3.31c-0.423-1.019-1.042-1.915-1.813-2.7
		c-0.779-0.785-1.676-1.395-2.686-1.827c-1.042-0.441-2.15-0.667-3.296-0.667c-1.117,0-2.225,0.226-3.188,0.652l0.019,0.009
		c-0.906-1.681-1.953-3.582-2.917-5.422v0.014c0.273-0.652,0.537-1.277,0.785-1.887l0.033-0.089l-0.02,0.014
		c0.588,0,1.155-0.234,1.578-0.656C68.766,3.479,69,2.911,69,2.301V2.278h-7.906c-0.319,0-0.615,0.286-0.615,0.582
		c0,0.282,0.188,0.498,0.455,0.54l3.475,0.902l-0.01-0.023c-0.309,0.774-0.609,1.512-0.91,2.235l0.032-0.01H48.097l0.028,0.023
		c0-0.046,0.301-0.953,0.347-1.164l0.015-0.108c0.08-0.267,0.117-0.408,0.117-0.713c0-0.901-0.586-1.371-1.22-1.737
		c-0.085-0.079-0.118-0.127-0.118-0.24c0-0.117,0.118-0.239,0.226-0.239h3.441V0h-3.992c-1.244,0-2.268,1.038-2.268,2.301
		c0,0.901,0.573,1.742,1.399,2.089L46.06,4.381l0.046,0.042v0.01c0.118,0.033,0.165,0.108,0.165,0.239v0.089V4.752l-0.502,1.643
		c-0.535,1.798-1.113,3.672-1.643,5.494L44.144,11.874z"/> <path fill-rule="evenodd" clip-rule="evenodd" d="M57.075,19.776c0,0.61,0.239,1.178,0.667,1.606
		c0.422,0.422,0.994,0.657,1.596,0.657c1.258,0,2.305-1.019,2.305-2.263c0-0.61-0.238-1.183-0.681-1.62
		c-0.441-0.445-1.004-0.681-1.624-0.681C58.098,17.476,57.075,18.499,57.075,19.776 M57.122,19.776c0-1.244,0.991-2.254,2.216-2.254
		c0.601,0,1.169,0.235,1.596,0.667c0.422,0.423,0.667,0.995,0.667,1.587c0,1.221-1.014,2.216-2.263,2.216
		c-0.602,0-1.155-0.23-1.568-0.643C57.347,20.936,57.122,20.377,57.122,19.776z"/> <path fill-rule="evenodd" clip-rule="evenodd" d="M45.374,15.771c-0.126,0.479-0.311,1-0.469,1.503
		c-0.456,1.46-2,2.841-3.695,3.301v0.009c-0.051,0.033-0.132,0.033-0.211,0.033c-0.413,0-0.784-0.408-0.784-0.84
		c0-0.295,0.118-0.549,0.324-0.671H40.52c0.066,0,0.103-0.038,0.15-0.089c1.159-0.808,1.807-1.541,2.112-2.376l0.15-0.512
		c0.169-0.578,0.343-1.174,0.535-1.765l0.019-0.024h-0.08h0.014c-0.732-0.348-1.544-0.526-2.422-0.526
		c-0.784,0-1.568,0.165-2.282,0.474c-0.718,0.3-1.333,0.728-1.887,1.277c-1.127,1.132-1.747,2.63-1.747,4.212
		c0,3.263,2.657,5.92,5.916,5.92c1.586,0,3.089-0.615,4.216-1.723c1.126-1.123,1.747-2.611,1.747-4.198
		c0-1.469-0.54-2.859-1.549-4.015l-0.038-0.033V15.771 M45.374,15.785c1.014,1.16,1.549,2.536,1.549,3.991
		c0,1.583-0.62,3.052-1.747,4.164c-1.103,1.104-2.602,1.714-4.178,1.714c-3.23,0-5.869-2.639-5.869-5.878
		c0-1.573,0.601-3.052,1.728-4.178c0.539-0.549,1.174-0.968,1.877-1.269c0.714-0.309,1.479-0.469,2.264-0.469
		c0.878,0,1.671,0.174,2.408,0.521h0.047l-0.014-0.028c-0.192,0.596-0.376,1.187-0.535,1.765l-0.15,0.512
		c-0.311,0.826-0.958,1.559-2.104,2.357h-0.014c-0.033,0.038-0.08,0.08-0.117,0.08c-0.226,0.141-0.357,0.399-0.357,0.709
		c0,0.456,0.403,0.888,0.836,0.888c0.094,0,0.197,0,0.239-0.047h-0.009c1.705-0.456,3.268-1.859,3.714-3.333
		c0.154-0.502,0.337-1.028,0.469-1.507L45.374,15.785z"/> <path fill-rule="evenodd" clip-rule="evenodd" d="M61.629,17.242c1.146-2.794,2.282-5.621,3.371-8.349h-0.047
		c0.629,1.235,1.353,2.634,2.117,4.005v-0.019l-0.051,0.042c-0.973,0.704-1.771,1.572-2.357,2.605
		c-0.588,1.023-0.963,2.165-1.09,3.38v0.029h0.061v-0.042h-1.027l0.023,0.014c-0.169-0.671-0.455-1.146-1-1.643l0.014,0.018v-0.051
		L61.629,17.242 M61.601,17.232v0.065c0.535,0.493,0.831,0.962,0.985,1.625v0.014h1.047v-0.042h-0.031l0.018,0.028
		c0.131-1.226,0.484-2.353,1.076-3.372c0.581-1.019,1.38-1.896,2.356-2.602l0.046-0.051l0.02-0.004l-0.02-0.014
		c-0.736-1.38-1.459-2.766-2.098-4l-0.029-0.037l-0.018,0.037c-1.094,2.738-2.217,5.554-3.353,8.348V17.232z"/> <path fill-rule="evenodd" clip-rule="evenodd" d="M68.272,15.198c-1.202,0.954-1.901,2.17-2.108,3.709v0.029h4.146
		l-0.015-0.038c-0.704-1.319-1.314-2.517-1.985-3.733l-0.038-0.075v0.122V15.198 M68.311,15.213v-0.038l-0.038,0.01
		c0.671,1.211,1.291,2.413,1.972,3.747l0.02-0.037h-4.09l0.028,0.028c0.216-1.541,0.896-2.747,2.108-3.691V15.213z"/> <path fill-rule="evenodd" clip-rule="evenodd" d="M72.794,19.4c0.038,0.132,0.075,0.254,0.075,0.376
		c0,0.399-0.361,0.84-0.836,0.84h-5.869v0.019c0.207,1.418,0.906,2.709,2,3.635c1.07,0.919,2.441,1.427,3.869,1.427
		c1.578,0,3.085-0.615,4.188-1.723c1.113-1.123,1.729-2.611,1.729-4.198s-0.615-3.089-1.729-4.212
		c-1.121-1.126-2.609-1.751-4.188-1.751c-0.629,0-1.381,0.132-1.981,0.353l-0.037,0.009l0.019,0.014l0.263,0.502
		C71.113,16.222,71.939,17.805,72.794,19.4 M72.822,19.387c-0.846-1.596-1.672-3.179-2.479-4.709l-0.273-0.502v0.028
		c0.602-0.216,1.334-0.343,1.963-0.343c1.568,0,3.052,0.611,4.16,1.738c1.108,1.113,1.723,2.596,1.723,4.178
		c0,1.583-0.614,3.052-1.723,4.164c-1.108,1.104-2.582,1.714-4.16,1.714c-1.418,0-2.785-0.502-3.851-1.418
		c-1.065-0.92-1.783-2.197-1.98-3.602l-0.028,0.029h5.859c0.46,0,0.883-0.428,0.883-0.888c0-0.131-0.047-0.249-0.084-0.39H72.822z"/> <path fill-rule="evenodd" clip-rule="evenodd" d="M57.506,16.926c-0.253-0.568-0.583-1.155-0.859-1.681
		l-0.014-0.005h-1.386l0.015,0.015v-1.113l-0.015,0.024h0.916l0.01-0.01l0.038-0.051c0.16-0.15,0.366-0.245,0.582-0.245
		c0.263,0,0.475,0.131,0.634,0.258v-0.023v0.071h1.169l-0.01-0.024v1.113l0.01-0.015h-1.052l0.019,0.034
		c0.225,0.451,0.422,0.864,0.628,1.324l0.02,0.019c0.019,0,0.065,0,0.112-0.047H58.31c0.343-0.084,0.681-0.173,1.028-0.173h0.188
		v-0.005l3.23-7.878l0.019-0.038H47.478v0.019c-0.094,0.39-0.211,0.78-0.338,1.198l-0.131,0.39V10.1l0.015,0.014
		c3.338,2.282,6.793,4.648,10.198,7.015l0.014,0.009v-0.009c0.08-0.038,0.178-0.089,0.258-0.178l0.014-0.005V16.926 M57.478,16.926
		c-0.103,0.08-0.178,0.122-0.258,0.165h0.014c-3.385-2.362-6.854-4.723-10.193-7.014l0.015,0.023l0.113-0.395
		c0.131-0.413,0.263-0.813,0.357-1.202l-0.033,0.023h15.244l-0.014-0.033l-3.24,7.879l0.029-0.014h-0.174
		c-0.348,0-0.705,0.089-1.047,0.169v0.01c-0.028,0.032-0.08,0.037-0.08,0.037l0.033,0.009c-0.213-0.465-0.424-0.882-0.653-1.338
		l-0.02,0.033h1.061v-1.16h-1.188l0.015,0.023v-0.07c-0.16-0.117-0.385-0.258-0.667-0.258c-0.225,0-0.441,0.099-0.62,0.268
		l-0.028,0.042l0.019-0.005h-0.935v1.16h1.405l-0.02-0.005c0.276,0.511,0.582,1.107,0.846,1.671L57.478,16.926z"/> <path fill-rule="evenodd" clip-rule="evenodd" d="M2.864,69.404v0.047c-0.01,0-0.028,0-0.047,0
		c-1.53,0-2.779-1.281-2.779-2.84V54.6c0-0.783,0.629-1.417,1.418-1.417l0.681-15.63c0.047-0.724,0.647-1.287,1.385-1.287
		c0.019,0,0.019,0,0.033,0h102.397c3.888,0,7.062,3.16,7.062,7.052v21.181l-24.331,4.953c0.23-0.69,0.311-1.422,0.311-2.16
		c0-3.868-3.192-7.053-7.052-7.053c-3.878,0-7.067,3.185-7.067,7.053c0,0.738,0.08,1.47,0.315,2.16H32.186
		c0.211-0.69,0.343-1.422,0.343-2.16c0-3.868-3.193-7.053-7.071-7.053c-3.906,0-7.052,3.185-7.052,7.053
		c0,0.738,0.085,1.47,0.31,2.16L2.864,69.404 M14.104,43.317c0-0.784-0.619-1.417-1.38-1.417H8.499c-0.78,0-1.418,0.633-1.418,1.417
		v20.448c0,0.761,0.638,1.375,1.418,1.375h4.225c0.761,0,1.38-0.614,1.38-1.375V43.317z M20.518,51.807
		c-0.788,0-1.427-0.648-1.427-1.427v-7.063c0-0.784,0.639-1.417,1.427-1.417h16.959c0.732,0.023,1.338,0.648,1.338,1.417v7.063
		c0,0.765-0.606,1.399-1.338,1.417L20.518,51.807z M43.797,51.807c-0.779,0-1.418-0.648-1.418-1.427v-7.063
		c0-0.784,0.639-1.417,1.418-1.417h16.959c0.798,0,1.427,0.633,1.427,1.417v7.063c0,0.778-0.629,1.427-1.427,1.427H43.797z
		 M67.141,51.755v0.042c-0.023,0.01-0.043,0.01-0.051,0.01c-0.771,0-1.386-0.648-1.386-1.427v-7.063
		c0-0.784,0.614-1.417,1.386-1.417c0.008,0,0.027,0,0.051,0h16.902c0.78,0,1.409,0.633,1.409,1.417v7.063
		c0,0.778-0.629,1.427-1.409,1.427L67.141,51.755z M90.41,51.807c-0.789,0-1.418-0.648-1.418-1.427v-7.063
		c0-0.784,0.629-1.417,1.418-1.417h14.123c2.328,0,4.211,1.893,4.211,4.221l-0.041,4.259c0,0.765-0.592,1.399-1.344,1.417
		L90.41,51.807z"/> <path fill-rule="evenodd" clip-rule="evenodd" d="M2.854,69.404v0.047l0.01-0.023h-0.01c-0.019,0-0.019,0-0.038,0
		c-1.53,0-2.761-1.264-2.761-2.816V54.6c0-0.773,0.611-1.403,1.4-1.403h0.009v-0.014l0.704-15.63c0.028-0.71,0.63-1.273,1.353-1.273
		c0,0,0.019,0,0.033,0h102.397c3.879,0,7.028,3.16,7.028,7.038v21.181l0.023-0.023l-24.321,4.953l0.033,0.023
		c0.197-0.643,0.297-1.366,0.297-2.16c0-0.943-0.18-1.873-0.564-2.741c-0.353-0.841-0.854-1.597-1.521-2.249
		c-0.653-0.653-1.404-1.164-2.25-1.525c-0.868-0.371-1.788-0.56-2.736-0.56c-0.958,0-1.874,0.188-2.752,0.56
		c-0.845,0.361-1.597,0.872-2.249,1.525c-0.647,0.652-1.168,1.408-1.535,2.249c-0.376,0.868-0.55,1.798-0.55,2.741
		c0,0.794,0.099,1.518,0.296,2.16l0.038-0.023H32.186l0.019,0.023c0.225-0.732,0.343-1.46,0.343-2.16
		c0-0.943-0.188-1.873-0.559-2.741c-0.362-0.841-0.878-1.597-1.531-2.249c-0.653-0.653-1.398-1.164-2.25-1.525
		c-0.882-0.371-1.793-0.56-2.751-0.56c-3.892,0-7.066,3.169-7.066,7.075c0,0.794,0.099,1.521,0.296,2.16l0.028-0.023L2.864,69.386
		h-0.01V69.404 M18.724,69.442c-0.188-0.634-0.3-1.357-0.3-2.151c0-3.873,3.16-7.033,7.033-7.033c0.944,0,1.869,0.188,2.737,0.555
		c0.832,0.356,1.597,0.867,2.23,1.512c0.658,0.652,1.155,1.404,1.512,2.239c0.375,0.874,0.563,1.784,0.563,2.728
		c0,0.695-0.117,1.418-0.347,2.151v0.027h43.044v-0.027c-0.196-0.648-0.31-1.357-0.31-2.151c0-0.943,0.197-1.854,0.573-2.728
		c0.356-0.835,0.864-1.587,1.512-2.239c0.639-0.645,1.408-1.155,2.234-1.512c0.859-0.367,1.794-0.555,2.733-0.555
		c0.948,0,1.859,0.188,2.714,0.555c0.854,0.356,1.605,0.867,2.254,1.512c0.633,0.652,1.154,1.404,1.52,2.239
		c0.357,0.874,0.555,1.784,0.555,2.728c0,0.78-0.121,1.503-0.318,2.151v0.032l0.037-0.005l24.312-4.953h0.019V43.317
		c0-1.887-0.732-3.666-2.07-5c-1.348-1.343-3.123-2.075-5.01-2.075H3.554c-0.014,0-0.014,0-0.033,0c-0.751,0-1.353,0.582-1.399,1.31
		l-0.704,15.63l0.037-0.028C0.658,53.154,0,53.797,0,54.6v12.012c0,1.572,1.268,2.858,2.817,2.858c0.019,0,0.019,0,0.038,0h0.028
		v-0.065l-0.019,0.023l15.851,0.042h0.009V69.442z"/> <path fill-rule="evenodd" clip-rule="evenodd" d="M14.123,43.317c0-0.788-0.62-1.44-1.398-1.44H8.499
		c-0.79,0-1.428,0.652-1.428,1.44v20.448c0,0.774,0.639,1.403,1.428,1.403h4.225c0.779,0,1.398-0.629,1.398-1.403V43.317
		 M14.076,63.766c0,0.751-0.601,1.352-1.352,1.352H8.499c-0.761,0-1.4-0.601-1.4-1.352V43.317c0-0.769,0.639-1.394,1.4-1.394h4.225
		c0.751,0,1.352,0.625,1.352,1.394V63.766z"/> <path fill-rule="evenodd" clip-rule="evenodd" d="M20.518,51.779c-0.779,0-1.399-0.63-1.399-1.399v-7.063
		c0-0.769,0.62-1.394,1.399-1.394h16.959c0.342,0.01,0.685,0.164,0.93,0.422c0.244,0.268,0.375,0.602,0.375,0.972v7.063
		c0,0.366-0.132,0.713-0.375,0.977c-0.245,0.263-0.587,0.403-0.93,0.423H20.518 M37.477,51.82c0.361-0.009,0.695-0.159,0.962-0.44
		c0.245-0.269,0.39-0.63,0.39-1v-7.063c0-0.376-0.146-0.732-0.39-0.999c-0.267-0.268-0.601-0.428-0.962-0.441H20.518
		c-0.788,0-1.446,0.652-1.446,1.44v7.063c0,0.798,0.658,1.44,1.446,1.44H37.477z"/> <path fill-rule="evenodd" clip-rule="evenodd" d="M43.797,51.779c-0.766,0-1.4-0.63-1.4-1.399v-7.063
		c0-0.769,0.634-1.394,1.4-1.394h16.959c0.779,0,1.398,0.625,1.398,1.394v7.063c0,0.77-0.619,1.399-1.398,1.399H43.797
		 M60.756,51.82c0.798,0,1.445-0.643,1.445-1.44v-7.063c0-0.788-0.647-1.44-1.445-1.44H43.797c-0.799,0-1.438,0.652-1.438,1.44
		v7.063c0,0.798,0.639,1.44,1.438,1.44H60.756z"/> <path fill-rule="evenodd" clip-rule="evenodd" d="M67.098,51.755v0.042l0.02-0.018c0,0-0.02,0-0.027,0
		c-0.747,0-1.348-0.63-1.348-1.399v-7.063c0-0.769,0.601-1.394,1.348-1.394c0.008,0,0.027,0,0.027,0c0.023,0,16.926,0,16.926,0
		c0.771,0,1.4,0.625,1.4,1.394v7.063c0,0.77-0.63,1.399-1.4,1.399L67.141,51.74h-0.043V51.755 M84.043,51.82
		c0.799,0,1.446-0.643,1.446-1.44v-7.063c0-0.788-0.647-1.44-1.446-1.44H67.141c-0.023,0-0.043,0-0.051,0
		c-0.771,0-1.399,0.652-1.399,1.44v7.063c0,0.798,0.628,1.44,1.399,1.44c0.008,0,0.027,0,0.051,0h0.01v-0.065l-0.01,0.024
		L84.043,51.82z"/> <path fill-rule="evenodd" clip-rule="evenodd" d="M90.41,51.779c-0.77,0-1.398-0.63-1.398-1.399v-7.063
		c0-0.769,0.629-1.394,1.398-1.394h14.123c2.311,0,4.202,1.883,4.202,4.197l-0.052,4.259c0,0.366-0.131,0.713-0.375,0.977
		c-0.254,0.263-0.588,0.403-0.949,0.423H90.41 M107.359,51.82c0.381-0.009,0.724-0.159,0.963-0.44c0.264-0.269,0.413-0.63,0.413-1
		l0.032-4.259c0-2.334-1.906-4.244-4.234-4.244H90.41c-0.799,0-1.428,0.652-1.428,1.44v7.063c0,0.798,0.629,1.44,1.428,1.44H107.359
		z"/> <path fill-rule="evenodd" clip-rule="evenodd" d="M25.424,64.498c1.549,0,2.803,1.254,2.803,2.793
		c0,1.549-1.253,2.803-2.803,2.803c-1.544,0-2.803-1.254-2.803-2.803C22.622,65.752,23.88,64.498,25.424,64.498 M25.424,61.657
		c3.113,0,5.634,2.521,5.634,5.634c0,3.122-2.521,5.645-5.634,5.645c-3.113,0-5.629-2.522-5.629-5.645
		C19.795,64.178,22.312,61.657,25.424,61.657z"/> <path fill-rule="evenodd" clip-rule="evenodd" d="M25.424,64.517c1.535,0,2.77,1.245,2.77,2.774
		c0,1.535-1.235,2.78-2.77,2.78c-1.526,0-2.784-1.245-2.784-2.78C22.641,65.762,23.898,64.517,25.424,64.517 M25.424,64.475
		c-1.563,0-2.817,1.263-2.817,2.816c0,1.555,1.253,2.826,2.817,2.826c1.549,0,2.817-1.271,2.817-2.826
		C28.242,65.737,26.974,64.475,25.424,64.475z"/> <path fill-rule="evenodd" clip-rule="evenodd" d="M25.424,61.68c3.094,0,5.621,2.518,5.621,5.611
		c0,3.099-2.526,5.62-5.621,5.62s-5.62-2.521-5.62-5.62C19.804,64.197,22.33,61.68,25.424,61.68 M25.424,61.634
		c-3.122,0-5.662,2.54-5.662,5.657c0,3.127,2.54,5.658,5.662,5.658c3.113,0,5.658-2.531,5.658-5.658
		C31.082,64.174,28.538,61.634,25.424,61.634z"/> <path fill-rule="evenodd" clip-rule="evenodd" d="M81.94,64.498c1.563,0,2.835,1.254,2.835,2.793
		c0,1.549-1.271,2.803-2.835,2.803c-1.578,0-2.851-1.254-2.851-2.803C79.09,65.752,80.362,64.498,81.94,64.498 M81.94,61.657
		c3.108,0,5.634,2.521,5.634,5.634c0,3.122-2.525,5.645-5.634,5.645c-3.127,0-5.648-2.522-5.648-5.645
		C76.292,64.178,78.813,61.657,81.94,61.657z"/> <path fill-rule="evenodd" clip-rule="evenodd" d="M81.94,64.517c1.549,0,2.817,1.245,2.817,2.774
		c0,1.535-1.269,2.78-2.817,2.78c-1.56,0-2.836-1.245-2.836-2.78C79.104,65.762,80.381,64.517,81.94,64.517 M81.94,64.475
		c-1.578,0-2.869,1.263-2.869,2.816c0,1.555,1.291,2.826,2.869,2.826c1.582,0,2.854-1.271,2.854-2.826
		C84.795,65.737,83.522,64.475,81.94,64.475z"/> <path fill-rule="evenodd" clip-rule="evenodd" d="M81.94,61.68c3.089,0,5.601,2.518,5.601,5.611
		c0,3.099-2.512,5.62-5.601,5.62c-3.118,0-5.615-2.521-5.615-5.62C76.325,64.197,78.822,61.68,81.94,61.68 M81.94,61.634
		c-3.127,0-5.667,2.54-5.667,5.657c0,3.127,2.54,5.658,5.667,5.658c3.108,0,5.652-2.531,5.652-5.658
		C87.593,64.174,85.049,61.634,81.94,61.634z"/> </g> </symbol><symbol viewBox="-108 -60 1984.252 1984.252" id="icon-bumps-logo-inv"><title>bumps-logo-inv</title> <circle cx="884.126" cy="932.126" r="992.126"/> <g> <g> <path fill="currentColor" d="M348.893,845.718c0,68.657,55.624,128.375,124.304,128.375c68.619,0,124.28-61.78,124.28-130.405
			c0-4.532-0.289-19.525-0.755-19.525H349.615C349.165,824.163,348.893,841.205,348.893,845.718z"/> <path fill="currentColor" d="M1295.38,978.128c68.646,0,124.296-63.753,124.296-132.41c0-4.512-0.289-21.555-0.755-21.555h-247.107
			c-0.489,0-0.733,17.043-0.733,21.555C1171.081,914.375,1226.732,978.128,1295.38,978.128z"/> <path fill="currentColor" d="M890.227,102.433c-401.15,0-713.767,322.604-722.018,721.73h87.965
			c-14.301-33.438-21.994-85.272-21.994-135.246c0-262.924,213.162-472.024,476.087-472.024
			c188.852,0,351.999,111.973,428.99,271.345c11.107-1.065,27.633-0.58,38.997-0.58c187.798,0,346.033,150.684,354.821,336.519
			l78.901-0.015h0.269C1604.004,425.031,1291.34,102.433,890.227,102.433z"/> <g display="none"> <path display="inline" fill="currentColor" d="M1565.957,1018.548c-6.275,17.318,8.632,13.386,11.03,22.04
				c-5.365,29.534-33.769,35.977-27.526,77.1c-29.103,1.545-53.461-1.61-55.051-27.538c-22.061,0-44.087,0-66.07,0
				c-5.941,10.631-10.574,22.505-33.078,16.519c0,7.33,0,14.673,0,22.037c27.604,12.764,78.865,1.867,115.656,5.511
				c18.327,29.349,83.152,12.24,99.115,44.054c0,12.841,0,25.693,0,38.512c-26.87,22.694-69.657,29.47-88.131,60.595
				c-71.124-0.223-127.485,25.77-170.672-16.53c0-18.35,0-36.7,0-55.051c21.526,8.688,11.373-14.308,21.993-16.506
				c3.71,0,7.375,0,11.03,0c20.028-5.377,2.555,26.792,27.492,16.506c1.821,18.306-27.036,5.965-16.483,33.034
				c46.852,21.061,87.441-11.63,137.672-5.521c5.219-13.118,20.372-16.34,16.528-38.532
				c-29.325-22.083-86.586-16.218-137.717-16.507c-8.496-30.057-64.048-13.007-88.074-27.525c0-14.729,0-29.402,0-44.075
				c19.694-18.873,61.46-15.641,71.591-44.066c45.31,1.244,69.136-18.983,121.163-11.008
				C1531.056,1038.719,1533.555,1013.672,1565.957,1018.548z"/> <path display="inline" fill="currentColor" d="M337.941,1035.089c9.209,19.972,18.334,48.431,0,66.07
				c46.865,2.71,71.358,27.79,99.155,49.585c0,18.328,0,36.679,0,55.053c-22.371,25.369-47.892,47.552-71.607,71.58
				c-84.476,5.175-109.691,1.653-198.227,0c6.97-21.661-12.997-16.375-27.532-16.531c14.768-56.76,20.995-122.186,16.507-198.242
				C228.684,1065.314,284.412,1051.262,337.941,1035.089z M238.851,1090.15c7.821,28.037-27.752,12.651-44.059,16.519
				c0,14.673,0,29.347,0,44.075c9.181,0,18.317,0,27.515,0c6.897-35.368,62.937-21.527,71.613-55.094
				c-9.507-5.199-9.014-20.362-27.537-16.541C272.053,1097.627,249.227,1087.685,238.851,1090.15z M194.792,1189.289
				c7.948,20.794-15.168,10.552-11.041,27.492c9.88-0.7,12.907,5.499,11.041,16.529c59.556,13.65,91.668,5.953,154.173,0
				c10.696-27.893,61.832-15.273,44.075-71.591C303.512,1147.479,262.507,1181.736,194.792,1189.289z"/> <path display="inline" fill="currentColor" d="M646.33,1035.089c9.182,0,18.378,0,27.554,0c-3.292,14.307,2.189,19.794,16.496,16.506
				c7.765,25.327-17.417,83.511,16.541,82.621c0,27.503,0,55.073,0,82.565c-17.939,20.64-57.978,19.129-71.614,44.064
				c-26.819,8.03-87.591-17.827-88.113,16.53c-23.837,0-47.681,0-71.557,0c1.81-25.683-21.949-25.795-27.548-44.066
				c22.105-38.489,21.272-99.861,27.548-154.2c27.625,11.118,8.003-25.004,22.033-27.515c7.354,0,14.678,0,22.01,0
				c-0.123,62.271,2.427,127.231-27.509,159.688c2.239,10.608,25.193,0.489,16.506,22.027
				c47.281-13.285,103.61-17.482,154.19-27.513c-8.036-26.86,17.806-87.598-16.534-88.108
				C646.33,1090.15,646.33,1062.603,646.33,1035.089z"/> <path display="inline" fill="currentColor" d="M1241.061,1134.216c0-14.707,0-29.392,0-44.065
				c-24.86,0.833-58.296-6.919-60.573,16.519c-19.561,8.553-3.299-18.706-16.517-16.519c-18.584,25.472-65.992,22.072-66.093,66.071
				c19.484,13.706,62.828,4.254,60.605-22.005C1186.01,1134.216,1213.536,1134.216,1241.061,1134.216
				c-33.791,41.455-90.02,60.427-143.183,82.565c-0.254,29.103,5.5,64.236-16.494,71.603c-42.666-48.087-2.733-165.543-11.03-225.78
				c34.2-6.677,26.437,28.614,66.081,16.506c17.517-37.512,100.005-10.163,121.154-44.021
				c12.418,11.484,25.227,22.482,55.073,16.506c0,12.841,0,25.704,0,38.556C1279.538,1095.559,1284.136,1138.703,1241.061,1134.216z
				"/> <path display="inline" fill="currentColor" d="M745.475,1051.594c14.663,0,29.38,0,44.043,0
				c-4.727,46.954,31.912,52.541,44.037,82.621c20.205,0,40.405,0,60.571,0c43.732-18.684,35.912-88.941,104.626-82.621
				c0,69.747,0,139.516,0,209.251c-70.852-2.355-20.116-77.488-27.515-126.63c-53.763,18.105-121.965,90.485-176.232,27.503
				c-13.997,2.488,5.626,38.634-21.993,27.57c0,23.838,0,47.697,0,71.557c-9.221,0-18.38,0-27.538,0
				c9.591-43.609-20.095-126.541,16.513-143.158C745.731,1106.367,741.982,1082.608,745.475,1051.594z"/> <path display="inline" fill="currentColor" d="M844.595,1343.467c5.51,0,10.991,0,16.512,0c0,14.686,0,29.349,0,44.031
				c-24.981-10.296-7.498,21.884-27.554,16.551C827.551,1374.115,852.727,1375.456,844.595,1343.467z"/> <path display="inline" fill="currentColor" d="M156.237,1359.986c9.181,0,18.389,0,27.515,0
				c20.832,32.413,71.612,34.834,99.126,60.571c0,27.481-46.397,8.63-44.025,38.543c-30.519,0.701-67.387-4.998-82.616,10.999
				C156.237,1433.406,156.237,1396.697,156.237,1359.986z M167.262,1442.572c35.04,0.223,64.06-5.643,82.576-22.015
				c-14.623-14.752-53.718-5-55.045-33.059c-9.198,0-18.35,0-27.531,0C167.262,1405.85,167.262,1424.211,167.262,1442.572z"/> <path display="inline" fill="currentColor" d="M348.966,1359.986c14.678,0,29.396,0,44.076,0c6.62,23.159-8.887,24.114-11.047,38.543
				c2.409,12.309,27.159,2.232,38.561,5.521c0,21.994,0,44.031,0,66.049c-15.695-11.831-14.18-40.866-27.516-55.053
				c-7.365,0-14.679,0-22.032,0c-11.418,23.438-56.561,13.219-60.583,44.054c0-27.535,0-55.051,0-82.598c9.174,0,18.356,0,27.515,0
				c-1.883,16.439-26.337,10.364-16.507,38.544c21.1,2.71,17.596-19.127,44.054-10.997c0-7.354,0-14.707,0-22.05
				C363.245,1371.392,340.279,1381.523,348.966,1359.986z"/> <path display="inline" fill="currentColor" d="M508.675,1376.501c-1.827,0-3.654,0-5.509,0c-3.654,0-7.342,0-10.997,0
				c0-5.52,0-11.008,0-16.516c5.499,0,10.997,0,16.506,0C508.675,1365.494,508.675,1370.982,508.675,1376.501z"/> <path display="inline" fill="currentColor" d="M591.268,1387.498c3.004-7.997-6.421-28.436,5.481-27.513
				C615.667,1353.776,613.084,1400.028,591.268,1387.498z"/> <path display="inline" fill="currentColor" d="M734.434,1415.046c19.227,6.51,19.333,32.068,49.601,27.525
				c12.142-0.667,2.311-23.349,5.482-33.034c-18.483-7.242-20.639-30.78-27.532-49.552c9.198,0,18.351,0,27.532,0
				c4.977,30.425,27.531,91.662-5.482,110.113c-14.434-2.134-15.428-17.641-38.561-10.998
				C748.157,1438.039,726.324,1441.506,734.434,1415.046z"/> <path display="inline" fill="currentColor" d="M943.723,1376.501c0-5.52,0-11.008,0-16.516c18.351,0,36.7,0,55.028,0
				c7.998,20.826-15.118,10.551-11.008,27.513C961.296,1395.63,964.773,1373.77,943.723,1376.501z"/> <path display="inline" fill="currentColor" d="M1086.882,1459.1c-5.497,0-10.974,0-16.527,0c0-18.351,0-36.722,0-55.051
				c20.083-24.016,72.489-15.674,88.13-44.063c12.84,0,25.705,0,38.511,0c0,14.672,0,29.356,0,44.063
				c-34.2,6.665-26.448-28.647-66.047-16.551C1115.94,1411.069,1072.087,1405.772,1086.882,1459.1z"/> <path display="inline" fill="currentColor" d="M1450.323,1387.498c-10.985,0-21.983,0-33.047,0
				c-14.918,18.13-31.445,34.646-49.563,49.588c-2.478,15.315,30.014-4.332,27.548,10.995c3.377,21.717-30.214,6.477-44.031,11.02
				c5.275-23.638-3.933-32.813-27.56-27.536c8.108-26.461-13.719-22.995-11.009-44.066c-7.354,0-14.696,0-22.026,0
				c-4.277,14.084-15.83,20.905-38.533,16.551c-4.154-24.348,27.925-12.484,16.506-44.063c9.153,0,18.352,0,27.548,0
				c0.634,32.355,57.072,8.986,44.055,55.061c36.678-0.044,55.017-18.395,55.052-55.061c9.164,0,18.326,0,27.524,0
				C1410.267,1390.875,1456.511,1362.973,1450.323,1387.498z"/> <path display="inline" fill="currentColor" d="M464.61,1376.501c29.58,20.438-2.861,69.169-5.516,93.598
				c-22.792,0.776-5.704-38.313-11.009-55.053C474.446,1423.023,461.788,1392.031,464.61,1376.501z"/> <path display="inline" fill="currentColor" d="M508.675,1376.501c16.979-4.109,6.715,18.961,27.548,10.997
				c-2.083,24.115,6.555,37.479,22.016,44.066c7.781-14.253,9.697-34.314,22.021-44.066c3.654,0,7.336,0,11.008,0
				c0,9.197,0,18.352,0,27.548c-5.521,0-11.008,0-16.491,0c7.332,29.391-18.395,25.67-11.041,55.053
				c-35.952,8.418-13.485-41.545-44.059-38.533C527.026,1402.184,501.322,1405.894,508.675,1376.501z"/> <path display="inline" fill="currentColor" d="M635.305,1376.501c12.353,2.333,17.585,11.797,27.56,16.528
				c-19.951,11.242-17.867,44.521-16.535,77.069C621.876,1459.691,641.754,1404.94,635.305,1376.501z"/> <path display="inline" fill="currentColor" d="M734.434,1415.046c-9.159,0-18.334,0-27.515,0c-3.366,13.176,6.897,39.943-5.505,44.054
				c-24.181-7.043-4.814-57.627-11.035-82.599c9.192,0,18.405,0,27.548,0C708.118,1404.671,732.532,1398.607,734.434,1415.046z"/> <path display="inline" fill="currentColor" d="M943.723,1376.501c8.47,23.183-28.509,0.878-27.547,16.528
				c-8.404,24.927,35.962-2.921,27.547,22.017c-18.379,0-36.745,0-55.085,0c-6.625-23.172,8.893-24.159,11.03-38.545
				C914.347,1376.501,929.027,1376.501,943.723,1376.501z"/> <path display="inline" fill="currentColor" d="M1450.323,1387.498c5.509,0,11.008,0,16.494,0c-3.331,13.163,6.966,39.966-5.486,44.066
				c-3.654,0-7.331,0-11.008,0C1450.323,1416.891,1450.323,1402.184,1450.323,1387.498z"/> <path display="inline" fill="currentColor" d="M1510.918,1442.572c-5.533,0-11.042,0-16.507,0c3.421-16.729-7.063-47.43,5.466-55.073
				C1522.713,1386.711,1505.64,1425.81,1510.918,1442.572z"/> <path display="inline" fill="currentColor" d="M1252.102,1404.05c6.62,23.148-8.909,24.127-11.041,38.521
				c38.621,7.455,51.841-10.596,82.61-11.006c4.098,16.949-18.962,6.72-11.01,27.535c-19.761,0.422-44.832-4.486-49.563,10.998
				c-11.843-15.662-51.896-3.154-55.053-27.527c-21.193,18.196-90.119,44.589-121.165,16.529
				c18.417-5.465,61.727,13.996,55.053-16.529C1197.586,1448.626,1213.691,1415.225,1252.102,1404.05z"/> <path display="inline" fill="currentColor" d="M943.723,1415.046c23.86,0,47.698,0,71.569,0c-3.366,13.176,6.919,39.943-5.498,44.054
				c-20.961,8.108-1.091-24.614-22.05-16.528c0-3.655,0-7.331,0-11.007c-13.175-3.345-39.928,6.897-44.021-5.521
				C943.723,1422.378,943.723,1418.713,943.723,1415.046z"/> <path display="inline" fill="currentColor" d="M1450.323,1431.566c-0.611,6.72-1.655,13.05-10.985,11.006c0-3.654,0-7.33,0-11.006
				C1443.004,1431.566,1446.646,1431.566,1450.323,1431.566z"/> <path display="inline" fill="currentColor" d="M1510.918,1442.572c44.075,7.386,63.004-10.396,99.115-11.007
				c5.343,20.048-26.826,2.531-16.517,27.536c-30.491,0.7-67.403-4.999-82.599,10.998
				C1510.918,1460.922,1510.918,1451.759,1510.918,1442.572z"/> <path display="inline" fill="currentColor" d="M971.238,1459.1c-3.749,23.772-50.015,5.055-71.569,10.999
				c2.999-7.978-6.448-28.46,5.499-27.527C916.421,1458.813,940.224,1462.567,971.238,1459.1z"/> <path display="inline" fill="currentColor" d="M987.745,1442.572c0,5.51,0,11.019,0,16.529c-5.499,0-10.986,0-16.507,0
				c0-5.511,0-11.02,0-16.529C976.759,1442.572,982.246,1442.572,987.745,1442.572z"/> <path display="inline" fill="currentColor" d="M1411.745,1442.572c16.106-8.085,16.106,24.637,0,16.529
				C1411.745,1453.59,1411.745,1448.081,1411.745,1442.572z"/> </g> </g> <g> <path fill="currentColor" d="M297.917,1415.305c0,7.062-2.748,11.526-8.239,13.389c-8.732,8.437-21.775,14.518-39.136,18.244
			c-14.617,2.354-29.231,4.708-43.845,7.063c-3.925,0.786-8.387,2.207-13.39,4.267c-4.318,1.862-8.632,3.727-12.948,5.592
			c-1.471,0.59-2.795,0.883-3.972,0.883c-3.729,0-6.868-1.864-9.417-5.592c-2.453-3.332-3.678-6.963-3.678-10.888
			c0-3.922,1.374-6.914,4.12-8.976c1.96-8.335,2.942-18.046,2.942-29.13c0-15.891-1.718-30.699-5.149-44.433
			c-3.925-2.649-5.885-6.276-5.885-10.889c0-3.531,1.126-6.742,3.383-9.637c2.255-2.892,5.1-4.341,8.533-4.341
			c2.061,0,4.904,1.228,8.535,3.679c2.55,1.963,5.148,3.925,7.797,5.885c12.455,8.534,28.346,16.676,47.67,24.423
			c16.774,6.377,33.496,12.753,50.171,19.128C293.746,1397.405,297.917,1404.515,297.917,1415.305z M267.462,1412.509
			c-27.366-8.827-52.724-19.469-76.066-31.927c0.882,8.044,1.325,16.97,1.325,26.777c0,6.572-0.247,14.764-0.736,24.57
			c7.846-1.568,22.753-4.021,44.727-7.357C250.542,1422.514,260.789,1418.492,267.462,1412.509z"/> <path fill="currentColor" d="M428.009,1453.704c0,2.844-1.864,5.443-5.59,7.799c-3.336,2.156-6.525,3.236-9.564,3.236
			c-4.905,0-8.238-2.942-10.004-8.828c-1.766-5.492-2.895-12.064-3.384-19.715c-0.098-3.039-0.147-9.76-0.147-20.157
			c0-0.391-0.198-0.588-0.588-0.588c-9.026,0-21.286,1.467-36.783,4.396c-18.833,3.52-31.143,5.573-36.929,6.156
			c-0.099,0.783-0.148,7.918-0.148,21.402c0,2.543-1.202,4.572-3.604,6.087c-2.404,1.515-4.979,2.271-7.724,2.271
			c-4.219,0-7.063-1.271-8.534-3.818c-0.982-1.863-1.471-5.094-1.471-9.696c0-3.72,0.391-8.91,1.177-15.57
			c-2.159-2.646-3.236-5.976-3.236-9.99c0-5.093,1.814-8.473,5.443-10.136c0.49-5.385,0.833-9.989,1.03-13.81
			c-4.318-1.665-6.473-5.337-6.473-11.017c0-4.896,1.861-8.178,5.59-9.844c-0.493-2.152-0.736-3.964-0.736-5.436
			c0-1.664,0.883-3.061,2.648-4.188c1.766-1.125,3.532-1.688,5.297-1.688c3.922,0,7.65,1.521,11.182,4.561
			c31.681-10.496,54.633-15.743,68.856-15.743c4.216,0,7.748,1.913,10.594,5.738c2.55,3.435,3.825,7.356,3.825,11.771
			c0,3.729-1.228,6.915-3.678,9.563c-5.591,5.789-15.154,12.507-28.69,20.157c12.947-2.061,23.882-3.091,32.809-3.091
			c5.591,0,9.711,0.884,12.36,2.649c3.237,2.061,4.855,5.787,4.855,11.182c0,0.198-0.589,2.258-1.765,6.179
			c-1.081,3.532-1.618,8.29-1.618,14.271c0,5.886,1.42,13.341,4.266,22.363C427.762,1451.646,428.009,1452.823,428.009,1453.704z
			 M376.955,1372.048c-4.611,0.981-20.55,5.936-47.817,14.859c-0.098,3.337-0.246,7.85-0.441,13.537
			c6.964-1.568,15.449-5.247,25.454-11.035C364.154,1383.623,371.754,1377.838,376.955,1372.048z"/> <path fill="currentColor" d="M483.064,1375.726c0,7.356-1.302,18.244-3.899,32.663c-2.6,14.419-3.899,25.258-3.899,32.516
			c0,1.472,0.147,3.656,0.442,6.548c0.294,2.894,0.44,5.076,0.44,6.547c0,2.648-1.48,4.855-4.441,6.621
			c-2.565,1.472-5.328,2.207-8.29,2.207c-5.035,0-8.29-1.423-9.771-4.268c-1.085-1.864-1.627-5.491-1.627-10.888
			c0-7.552,1.274-18.759,3.824-33.619c2.55-14.859,3.826-26.064,3.826-33.617c0-5.786-0.541-11.427-1.619-16.92
			c-0.491-2.354-0.735-4.069-0.735-5.149c0-4.904,2.844-7.357,8.534-7.357c6.865,0,11.624,2.601,14.272,7.798
			C482.083,1362.535,483.064,1368.175,483.064,1375.726z"/> <path fill="currentColor" d="M618.894,1356.6c0,5.003-2.795,12.752-8.386,23.247c-3.925,7.555-8.339,14.911-13.241,22.069
			c-7.357,10.692-12.263,18-14.714,21.922c-6.671,10.594-10.497,18.147-11.476,22.659c-1.276,6.278-2.111,9.759-2.502,10.445
			c-1.471,2.943-4.561,4.414-9.269,4.414c-11.869,0-17.802-4.855-17.802-14.565c0-4.903-4.366-15.449-13.096-31.633
			c-6.671-12.261-12.899-22.707-18.685-31.339c-2.847-4.021-5.689-8.042-8.534-12.064c-4.216-6.18-6.326-10.102-6.326-11.771
			c0-3.139,1.717-6.032,5.149-8.681c3.138-2.354,6.374-3.531,9.71-3.531c2.06,0,4.167,0.833,6.327,2.501
			c4.315,3.531,11.573,14.764,21.776,33.691c7.356,13.536,13.779,26.24,19.273,38.106c5.003-8.828,11.818-19.958,20.45-33.398
			c7.454-11.771,12.554-21.872,15.302-30.309c0.979-3.139,1.961-6.276,2.943-9.416c1.666-3.433,4.215-5.15,7.65-5.15
			c3.433,0,6.865,1.301,10.299,3.899C617.177,1350.299,618.894,1353.267,618.894,1356.6z"/> <path fill="currentColor" d="M661.884,1375.726c0,7.356-1.301,18.244-3.898,32.663c-2.6,14.419-3.899,25.258-3.899,32.516
			c0,1.472,0.146,3.656,0.441,6.548c0.295,2.894,0.441,5.076,0.441,6.547c0,2.648-1.48,4.855-4.44,6.621
			c-2.566,1.472-5.329,2.207-8.291,2.207c-5.034,0-8.29-1.423-9.77-4.268c-1.085-1.864-1.627-5.491-1.627-10.888
			c0-7.552,1.273-18.759,3.825-33.619c2.55-14.859,3.826-26.064,3.826-33.617c0-5.786-0.541-11.427-1.619-16.92
			c-0.492-2.354-0.736-4.069-0.736-5.149c0-4.904,2.844-7.357,8.533-7.357c6.866,0,11.624,2.601,14.272,7.798
			C660.904,1362.535,661.884,1368.175,661.884,1375.726z"/> <path fill="currentColor" d="M822.02,1427.663c0,9.613-2.207,17.36-6.621,23.246c-5.002,6.569-12.163,9.856-21.48,9.856
			c-10.594,0-23.739-7.6-39.431-22.805c-8.534-8.336-19.031-20.451-31.486-36.342c-2.453,16.283-3.678,26.878-3.678,31.78
			c0,1.669,0.122,4.146,0.369,7.431c0.244,3.287,0.367,5.715,0.367,7.282c0,2.748-1.471,4.954-4.414,6.622
			c-2.552,1.372-5.248,2.06-8.091,2.06c-4.807,0-7.995-1.324-9.563-3.972c-1.178-1.961-1.766-5.493-1.766-10.594
			c0-6.569,0.979-16.28,2.943-29.131c1.96-12.849,2.942-22.559,2.942-29.132c0-6.179-0.736-11.229-2.208-15.153
			c-1.177-3.237-1.766-5.394-1.766-6.475c0-2.354,2.156-4.509,6.474-6.474c3.825-1.765,7.063-2.647,9.71-2.647
			c3.237,0,5.885,1.764,7.944,5.295c19.323,32.271,41.49,57.284,66.503,75.036c3.138,2.354,5.296,3.53,6.474,3.53
			c2.943,0,4.414-4.509,4.414-13.534c0-9.612-2.994-20.106-8.976-31.486c-3.141-6.08-8.68-14.761-16.626-26.041
			c-5.885-8.436-8.828-13.878-8.828-16.331c0-3.039,1.177-6.203,3.532-9.49c2.353-3.285,5.002-4.929,7.944-4.929
			c2.55,0,5.393,1.765,8.533,5.296c9.219,10.397,17.557,24.081,25.013,41.049C818.095,1399.66,822.02,1415.009,822.02,1427.663z"/> <path fill="currentColor" d="M880.783,1340.857c0,1.766-1.618,6.621-4.854,14.567c-1.472,3.14-3.483,7.944-6.032,14.417
			c-1.472,5.396-4.023,13.341-7.651,23.835c-2.159,4.906-6.278,7.356-12.358,7.356c-3.237,0-6.132-0.784-8.682-2.354
			c-3.04-1.862-4.56-4.314-4.56-7.356c0-2.844,2.942-11.917,8.827-27.219c5.688-14.614,9.659-23.932,11.918-27.955
			c2.45-4.413,6.08-6.62,10.887-6.62c3.334,0,6.253,1.08,8.754,3.236C879.533,1334.924,880.783,1337.62,880.783,1340.857z"/> <path fill="currentColor" d="M1027.97,1425.015c0,8.534-8.437,16.872-25.306,25.013c-11.575,5.592-23.688,9.857-36.341,12.8
			c-11.379,2.55-21.826,3.826-31.339,3.826c-22.362,0-33.544-6.573-33.544-19.717c0-1.273-0.051-2.869-0.148-4.781
			c-0.097-1.913-0.146-3.259-0.146-4.046c0-3.922,1.273-7.503,3.825-10.739c3.531-4.414,7.553-6.621,12.065-6.621
			c2.744,0,5.688,0.687,8.827,2.06c3.825,1.765,5.738,3.825,5.738,6.179c0,2.454-0.859,4.392-2.575,5.813
			c-1.717,1.422-2.573,3.066-2.573,4.929c0,2.847,2.795,4.268,8.386,4.268c11.671,0,24.226-1.716,37.665-5.149
			c17.949-4.61,26.925-8.776,26.925-12.506c0-2.061-4.413-4.021-13.241-5.886c-5.592-1.273-11.087-2.207-16.479-2.796
			c-9.514-0.882-19.029-1.716-28.543-2.5c-15.106-1.668-26.877-4.069-35.311-7.21c-11.477-4.316-17.215-10.153-17.215-17.51
			c0-6.767,7.158-13.926,21.479-21.479c10.789-5.592,21.235-9.612,31.339-12.064c10.102-2.452,19.273-3.678,27.513-3.678
			c4.315,0,8.24,0.345,11.771,1.028c4.61-9.121,9.808-13.683,15.596-13.683c3.728,0,7.036,1.35,9.931,4.046
			c2.892,2.698,4.341,5.91,4.341,9.637c0,2.552-0.955,4.808-2.869,6.768c-1.913,1.964-3.752,3.876-5.518,5.738
			c-1.08,1.472-2.036,4.612-2.868,9.418c-0.834,4.807-1.742,8.143-2.723,10.004c-1.766,3.237-4.708,4.856-8.828,4.856
			c-4.414,0-8.338-1.179-11.771-3.531c-3.825-2.745-5.443-6.277-4.855-10.593h-1.324c-7.063-0.098-15.597,0.688-25.601,2.354
			c-13.44,2.354-20.207,5.494-20.304,9.417c1.861,1.568,8.776,2.844,20.744,3.825c20.894,1.764,32.517,2.795,34.871,3.089
			c13.926,1.766,23.834,4.317,29.72,7.65C1021.741,1410.301,1027.97,1417.562,1027.97,1425.015z"/> <path fill="currentColor" d="M1240.101,1421.484c0,6.083-2.158,10.545-6.474,13.388c-1.864,1.179-7.603,3.679-17.214,7.505
			c-36.782,14.713-66.552,22.069-89.307,22.069c-20.797,0-34.869-6.179-42.226-18.539c-3.628-6.08-5.444-12.454-5.444-19.127
			c0-11.572,6.229-23.49,18.687-35.752c10.983-10.788,24.666-19.958,41.047-27.512c15.891-7.356,29.427-11.035,40.608-11.035
			c2.943,0,5.688,0.293,8.239,0.882c1.862-11.771,6.57-17.655,14.125-17.655c3.727,0,7.11,1.329,10.152,3.981
			c3.038,2.655,4.561,5.851,4.561,9.584c0,2.162-1.302,6.145-3.899,11.944c-2.6,5.8-3.898,10.667-3.898,14.598
			c0,1.278,0.172,3.247,0.516,5.9c0.342,2.653,0.516,4.67,0.516,6.046c0,4.228-1.375,7.57-4.12,10.028
			c-2.748,2.458-6.278,3.685-10.593,3.685c-4.611,0-7.702-1.898-9.27-5.701c-0.883-3.604-1.816-7.21-2.796-10.814
			c-1.471-3.8-4.513-5.702-9.121-5.702c-12.359,0-27.66,6.558-45.904,19.669c-15.89,11.351-23.835,20.841-23.835,28.473
			c0,8.022,8.141,12.035,24.423,12.035c20.99,0,43.747-5.688,68.269-17.068c5.786-2.844,11.572-5.737,17.361-8.68
			c8.924-4.315,14.417-6.474,16.478-6.474c3.236,0,5.639,1.669,7.21,5.003C1239.464,1414.767,1240.101,1417.857,1240.101,1421.484z"/> <path fill="currentColor" d="M1365.633,1401.474c0,13.146-9.221,25.11-27.66,35.899c-24.129,14.225-48.799,21.334-74.006,21.334
			c-9.025,0-16.528-1.422-22.511-4.267c-7.944-3.825-11.917-9.759-11.917-17.803c0-17.067,16.82-40.019,50.465-68.857
			c-2.157-2.744-3.236-5.785-3.236-9.121c0-3.432,1.421-6.08,4.268-7.945c2.354-1.666,5.346-2.501,8.975-2.501
			c4.021,0,10.248,1.57,18.686,4.708C1346.652,1366.851,1365.633,1383.034,1365.633,1401.474z M1342.385,1402.064
			c0-10.396-13.292-18.588-39.872-24.57c-2.159,2.157-5.396,5.396-9.71,9.71c-13.635,12.851-20.844,19.667-21.628,20.451
			c-10.497,10.692-15.743,18.195-15.743,22.511c0,3.433,3.628,5.149,10.889,5.149c11.182,0,23.884-2.354,38.105-7.063
			c15.596-5.099,26.727-11.182,33.398-18.243C1340.865,1406.675,1342.385,1404.026,1342.385,1402.064z"/> <path fill="currentColor" d="M1497.49,1401.474c0,13.146-9.221,25.11-27.661,35.899c-24.129,14.225-48.798,21.334-74.005,21.334
			c-9.025,0-16.529-1.422-22.512-4.267c-7.944-3.825-11.917-9.759-11.917-17.803c0-17.067,16.821-40.019,50.466-68.857
			c-2.158-2.744-3.236-5.785-3.236-9.121c0-3.432,1.421-6.08,4.267-7.945c2.354-1.666,5.346-2.501,8.975-2.501
			c4.021,0,10.249,1.57,18.687,4.708C1478.51,1366.851,1497.49,1383.034,1497.49,1401.474z M1474.242,1402.064
			c0-10.396-13.292-18.588-39.872-24.57c-2.158,2.157-5.396,5.396-9.71,9.71c-13.635,12.851-20.844,19.667-21.628,20.451
			c-10.497,10.692-15.743,18.195-15.743,22.511c0,3.433,3.628,5.149,10.889,5.149c11.181,0,23.884-2.354,38.105-7.063
			c15.596-5.099,26.727-11.182,33.398-18.243C1472.721,1406.675,1474.242,1404.026,1474.242,1402.064z"/> <path fill="currentColor" d="M1635.232,1424.721c0,5.494-1.67,9.662-5.002,12.506c-4.906,4.12-13.488,7.701-25.749,10.74
			c-9.221,2.354-18.684,4.023-28.395,5.003c-16.479,1.669-30.114,4.315-40.902,7.945c-2.746,1.077-5.443,2.156-8.092,3.236
			c-3.729,1.372-6.377,2.06-7.946,2.06c-4.119,0-7.406-6.032-9.856-18.097c-1.669-8.729-2.501-16.673-2.501-23.834
			c0-3.728,0.221-9.344,0.662-16.848c0.442-7.503,0.662-13.116,0.662-16.846c0-7.846-1.081-15.644-3.236-23.394
			c-0.982-3.432-1.471-5.687-1.471-6.769c0-4.51,3.235-6.768,9.71-6.768c5.886,0,10.005,1.964,12.359,5.886
			c2.942,4.807,4.414,13.881,4.414,27.219c0,4.022-0.271,10.129-0.81,18.318c-0.541,8.19-0.809,14.344-0.809,18.465
			c0,4.219,0.194,8.238,0.588,12.063c13.633-3.333,29.77-6.228,48.405-8.681c15.104-2.06,27.514-5.394,37.224-10.004
			c2.155-1.179,4.315-2.354,6.475-3.532c2.942-1.472,5.051-2.207,6.326-2.207c2.649,0,4.757,1.669,6.327,5.004
			C1634.692,1418.835,1635.232,1421.682,1635.232,1424.721z"/> </g> <g> <path fill="currentColor" d="M375.628,1061.492c0,6.18-2.064,11.46-6.18,15.835c-5.407,5.926-19.696,17.767-42.87,35.531
			c19.311-4.374,37.076-6.565,53.296-6.565c23.945,0,44.029,4.895,60.25,14.677c19.311,11.587,28.967,28.581,28.967,50.981
			c0,27.554-13.132,52.011-39.394,73.38c-21.628,17.766-47.505,30.258-77.629,37.463c-17.765,4.375-38.235,6.565-61.408,6.565
			c-23.432,0-47.891-2.451-73.381-7.338c-28.066-5.406-51.366-12.745-69.904-22.015c-4.635-2.57-6.952-6.564-6.952-11.973
			c0-11.067,4.117-19.564,12.36-25.489c0.772-12.1,2.57-30.186,5.406-54.264c2.83-24.072,4.635-42.157,5.407-54.263
			c-1.544,0.772-2.963,1.159-4.249,1.159c-4.122,0-7.337-2.444-9.655-7.339c-1.804-3.861-2.704-8.109-2.704-12.744
			c0-6.18,1.285-10.556,3.862-13.132c1.544-1.545,5.534-3.603,11.973-6.18c-0.26-1.545-1.032-5.274-2.318-11.2
			c-1.031-4.888-1.545-8.623-1.545-11.2c0-4.889,3.862-7.338,11.587-7.338c14.929,0,23.172,5.793,24.717,17.38
			c70.804-24.717,122.816-37.076,156.03-37.076c7.724,0,13.903,3.994,18.538,11.973
			C373.698,1045.272,375.628,1052.995,375.628,1061.492z M426.994,1181.99c0-20.596-19.058-30.896-57.16-30.896
			c-29.612,0-61.154,5.792-94.623,17.379c-24.205,8.497-53.557,21.628-88.056,39.395l-0.773,20.083
			c36.817,15.966,69.772,23.945,98.871,23.945c26.003,0,54.324-5.794,84.968-17.38C408.07,1220.36,426.994,1202.847,426.994,1181.99
			z M318.469,1069.989c-33.215,4.122-73.381,14.678-120.5,31.671c-0.519,13.391-2.189,30.897-5.021,52.524
			C231.57,1132.556,273.407,1104.494,318.469,1069.989z"/> <path fill="currentColor" d="M727.855,1191.26c0,12.878-1.804,22.66-5.407,29.353c-6.18,12.106-18.924,20.989-38.235,26.649
			c-25.236,7.211-55.102,13.518-89.601,18.925c-36.051,5.666-66.302,8.495-90.76,8.495c-30.384,0-45.574-13.385-45.574-40.166
			c0-6.692,0.9-14.929,2.704-24.717c0.772-3.862,9.914-47.245,27.427-130.154c1.286-8.237,3.989-20.209,8.11-35.918
			c3.089-8.496,8.75-12.746,16.988-12.746c5.661,0,10.555,1.871,14.677,5.601c4.115,3.735,6.178,8.31,6.178,13.716
			c0,7.471-1.792,20.09-5.377,37.856c-2.811,13.131-5.63,26.268-8.442,39.4c-4.894,24.977-9.915,48.795-15.056,71.449
			c-2.124,7.978-3.18,14.156-3.18,18.525c0,10.042,5.793,15.056,17.38,15.056c2.83,0,6.952-0.252,12.358-0.771
			c26.263-2.83,52.653-5.534,79.174-8.11c38.362-5.406,61.661-12.999,69.905-22.786c3.343-3.862,5.021-11.84,5.021-23.945
			c0-21.882-5.667-58.186-16.993-108.913c-5.407-24.716-8.111-39.261-8.111-43.642c0-9.781,7.725-14.677,23.173-14.677
			c10.294,0,17.38,7.472,21.242,22.4c1.545,11.587,3.216,23.306,5.021,35.146C722.062,1123.159,727.855,1164.484,727.855,1191.26z"/> <path fill="currentColor" d="M1046.482,1252.669c0,3.608-2.963,6.698-8.883,9.269c-4.635,2.063-9.143,3.09-13.518,3.09
			c-8.244,0-13.132-2.571-14.678-7.725c-2.575-8.75-3.86-22.654-3.86-41.71c0-9.01,0.579-22.4,1.738-40.166
			c1.157-17.767,1.737-31.151,1.737-40.167c0-12.358-0.521-24.457-1.545-36.304c-22.963,24.718-43.6,44.674-61.909,59.863
			c-19.087,16.48-40.752,24.718-64.998,24.718c-31.212,0-57.137-15.836-77.769-47.505c-1.811,13.903-3.742,27.939-5.805,42.097
			c-2.063,16.739-3.096,30.897-3.096,42.482c0,3.35,0.254,8.564,0.773,15.643c0.513,7.085,0.773,12.298,0.773,15.642
			c0,8.757-7.338,13.132-22.014,13.132c-9.529,0-15.322-3.09-17.38-9.27c-1.032-2.571-1.544-9.656-1.544-21.241
			c0-14.93,2.378-37.012,7.145-66.236c4.761-29.221,7.144-51.3,7.144-66.235c0-6.952-0.258-12.613-0.772-16.995
			c-0.259-2.571-1.804-6.95-4.635-13.132c-2.577-5.406-3.862-10.167-3.862-14.29c0-6.95,2.571-12.551,7.725-16.8
			c5.146-4.248,11.2-6.371,18.15-6.371c7.465,0,13.645,6.564,18.539,19.697c19.564,55.101,47.504,82.647,83.809,82.647
			c29.866,0,60.888-20.855,93.078-62.565c4.888-6.18,8.171-13.771,9.848-22.786c1.673-9.01,9.59-13.519,23.752-13.519
			c18.792,0,28.195,4.382,28.195,13.132c0,1.804-0.26,4.381-0.772,7.724c-0.521,3.35-0.772,5.926-0.772,7.725
			c0,5.926,0.639,14.936,1.932,27.033c1.285,12.106,1.93,21.115,1.93,27.036c0,7.983-0.645,19.829-1.93,35.531
			c-1.293,15.708-1.932,27.554-1.932,35.531c0,6.699,0.899,16.546,2.702,29.546c1.8,13.005,2.704,22.727,2.704,29.16
			L1046.482,1252.669L1046.482,1252.669z"/> <path fill="currentColor" d="M1353.521,1064.969c0,7.211-2.45,13.005-7.337,17.379c-49.436,44.288-125.906,90.761-229.41,139.424
			c-0.52,7.213-0.772,14.936-0.772,23.173c0,3.608,0,8.949,0,16.028c0,7.084,0,12.425,0,16.027c0,8.751-6.566,13.133-19.697,13.133
			c-7.984,0-13.005-2.577-15.063-7.726c-0.773-2.317-1.159-8.364-1.159-18.151c0-7.978,1.286-22.914,3.862-44.801
			c0-1.545,0-3.089,0-4.634c0-0.772,0.705-4.249,2.13-10.429c2.844-12.612,5.093-41.325,6.754-86.126c-1.032,0-1.931,0-2.704,0
			c-4.381,0-7.857-2.058-10.429-6.179c-2.063-3.344-3.089-7.339-3.089-11.973c0-8.497,5.275-14.543,15.835-18.152
			c-0.259-2.572-1.032-7.205-2.317-13.905c-1.291-5.919-1.932-10.553-1.932-13.902c0-5.406,3.863-8.11,11.588-8.11
			c15.189,0,23.686,8.11,25.49,24.33c81.617-27.033,147.014-41.71,196.195-44.026h3.09c9.01-0.514,16.35,3.734,22.015,12.744
			C1351.205,1046.562,1353.521,1055.187,1353.521,1064.969z M1298.294,1071.148c-56.908,6.952-113.934,18.925-171.093,35.918
			c-0.52,17.253-2.577,40.686-6.18,70.292C1173.026,1152.126,1232.118,1116.721,1298.294,1071.148z"/> <path fill="currentColor" d="M1640.554,1197.825c0,19.311-19.829,37.849-59.476,55.615c-26.783,12.359-54.716,21.762-83.81,28.194
			c-26.009,5.406-49.821,8.109-71.449,8.109c-47.638,0-71.449-13.131-71.449-39.393c0-14.157,9.269-33.987,27.807-59.478
			c6.18-8.236,13.645-12.358,22.4-12.358c5.407,0,10.814,0.771,16.222,2.315c7.205,2.065,10.813,5.155,10.813,9.27
			c0,3.09-5.54,9.529-16.607,19.312c-11.073,9.788-16.606,17.765-16.606,23.945c0,11.586,12.998,17.379,39.007,17.379
			c23.174,0,50.075-3.989,80.719-11.973c14.417-3.862,27.808-8.496,40.166-13.904c20.083-8.496,30.125-16.348,30.125-23.559
			c0-6.434-7.531-12.359-22.594-17.767c-15.062-5.406-40.878-9.781-77.436-13.131c-47.377-4.635-77.115-7.978-89.216-10.042
			c-31.415-5.406-53.171-13.771-65.27-25.104c-6.692-6.18-10.043-12.745-10.043-19.697c0-15.188,16.35-30.765,49.051-46.731
			c23.171-11.067,46.664-19.505,70.484-25.297c23.812-5.794,45.378-8.69,64.69-8.69c12.099,0,22.786,1.158,32.057,3.477
			c6.178-11.841,10.295-19.178,12.358-22.014c6.18-7.979,12.999-11.974,20.47-11.974c6.692,0,12.744,2.45,18.151,7.338
			c5.406,4.895,8.111,10.688,8.111,17.38c0,4.381-2.318,9.016-6.952,13.903c-7.725,7.471-11.587,11.333-11.587,11.587
			c-2.576,3.35-4.895,10.174-6.952,20.469c-2.064,11.588-3.994,19.311-5.792,23.174c-3.09,7.471-8.109,11.199-15.063,11.199
			c-7.471,0-14.422-1.93-20.855-5.792c-7.724-4.375-11.587-10.043-11.587-16.993c0-2.831,0.639-5.92,1.931-9.27
			c-3.09-1.285-7.984-1.931-14.677-1.931c-15.967,0-37.463,3.089-64.497,9.27c-33.987,7.723-50.98,16.606-50.98,26.647
			c0,7.471,14.29,12.746,42.868,15.835c29.606,2.577,59.219,5.153,88.831,7.724c36.816,3.862,62.047,9.915,75.697,18.152
			c20.083,11.846,32.694,23.046,37.849,33.601C1639.524,1190.489,1640.554,1194.223,1640.554,1197.825z"/> </g> </g> </symbol><symbol viewBox="0 0 1613.734 1468.711" id="icon-bumps-logo"><title>bumps-logo</title> <g> <g> <path d="M224.437,800.216c0,73.916,59.884,138.208,133.824,138.208c73.875,0,133.8-66.511,133.8-140.393
			c0-4.879-0.311-21.021-0.813-21.021H225.214C224.729,777.011,224.437,795.358,224.437,800.216z"/> <path d="M1243.417,942.768c73.904,0,133.817-68.636,133.817-142.552c0-4.857-0.311-23.205-0.813-23.205h-266.034
			c-0.526,0-0.79,18.348-0.79,23.205C1109.598,874.132,1169.512,942.768,1243.417,942.768z"/> <path d="M807.234,0C375.358,0,38.797,347.314,29.914,777.011h94.703c-15.397-36-23.679-91.803-23.679-145.605
			c0-283.063,229.488-508.178,512.552-508.178c203.316,0,378.96,120.55,461.847,292.128c11.959-1.147,29.751-0.624,41.985-0.624
			c202.181,0,372.537,162.225,381.998,362.294l84.945-0.016h0.289C1575.68,347.307,1239.069,0,807.234,0z"/> <g display="none"> <path display="inline" fill-rule="evenodd" clip-rule="evenodd" d="M1534.719,986.285
				c-6.756,18.644,9.293,14.41,11.875,23.727c-5.775,31.797-36.354,38.733-29.633,83.005c-31.332,1.663-57.557-1.733-59.268-29.646
				c-23.75,0-47.464,0-71.131,0c-6.397,11.444-11.385,24.228-35.612,17.783c0,7.892,0,15.797,0,23.725
				c29.718,13.741,84.906,2.01,124.515,5.933c19.731,31.596,89.521,13.178,106.707,47.428c0,13.824,0,27.661,0,41.461
				c-28.929,24.432-74.993,31.727-94.881,65.236c-76.572-0.24-137.25,27.743-183.745-17.797c0-19.755,0-39.511,0-59.266
				c23.175,9.352,12.245-15.404,23.678-17.771c3.994,0,7.94,0,11.875,0c21.563-5.788,2.75,28.845,29.598,17.771
				c1.961,19.707-29.107,6.421-17.746,35.564c50.44,22.674,94.139-12.521,148.216-5.943c5.62-14.123,21.933-17.592,17.795-41.484
				c-31.571-23.774-93.218-17.46-148.265-17.771c-9.147-32.359-68.953-14.003-94.82-29.634c0-15.856,0-31.654,0-47.451
				c21.203-20.318,66.167-16.839,77.074-47.441c48.78,1.34,74.431-20.438,130.444-11.851
				C1497.146,1008.001,1499.836,981.035,1534.719,986.285z"/> <path display="inline" fill-rule="evenodd" clip-rule="evenodd" d="M212.646,1004.092
				c9.914,21.501,19.738,52.14,0,71.131c50.454,2.918,76.823,29.919,106.75,53.383c0,19.731,0,39.488,0,59.269
				c-24.084,27.313-51.56,51.194-77.092,77.063c-90.946,5.571-118.092,1.78-213.409,0c7.504-23.32-13.992-17.629-29.64-17.797
				c15.899-61.107,22.602-131.545,17.771-213.427C95.02,1036.632,155.017,1021.504,212.646,1004.092z M105.967,1063.371
				c8.419,30.184-29.878,13.62-47.434,17.783c0,15.797,0,31.595,0,47.451c9.884,0,19.72,0,29.622,0
				c7.426-38.077,67.758-23.176,77.098-59.314c-10.236-5.597-9.704-21.921-29.646-17.807
				C141.712,1071.42,117.137,1060.716,105.967,1063.371z M58.533,1170.103c8.557,22.387-16.33,11.36-11.887,29.598
				c10.637-0.753,13.896,5.92,11.887,17.795c64.117,14.697,98.689,6.41,165.981,0c11.516-30.029,66.568-16.443,47.452-77.074
				C175.58,1125.09,131.434,1161.971,58.533,1170.103z"/> <path display="inline" fill-rule="evenodd" clip-rule="evenodd" d="M544.656,1004.092c9.884,0,19.786,0,29.664,0
				c-3.545,15.403,2.356,21.31,17.759,17.771c8.359,27.266-18.751,89.906,17.807,88.949c0,29.609,0,59.291,0,88.889
				c-19.313,22.22-62.419,20.594-77.098,47.439c-28.874,8.646-94.3-19.192-94.863,17.797c-25.663,0-51.333,0-77.038,0
				c1.949-27.649-23.63-27.77-29.658-47.441c23.798-41.438,22.901-107.51,29.658-166.011c29.741,11.97,8.616-26.919,23.721-29.622
				c7.917,0,15.803,0,23.696,0c-0.132,67.041,2.613,136.976-29.616,171.918c2.41,11.421,27.123,0.527,17.771,23.715
				c50.902-14.303,111.545-18.822,165.999-29.621c-8.651-28.917,19.17-94.307-17.8-94.857
				C544.656,1063.371,544.656,1033.713,544.656,1004.092z"/> <path display="inline" fill-rule="evenodd" clip-rule="evenodd" d="M1184.939,1110.812c0-15.834,0-31.643,0-47.44
				c-26.765,0.896-62.761-7.45-65.213,17.783c-21.058,9.208-3.551-20.139-17.781-17.783c-20.008,27.421-71.047,23.762-71.155,71.131
				c20.976,14.756,67.64,4.58,65.247-23.69C1125.67,1110.812,1155.305,1110.812,1184.939,1110.812
				c-36.379,44.63-96.914,65.055-154.149,88.889c-0.274,31.332,5.92,69.157-17.758,77.086
				c-45.934-51.769-2.942-178.221-11.875-243.073c36.82-7.188,28.462,30.806,71.142,17.771
				c18.859-40.385,107.665-10.942,130.434-47.393c13.37,12.364,27.159,24.204,59.292,17.771c0,13.824,0,27.672,0,41.509
				C1226.363,1069.194,1231.314,1115.643,1184.939,1110.812z"/> <path display="inline" fill-rule="evenodd" clip-rule="evenodd" d="M651.394,1021.862c15.786,0,31.631,0,47.417,0
				c-5.089,50.55,34.357,56.564,47.41,88.949c21.753,0,43.5,0,65.211,0c47.081-20.115,38.662-95.754,112.639-88.949
				c0,75.089,0,150.201,0,225.277c-76.278-2.535-21.656-83.423-29.621-136.328c-57.881,19.492-131.307,97.416-189.732,29.609
				c-15.068,2.679,6.058,41.593-23.678,29.682c0,25.664,0,51.351,0,77.037c-9.926,0-19.786,0-29.646,0
				c10.326-46.949-21.634-136.232,17.777-154.123C651.669,1080.831,647.633,1055.251,651.394,1021.862z"/> <path display="inline" fill-rule="evenodd" clip-rule="evenodd" d="M758.107,1336.09c5.932,0,11.833,0,17.776,0
				c0,15.81,0,31.596,0,47.404c-26.895-11.085-8.072,23.559-29.664,17.818C739.756,1369.084,766.861,1370.53,758.107,1336.09z"/> <path display="inline" fill-rule="evenodd" clip-rule="evenodd" d="M17.024,1353.873c9.884,0,19.798,0,29.622,0
				c22.428,34.896,77.098,37.502,106.719,65.211c0,29.586-49.951,9.291-47.398,41.496c-32.856,0.754-72.547-5.381-88.943,11.84
				C17.024,1432.919,17.024,1393.396,17.024,1353.873z M28.894,1442.785c37.724,0.24,68.966-6.075,88.901-23.701
				c-15.744-15.881-57.833-5.382-59.262-35.59c-9.902,0-19.755,0-29.64,0C28.894,1403.25,28.894,1423.019,28.894,1442.785z"/> <path display="inline" fill-rule="evenodd" clip-rule="evenodd" d="M224.515,1353.873c15.803,0,31.648,0,47.452,0
				c7.127,24.934-9.567,25.962-11.893,41.496c2.594,13.251,29.239,2.403,41.514,5.943c0,23.679,0,47.404,0,71.107
				c-16.897-12.736-15.265-43.996-29.622-59.268c-7.929,0-15.804,0-23.72,0c-12.293,25.232-60.894,14.23-65.223,47.428
				c0-29.645,0-59.268,0-88.925c9.877,0,19.762,0,29.622,0c-2.027,17.699-28.354,11.158-17.771,41.497
				c22.716,2.917,18.943-20.593,47.428-11.84c0-7.917,0-15.833,0-23.738C239.888,1366.154,215.163,1377.06,224.515,1353.873z"/> <path display="inline" fill-rule="evenodd" clip-rule="evenodd" d="M396.457,1371.655c-1.967,0-3.934,0-5.932,0
				c-3.934,0-7.904,0-11.839,0c0-5.943,0-11.852,0-17.782c5.92,0,11.839,0,17.771,0
				C396.457,1359.804,396.457,1365.712,396.457,1371.655z"/> <path display="inline" fill-rule="evenodd" clip-rule="evenodd" d="M485.376,1383.494
				c3.235-8.61-6.913-30.614,5.902-29.621C511.644,1347.188,508.863,1396.983,485.376,1383.494z"/> <path display="inline" fill-rule="evenodd" clip-rule="evenodd" d="M639.507,1413.152
				c20.7,7.008,20.814,34.524,53.401,29.633c13.071-0.718,2.487-25.137,5.902-35.564c-19.899-7.797-22.22-33.138-29.64-53.348
				c9.902,0,19.755,0,29.64,0c5.357,32.755,29.64,98.683-5.902,118.547c-15.54-2.297-16.61-18.991-41.515-11.84
				C654.282,1437.906,630.777,1441.638,639.507,1413.152z"/> <path display="inline" fill-rule="evenodd" clip-rule="evenodd" d="M864.827,1371.655c0-5.943,0-11.852,0-17.782
				c19.756,0,39.511,0,59.243,0c8.611,22.422-16.275,11.36-11.851,29.621C883.746,1392.248,887.489,1368.713,864.827,1371.655z"/> <path display="inline" fill-rule="evenodd" clip-rule="evenodd" d="M1018.951,1460.58c-5.919,0-11.815,0-17.794,0
				c0-19.756,0-39.535,0-59.268c21.621-25.854,78.042-16.874,94.88-47.439c13.824,0,27.673,0,41.461,0c0,15.796,0,31.606,0,47.439
				c-36.82,7.176-28.474-30.842-71.106-17.818C1050.235,1408.87,1003.022,1403.166,1018.951,1460.58z"/> <path display="inline" fill-rule="evenodd" clip-rule="evenodd" d="M1410.229,1383.494
				c-11.827,0-23.667,0-35.578,0c-16.061,19.518-33.854,37.299-53.359,53.385c-2.667,16.49,32.313-4.664,29.658,11.838
				c3.635,23.38-32.528,6.973-47.404,11.863c5.68-25.448-4.234-35.326-29.67-29.645c8.729-28.487-14.77-24.756-11.852-47.441
				c-7.917,0-15.822,0-23.714,0c-4.604,15.163-17.042,22.507-41.484,17.818c-4.473-26.213,30.063-13.44,17.77-47.439
				c9.854,0,19.757,0,29.658,0c0.682,34.835,61.444,9.675,47.429,59.279c39.487-0.048,59.231-19.804,59.268-59.279
				c9.866,0,19.731,0,29.633,0C1367.105,1387.129,1416.891,1357.09,1410.229,1383.494z"/> <path display="inline" fill-rule="evenodd" clip-rule="evenodd" d="M349.017,1371.655
				c31.846,22.004-3.08,74.467-5.938,100.765c-24.539,0.836-6.141-41.246-11.852-59.268
				C359.606,1421.739,345.979,1388.373,349.017,1371.655z"/> <path display="inline" fill-rule="evenodd" clip-rule="evenodd" d="M396.457,1371.655
				c18.279-4.425,7.229,20.413,29.658,11.839c-2.242,25.962,7.056,40.349,23.702,47.441c8.377-15.345,10.44-36.942,23.708-47.441
				c3.934,0,7.898,0,11.851,0c0,9.901,0,19.756,0,29.658c-5.943,0-11.851,0-17.753,0c7.893,31.642-19.804,27.636-11.887,59.268
				c-38.705,9.064-14.518-44.726-47.434-41.484C416.213,1399.304,388.541,1403.298,396.457,1371.655z"/> <path display="inline" fill-rule="evenodd" clip-rule="evenodd" d="M532.787,1371.655
				c13.298,2.512,18.931,12.7,29.669,17.794c-21.478,12.103-19.235,47.931-17.8,82.971
				C518.329,1461.215,539.729,1402.271,532.787,1371.655z"/> <path display="inline" fill-rule="evenodd" clip-rule="evenodd" d="M639.507,1413.152c-9.86,0-19.738,0-29.622,0
				c-3.624,14.184,7.426,43.003-5.926,47.428c-26.034-7.582-5.184-62.041-11.881-88.925c9.896,0,19.815,0,29.658,0
				C611.176,1401.982,637.461,1395.453,639.507,1413.152z"/> <path display="inline" fill-rule="evenodd" clip-rule="evenodd" d="M864.827,1371.655
				c9.119,24.958-30.692,0.944-29.657,17.794c-9.048,26.836,38.717-3.145,29.657,23.703c-19.786,0-39.56,0-59.304,0
				c-7.133-24.947,9.573-26.01,11.875-41.497C833.202,1371.655,849.005,1371.655,864.827,1371.655z"/> <path display="inline" fill-rule="evenodd" clip-rule="evenodd" d="M1410.229,1383.494c5.931,0,11.851,0,17.758,0
				c-3.587,14.171,7.499,43.027-5.907,47.441c-3.934,0-7.893,0-11.851,0C1410.229,1415.137,1410.229,1399.304,1410.229,1383.494z"/> <path display="inline" fill-rule="evenodd" clip-rule="evenodd" d="M1475.465,1442.785
				c-5.957,0-11.888,0-17.771,0c3.683-18.01-7.605-51.063,5.884-59.291C1488.164,1382.646,1469.783,1424.74,1475.465,1442.785z"/> <path display="inline" fill-rule="evenodd" clip-rule="evenodd" d="M1196.826,1401.313
				c7.127,24.922-9.592,25.975-11.887,41.473c41.579,8.025,55.811-11.408,88.937-11.85c4.413,18.248-20.414,7.234-11.852,29.645
				c-21.274,0.454-48.266-4.831-53.359,11.84c-12.749-16.862-55.872-3.396-59.269-29.635
				c-22.816,19.589-97.021,48.003-130.445,17.795c19.827-5.884,66.454,15.068,59.268-17.795
				C1138.133,1449.303,1155.473,1413.344,1196.826,1401.313z"/> <path display="inline" fill-rule="evenodd" clip-rule="evenodd" d="M864.827,1413.152c25.688,0,51.351,0,77.051,0
				c-3.624,14.184,7.449,43.003-5.92,47.428c-22.566,8.729-1.173-26.5-23.738-17.795c0-3.935,0-7.892,0-11.85
				c-14.184-3.6-42.985,7.426-47.393-5.944C864.827,1421.045,864.827,1417.099,864.827,1413.152z"/> <path display="inline" fill-rule="evenodd" clip-rule="evenodd" d="M1410.229,1430.936
				c-0.658,7.234-1.782,14.05-11.827,11.85c0-3.935,0-7.892,0-11.85C1402.349,1430.936,1406.271,1430.936,1410.229,1430.936z"/> <path display="inline" fill-rule="evenodd" clip-rule="evenodd" d="M1475.465,1442.785
				c47.451,7.952,67.829-11.193,106.707-11.85c5.752,21.584-28.881,2.726-17.782,29.645c-32.827,0.754-72.566-5.381-88.925,11.84
				C1475.465,1462.542,1475.465,1452.676,1475.465,1442.785z"/> <path display="inline" fill-rule="evenodd" clip-rule="evenodd" d="M894.449,1460.58
				c-4.036,25.592-53.845,5.441-77.051,11.84c3.229-8.587-6.942-30.639,5.92-29.635
				C835.433,1460.27,861.06,1464.312,894.449,1460.58z"/> <path display="inline" fill-rule="evenodd" clip-rule="evenodd" d="M912.22,1442.785c0,5.932,0,11.863,0,17.795
				c-5.92,0-11.828,0-17.771,0c0-5.932,0-11.863,0-17.795C900.392,1442.785,906.3,1442.785,912.22,1442.785z"/> <path display="inline" fill-rule="evenodd" clip-rule="evenodd" d="M1368.696,1442.785
				c17.34-8.705,17.34,26.524,0,17.795C1368.696,1454.648,1368.696,1448.717,1368.696,1442.785z"/> </g> </g> <g> <path d="M169.556,1413.43c0,7.603-2.958,12.409-8.87,14.414c-9.4,9.083-23.443,15.63-42.134,19.642
			c-15.736,2.534-31.469,5.068-47.203,7.603c-4.225,0.847-9.029,2.376-14.415,4.594c-4.648,2.005-9.293,4.012-13.939,6.02
			c-1.584,0.634-3.009,0.95-4.277,0.95c-4.014,0-7.393-2.007-10.137-6.02c-2.641-3.588-3.96-7.496-3.96-11.721
			c0-4.223,1.478-7.445,4.435-9.663c2.111-8.974,3.168-19.428,3.168-31.362c0-17.107-1.849-33.051-5.544-47.836
			c-4.225-2.852-6.336-6.757-6.336-11.722c0-3.802,1.213-7.259,3.643-10.375c2.428-3.113,5.49-4.673,9.187-4.673
			c2.218,0,5.279,1.321,9.188,3.96c2.745,2.113,5.543,4.225,8.395,6.336c13.409,9.187,30.516,17.953,51.321,26.294
			c18.058,6.865,36.061,13.729,54.014,20.592C165.066,1394.159,169.556,1401.814,169.556,1413.43z M136.768,1410.42
			c-29.462-9.504-56.761-20.96-81.892-34.372c0.95,8.66,1.426,18.27,1.426,28.828c0,7.076-0.265,15.895-0.792,26.452
			c8.447-1.688,24.497-4.328,48.153-7.92C118.552,1421.191,129.585,1416.862,136.768,1410.42z"/> <path d="M309.612,1454.771c0,3.062-2.007,5.86-6.019,8.396c-3.591,2.321-7.024,3.484-10.296,3.484
			c-5.282,0-8.87-3.168-10.771-9.504c-1.901-5.913-3.116-12.988-3.643-21.226c-0.106-3.271-0.159-10.506-0.159-21.7
			c0-0.421-0.213-0.634-0.633-0.634c-9.717,0-22.916,1.579-39.6,4.734c-20.275,3.789-33.528,6-39.758,6.628
			c-0.106,0.842-0.159,8.524-0.159,23.042c0,2.737-1.294,4.921-3.881,6.552c-2.588,1.631-5.36,2.445-8.315,2.445
			c-4.542,0-7.604-1.369-9.188-4.111c-1.057-2.005-1.584-5.484-1.584-10.439c0-4.004,0.421-9.593,1.268-16.763
			c-2.324-2.847-3.485-6.433-3.485-10.756c0-5.482,1.953-9.121,5.861-10.912c0.527-5.797,0.896-10.754,1.108-14.867
			c-4.648-1.792-6.969-5.745-6.969-11.86c0-5.271,2.004-8.804,6.019-10.598c-0.53-2.316-0.792-4.268-0.792-5.852
			c0-1.791,0.95-3.294,2.851-4.507c1.901-1.212,3.802-1.818,5.703-1.818c4.222,0,8.236,1.638,12.038,4.91
			c34.107-11.299,58.817-16.949,74.13-16.949c4.539,0,8.34,2.06,11.405,6.178c2.745,3.698,4.118,7.92,4.118,12.672
			c0,4.015-1.322,7.445-3.96,10.296c-6.019,6.232-16.315,13.464-30.888,21.701c13.939-2.218,25.712-3.327,35.323-3.327
			c6.019,0,10.454,0.951,13.306,2.852c3.484,2.218,5.227,6.231,5.227,12.038c0,0.213-0.634,2.431-1.901,6.652
			c-1.163,3.802-1.742,8.925-1.742,15.365c0,6.336,1.529,14.362,4.593,24.076C309.347,1452.554,309.612,1453.821,309.612,1454.771z
			 M254.648,1366.86c-4.965,1.057-22.124,6.391-51.479,15.998c-0.106,3.592-0.265,8.45-0.475,14.573
			c7.497-1.688,16.632-5.648,27.403-11.88C240.867,1379.322,249.049,1373.093,254.648,1366.86z"/> <path d="M368.884,1370.82c0,7.92-1.401,19.642-4.197,35.165c-2.799,15.522-4.198,27.192-4.198,35.006
			c0,1.584,0.158,3.935,0.475,7.049c0.317,3.115,0.475,5.464,0.475,7.048c0,2.852-1.594,5.228-4.781,7.128
			c-2.762,1.584-5.737,2.376-8.925,2.376c-5.42,0-8.925-1.531-10.519-4.593c-1.168-2.008-1.752-5.913-1.752-11.722
			c0-8.131,1.371-20.196,4.118-36.194c2.745-15.998,4.119-28.061,4.119-36.193c0-6.229-0.582-12.301-1.743-18.216
			c-0.529-2.535-0.792-4.381-0.792-5.544c0-5.279,3.062-7.92,9.187-7.92c7.391,0,12.514,2.799,15.365,8.395
			C367.828,1356.619,368.884,1362.69,368.884,1370.82z"/> <path d="M515.118,1350.229c0,5.386-3.01,13.729-9.029,25.027c-4.225,8.133-8.977,16.053-14.256,23.76
			c-7.92,11.511-13.202,19.379-15.84,23.601c-7.182,11.405-11.301,19.538-12.355,24.394c-1.374,6.76-2.272,10.507-2.693,11.246
			c-1.584,3.168-4.91,4.752-9.979,4.752c-12.778,0-19.166-5.227-19.166-15.681c0-5.279-4.7-16.632-14.098-34.056
			c-7.182-13.199-13.887-24.445-20.117-33.739c-3.064-4.328-6.125-8.657-9.187-12.988c-4.539-6.653-6.811-10.875-6.811-12.672
			c0-3.379,1.849-6.494,5.544-9.346c3.378-2.534,6.863-3.802,10.454-3.802c2.218,0,4.487,0.898,6.812,2.693
			c4.646,3.801,12.459,15.894,23.443,36.272c7.92,14.573,14.835,28.25,20.75,41.025c5.386-9.504,12.724-21.487,22.017-35.956
			c8.024-12.672,13.516-23.547,16.474-32.63c1.054-3.379,2.111-6.757,3.168-10.138c1.794-3.695,4.539-5.544,8.237-5.544
			c3.695,0,7.39,1.4,11.088,4.197C513.269,1343.445,515.118,1346.64,515.118,1350.229z"/> <path d="M561.401,1370.82c0,7.92-1.401,19.642-4.197,35.165c-2.799,15.522-4.198,27.192-4.198,35.006
			c0,1.584,0.158,3.935,0.475,7.049c0.317,3.115,0.475,5.464,0.475,7.048c0,2.852-1.594,5.228-4.781,7.128
			c-2.762,1.584-5.737,2.376-8.925,2.376c-5.42,0-8.925-1.531-10.519-4.593c-1.168-2.008-1.752-5.913-1.752-11.722
			c0-8.131,1.371-20.196,4.118-36.194c2.745-15.998,4.119-28.061,4.119-36.193c0-6.229-0.582-12.301-1.743-18.216
			c-0.529-2.535-0.792-4.381-0.792-5.544c0-5.279,3.062-7.92,9.187-7.92c7.391,0,12.514,2.799,15.365,8.395
			C560.345,1356.619,561.401,1362.69,561.401,1370.82z"/> <path d="M733.802,1426.735c0,10.35-2.376,18.69-7.128,25.026c-5.385,7.073-13.095,10.613-23.126,10.613
			c-11.405,0-25.557-8.183-42.451-24.552c-9.187-8.975-20.488-22.018-33.897-39.125c-2.641,17.53-3.96,28.936-3.96,34.214
			c0,1.797,0.131,4.463,0.396,8c0.263,3.539,0.396,6.152,0.396,7.84c0,2.958-1.584,5.334-4.752,7.128
			c-2.747,1.478-5.65,2.218-8.711,2.218c-5.175,0-8.608-1.426-10.296-4.276c-1.268-2.111-1.901-5.913-1.901-11.405
			c0-7.073,1.054-17.527,3.168-31.362c2.111-13.833,3.168-24.287,3.168-31.363c0-6.652-0.792-12.09-2.376-16.314
			c-1.267-3.485-1.901-5.807-1.901-6.97c0-2.534,2.321-4.855,6.97-6.97c4.118-1.9,7.603-2.851,10.454-2.851
			c3.485,0,6.336,1.9,8.553,5.702c20.802,34.743,44.668,61.671,71.596,80.783c3.378,2.534,5.702,3.801,6.97,3.801
			c3.168,0,4.752-4.855,4.752-14.572c0-10.348-3.223-21.646-9.663-33.897c-3.381-6.546-9.345-15.892-17.899-28.036
			c-6.336-9.081-9.504-14.941-9.504-17.582c0-3.272,1.267-6.678,3.802-10.217c2.534-3.537,5.385-5.307,8.553-5.307
			c2.745,0,5.806,1.901,9.187,5.702c9.925,11.194,18.901,25.926,26.928,44.193C729.577,1396.587,733.802,1413.112,733.802,1426.735z
			"/> <path d="M797.066,1333.28c0,1.9-1.742,7.128-5.227,15.682c-1.584,3.381-3.75,8.553-6.494,15.522
			c-1.584,5.809-4.331,14.362-8.237,25.661c-2.324,5.281-6.759,7.92-13.305,7.92c-3.485,0-6.601-0.845-9.346-2.535
			c-3.274-2.005-4.91-4.646-4.91-7.92c0-3.062,3.168-12.83,9.504-29.304c6.123-15.733,10.399-25.764,12.83-30.096
			c2.638-4.752,6.546-7.128,11.721-7.128c3.589,0,6.732,1.164,9.425,3.485C795.72,1326.893,797.066,1329.795,797.066,1333.28z"/> <path d="M955.527,1423.884c0,9.188-9.083,18.164-27.244,26.928c-12.461,6.02-25.502,10.612-39.124,13.78
			c-12.251,2.745-23.498,4.119-33.739,4.119c-24.076,0-36.114-7.076-36.114-21.226c0-1.371-0.055-3.089-0.159-5.148
			c-0.105-2.059-0.158-3.509-0.158-4.355c0-4.223,1.371-8.078,4.118-11.563c3.802-4.752,8.131-7.128,12.989-7.128
			c2.955,0,6.123,0.74,9.504,2.218c4.118,1.9,6.178,4.118,6.178,6.652c0,2.642-0.926,4.728-2.772,6.257
			c-1.849,1.532-2.771,3.302-2.771,5.307c0,3.064,3.009,4.594,9.028,4.594c12.565,0,26.081-1.847,40.55-5.544
			c19.324-4.963,28.987-9.449,28.987-13.464c0-2.218-4.752-4.329-14.256-6.336c-6.02-1.371-11.935-2.376-17.741-3.01
			c-10.243-0.95-20.487-1.847-30.729-2.692c-16.264-1.795-28.936-4.381-38.016-7.762c-12.355-4.646-18.533-10.93-18.533-18.85
			c0-7.286,7.707-14.993,23.125-23.126c11.615-6.02,22.861-10.348,33.739-12.988c10.875-2.639,20.75-3.96,29.62-3.96
			c4.646,0,8.871,0.371,12.672,1.108c4.963-9.82,10.559-14.731,16.79-14.731c4.013,0,7.576,1.453,10.692,4.356
			c3.113,2.905,4.673,6.363,4.673,10.375c0,2.747-1.029,5.175-3.089,7.286c-2.06,2.114-4.039,4.173-5.94,6.178
			c-1.163,1.584-2.192,4.965-3.088,10.138c-0.898,5.175-1.876,8.767-2.931,10.771c-1.901,3.485-5.069,5.228-9.504,5.228
			c-4.752,0-8.977-1.268-12.672-3.802c-4.118-2.955-5.86-6.757-5.228-11.404h-1.425c-7.604-0.104-16.791,0.74-27.562,2.534
			c-14.469,2.534-21.755,5.915-21.859,10.138c2.005,1.69,9.449,3.063,22.334,4.118c22.493,1.9,35.007,3.01,37.541,3.326
			c14.993,1.901,25.66,4.648,31.996,8.237C948.82,1408.044,955.527,1415.86,955.527,1423.884z"/> <path d="M1183.906,1420.082c0,6.549-2.324,11.353-6.97,14.414c-2.007,1.268-8.185,3.96-18.532,8.079
			c-39.6,15.84-71.65,23.76-96.147,23.76c-22.389,0-37.54-6.653-45.46-19.959c-3.906-6.546-5.861-13.409-5.861-20.592
			c0-12.459,6.705-25.289,20.117-38.49c11.825-11.615,26.556-21.487,44.192-29.62c17.107-7.92,31.68-11.88,43.718-11.88
			c3.168,0,6.123,0.316,8.871,0.95c2.004-12.672,7.073-19.008,15.206-19.008c4.012,0,7.655,1.431,10.93,4.286
			c3.271,2.859,4.91,6.299,4.91,10.318c0,2.329-1.401,6.616-4.198,12.86c-2.799,6.244-4.197,11.483-4.197,15.716
			c0,1.376,0.184,3.495,0.555,6.351c0.368,2.858,0.555,5.029,0.555,6.51c0,4.551-1.48,8.149-4.436,10.796
			c-2.958,2.646-6.759,3.967-11.404,3.967c-4.965,0-8.292-2.044-9.979-6.138c-0.95-3.881-1.955-7.762-3.01-11.643
			c-1.584-4.091-4.858-6.138-9.82-6.138c-13.306,0-29.779,7.059-49.42,21.174c-17.107,12.221-25.661,22.438-25.661,30.654
			c0,8.638,8.764,12.957,26.294,12.957c22.597,0,47.097-6.123,73.497-18.375c6.229-3.062,12.459-6.177,18.691-9.345
			c9.607-4.646,15.522-6.97,17.74-6.97c3.484,0,6.071,1.797,7.762,5.386C1183.219,1412.851,1183.906,1416.177,1183.906,1420.082z"/> <path d="M1319.052,1398.54c0,14.152-9.927,27.034-29.779,38.649c-25.977,15.313-52.536,22.968-79.674,22.968
			c-9.717,0-17.795-1.532-24.235-4.594c-8.553-4.118-12.83-10.506-12.83-19.166c0-18.374,18.109-43.084,54.331-74.131
			c-2.324-2.955-3.485-6.229-3.485-9.82c0-3.695,1.53-6.546,4.594-8.554c2.534-1.794,5.755-2.692,9.662-2.692
			c4.329,0,11.033,1.69,20.117,5.068C1298.618,1361.265,1319.052,1378.688,1319.052,1398.54z M1294.024,1399.174
			c0-11.192-14.31-20.01-42.926-26.452c-2.324,2.323-5.809,5.809-10.454,10.454c-14.679,13.835-22.44,21.173-23.284,22.018
			c-11.301,11.511-16.949,19.589-16.949,24.234c0,3.697,3.906,5.544,11.722,5.544c12.038,0,25.713-2.534,41.025-7.604
			c16.79-5.489,28.773-12.038,35.956-19.641C1292.387,1404.139,1294.024,1401.287,1294.024,1399.174z"/> <path d="M1461.008,1398.54c0,14.152-9.927,27.034-29.779,38.649c-25.977,15.313-52.536,22.968-79.674,22.968
			c-9.717,0-17.795-1.532-24.235-4.594c-8.553-4.118-12.83-10.506-12.83-19.166c0-18.374,18.109-43.084,54.331-74.131
			c-2.324-2.955-3.485-6.229-3.485-9.82c0-3.695,1.53-6.546,4.594-8.554c2.534-1.794,5.755-2.692,9.662-2.692
			c4.329,0,11.034,1.69,20.117,5.068C1440.574,1361.265,1461.008,1378.688,1461.008,1398.54z M1435.98,1399.174
			c0-11.192-14.31-20.01-42.926-26.452c-2.324,2.323-5.809,5.809-10.454,10.454c-14.679,13.835-22.44,21.173-23.284,22.018
			c-11.301,11.511-16.949,19.589-16.949,24.234c0,3.697,3.906,5.544,11.722,5.544c12.038,0,25.713-2.534,41.025-7.604
			c16.79-5.489,28.773-12.038,35.956-19.641C1434.343,1404.139,1435.98,1401.287,1435.98,1399.174z"/> <path d="M1609.301,1423.567c0,5.915-1.797,10.402-5.386,13.464c-5.281,4.435-14.521,8.291-27.72,11.563
			c-9.927,2.534-20.116,4.331-30.57,5.386c-17.741,1.797-32.42,4.646-44.035,8.554c-2.957,1.16-5.86,2.321-8.712,3.484
			c-4.015,1.478-6.865,2.218-8.554,2.218c-4.435,0-7.974-6.494-10.612-19.483c-1.797-9.397-2.692-17.95-2.692-25.66
			c0-4.012,0.237-10.059,0.712-18.137c0.476-8.078,0.713-14.122,0.713-18.137c0-8.446-1.163-16.842-3.484-25.185
			c-1.057-3.695-1.584-6.123-1.584-7.287c0-4.855,3.484-7.286,10.454-7.286c6.336,0,10.771,2.114,13.306,6.336
			c3.168,5.176,4.752,14.944,4.752,29.304c0,4.331-0.292,10.905-0.871,19.721c-0.582,8.818-0.871,15.443-0.871,19.879
			c0,4.542,0.21,8.87,0.634,12.988c14.676-3.588,32.048-6.704,52.112-9.345c16.261-2.218,29.621-5.807,40.075-10.771
			c2.321-1.268,4.646-2.534,6.97-3.802c3.168-1.584,5.438-2.376,6.811-2.376c2.852,0,5.121,1.797,6.812,5.386
			C1608.719,1417.231,1609.301,1420.295,1609.301,1423.567z"/> </g> <g> <path d="M253.219,1032.518c0,6.653-2.222,12.338-6.653,17.048c-5.821,6.38-21.205,19.127-46.153,38.253
			c20.79-4.71,39.916-7.068,57.379-7.068c25.779,0,47.401,5.269,64.864,15.8c20.79,12.475,31.185,30.77,31.185,54.886
			c0,29.664-14.137,55.995-42.411,79.001c-23.285,19.126-51.143,32.575-83.575,40.332c-19.126,4.71-41.164,7.068-66.111,7.068
			c-25.227,0-51.559-2.638-79.001-7.9c-30.216-5.82-55.301-13.721-75.259-23.7c-4.99-2.768-7.484-7.068-7.484-12.89
			c0-11.915,4.431-21.063,13.306-27.442c0.832-13.026,2.768-32.497,5.821-58.419c3.047-25.916,4.99-45.387,5.821-58.419
			c-1.663,0.831-3.19,1.247-4.574,1.247c-4.438,0-7.9-2.631-10.395-7.9c-1.942-4.158-2.911-8.731-2.911-13.721
			c0-6.653,1.384-11.363,4.158-14.138c1.663-1.663,5.958-3.878,12.89-6.652c-0.279-1.663-1.111-5.679-2.495-12.059
			c-1.111-5.262-1.664-9.283-1.664-12.058c0-5.263,4.158-7.9,12.474-7.9c16.073,0,24.948,6.237,26.611,18.711
			c76.227-26.61,132.223-39.916,167.981-39.916c8.316,0,14.968,4.301,19.958,12.89
			C251.141,1015.055,253.219,1023.37,253.219,1032.518z M308.52,1162.246c0-22.174-20.517-33.264-61.538-33.264
			c-31.88,0-65.838,6.236-101.87,18.711c-26.059,9.147-57.659,23.284-94.801,42.411l-0.832,21.621
			c39.637,17.19,75.116,25.779,106.444,25.779c27.995,0,58.484-6.237,91.475-18.711
			C288.146,1203.553,308.52,1184.699,308.52,1162.246z M191.682,1041.665c-35.758,4.438-79.001,15.801-129.728,34.096
			c-0.559,14.416-2.358,33.264-5.405,56.548C98.128,1109.024,143.17,1078.814,191.682,1041.665z"/> <path d="M632.424,1172.225c0,13.864-1.942,24.396-5.821,31.601c-6.653,13.033-20.374,22.596-41.164,28.69
			c-27.169,7.764-59.322,14.553-96.464,20.374c-38.812,6.101-71.38,9.147-97.712,9.147c-32.711,0-49.064-14.41-49.064-43.243
			c0-7.205,0.968-16.073,2.911-26.61c0.832-4.158,10.674-50.864,29.528-140.123c1.384-8.868,4.294-21.758,8.732-38.669
			c3.326-9.147,9.42-13.722,18.289-13.722c6.094,0,11.363,2.014,15.8,6.029c4.431,4.021,6.652,8.946,6.652,14.767
			c0,8.043-1.929,21.628-5.789,40.755c-3.027,14.137-6.062,28.28-9.089,42.418c-5.269,26.89-10.674,52.533-16.209,76.922
			c-2.287,8.589-3.424,15.241-3.424,19.945c0,10.811,6.237,16.209,18.711,16.209c3.047,0,7.484-0.272,13.305-0.831
			c28.274-3.047,56.685-5.958,85.238-8.732c41.3-5.82,66.384-13.994,75.259-24.531c3.599-4.158,5.405-12.747,5.405-25.779
			c0-23.558-6.101-62.643-18.295-117.255c-5.821-26.61-8.732-42.268-8.732-46.984c0-10.531,8.316-15.801,24.948-15.801
			c11.083,0,18.711,8.044,22.869,24.116c1.664,12.475,3.463,25.091,5.406,37.838
			C626.188,1098.908,632.424,1143.398,632.424,1172.225z"/> <path d="M975.456,1238.337c0,3.885-3.19,7.211-9.563,9.979c-4.989,2.222-9.843,3.326-14.553,3.326
			c-8.875,0-14.137-2.768-15.801-8.315c-2.773-9.421-4.157-24.39-4.157-44.906c0-9.699,0.623-24.116,1.871-43.242
			c1.247-19.127,1.871-33.537,1.871-43.243c0-13.306-0.56-26.331-1.663-39.085c-24.721,26.611-46.939,48.096-66.651,64.448
			c-20.549,17.743-43.873,26.611-69.977,26.611c-33.602,0-61.512-17.048-83.725-51.143c-1.949,14.969-4.028,30.08-6.25,45.321
			c-2.222,18.022-3.333,33.264-3.333,45.737c0,3.605,0.273,9.219,0.832,16.84c0.552,7.627,0.832,13.24,0.832,16.84
			c0,9.427-7.9,14.137-23.7,14.137c-10.259,0-16.496-3.326-18.711-9.979c-1.111-2.768-1.663-10.396-1.663-22.869
			c0-16.073,2.56-39.845,7.692-71.309c5.126-31.458,7.692-55.229,7.692-71.309c0-7.484-0.279-13.579-0.832-18.296
			c-0.279-2.768-1.942-7.483-4.99-14.137c-2.774-5.821-4.158-10.947-4.158-15.385c0-7.483,2.768-13.513,8.316-18.087
			c5.542-4.573,12.058-6.86,19.542-6.86c8.036,0,14.689,7.068,19.958,21.206c21.063,59.322,51.143,88.979,90.228,88.979
			c32.153,0,65.552-22.453,100.207-67.358c5.263-6.653,8.797-14.826,10.603-24.532c1.8-9.699,10.324-14.553,25.571-14.553
			c20.231,0,30.354,4.717,30.354,14.137c0,1.942-0.279,4.717-0.832,8.316c-0.559,3.605-0.831,6.38-0.831,8.315
			c0,6.38,0.688,16.08,2.079,29.105c1.384,13.033,2.079,22.732,2.079,29.106c0,8.595-0.695,21.349-2.079,38.253
			c-1.391,16.911-2.079,29.664-2.079,38.253c0,7.212,0.968,17.814,2.91,31.809c1.937,14.001,2.911,24.467,2.911,31.393V1238.337z"/> <path d="M1306.013,1036.26c0,7.764-2.638,14.001-7.899,18.711c-53.222,47.68-135.55,97.712-246.982,150.103
			c-0.559,7.764-0.832,16.079-0.832,24.947c0,3.885,0,9.635,0,17.256c0,7.627,0,13.377,0,17.255c0,9.421-7.068,14.138-21.205,14.138
			c-8.596,0-14.001-2.774-16.217-8.316c-0.831-2.495-1.247-9.005-1.247-19.542c0-8.589,1.384-24.669,4.158-48.232
			c0-1.663,0-3.326,0-4.989c0-0.832,0.76-4.574,2.293-11.227c3.061-13.578,5.483-44.49,7.271-92.723c-1.111,0-2.079,0-2.911,0
			c-4.717,0-8.459-2.216-11.227-6.652c-2.222-3.6-3.326-7.9-3.326-12.89c0-9.147,5.679-15.657,17.048-19.543
			c-0.279-2.768-1.111-7.757-2.495-14.969c-1.39-6.373-2.079-11.362-2.079-14.968c0-5.821,4.158-8.732,12.475-8.732
			c16.353,0,25.5,8.732,27.442,26.195c87.869-29.105,158.274-44.906,211.224-47.4h3.326c9.7-0.553,17.601,4.021,23.7,13.721
			C1303.519,1016.444,1306.013,1025.729,1306.013,1036.26z M1246.555,1042.913c-61.266,7.484-122.66,20.374-184.197,38.669
			c-0.56,18.574-2.774,43.801-6.653,75.675C1111.693,1130.093,1175.311,1091.977,1246.555,1042.913z"/> <path d="M1615.031,1179.294c0,20.789-21.348,40.747-64.032,59.874c-28.833,13.306-58.906,23.428-90.228,30.354
			c-28.001,5.82-53.638,8.731-76.922,8.731c-51.286,0-76.922-14.137-76.922-42.411c0-15.241,9.979-36.59,29.937-64.032
			c6.653-8.868,14.689-13.306,24.116-13.306c5.821,0,11.643,0.831,17.464,2.494c7.757,2.223,11.642,5.549,11.642,9.979
			c0,3.326-5.964,10.259-17.879,20.79c-11.922,10.538-17.879,19.126-17.879,25.779c0,12.474,13.994,18.711,41.995,18.711
			c24.948,0,53.91-4.295,86.901-12.89c15.521-4.158,29.938-9.147,43.242-14.969c21.622-9.147,32.433-17.6,32.433-25.363
			c0-6.926-8.108-13.306-24.324-19.127s-44.009-10.531-83.367-14.137c-51.006-4.99-83.022-8.589-96.049-10.812
			c-33.822-5.82-57.243-14.825-70.269-27.026c-7.205-6.652-10.812-13.721-10.812-21.205c0-16.353,17.601-33.121,52.807-50.312
			c24.947-11.915,50.239-20.998,75.883-27.234c25.636-6.237,48.855-9.355,69.646-9.355c13.025,0,24.531,1.247,34.511,3.742
			c6.652-12.747,11.084-20.647,13.306-23.7c6.652-8.589,13.994-12.89,22.037-12.89c7.205,0,13.721,2.638,19.542,7.899
			c5.821,5.27,8.732,11.506,8.732,18.711c0,4.717-2.495,9.706-7.484,14.969c-8.316,8.043-12.475,12.201-12.475,12.474
			c-2.773,3.606-5.269,10.954-7.484,22.037c-2.222,12.475-4.301,20.79-6.236,24.948c-3.326,8.043-8.731,12.058-16.216,12.058
			c-8.043,0-15.527-2.079-22.453-6.236c-8.316-4.711-12.474-10.812-12.474-18.295c0-3.048,0.688-6.374,2.078-9.979
			c-3.326-1.384-8.595-2.079-15.8-2.079c-17.19,0-40.332,3.326-69.438,9.979c-36.59,8.315-54.885,17.879-54.885,28.689
			c0,8.043,15.384,13.722,46.152,17.048c31.874,2.774,63.754,5.548,95.634,8.315c39.637,4.158,66.8,10.675,81.495,19.543
			c21.622,12.753,35.2,24.811,40.748,36.174C1613.921,1171.394,1615.031,1175.415,1615.031,1179.294z"/> </g> </g> </symbol><symbol viewBox="0 0 32 32" id="icon-facebook2"><title>facebook2</title> <path d="M26.667 0h-21.334c-2.945 0-5.333 2.388-5.333 5.334v21.332c0 2.946 2.387 5.334 5.333 5.334h10.667v-14h-4v-4h4v-3c0-2.761 2.239-5 5-5h5v4h-5c-0.552 0-1 0.448-1 1v3h5.5l-1 4h-4.5v14h6.667c2.945 0 5.333-2.388 5.333-5.334v-21.332c0-2.946-2.387-5.334-5.333-5.334z"/> </symbol><symbol viewBox="0 0 78.096 97.627" id="icon-links"><title>links</title> <polyline fill-rule="evenodd" clip-rule="evenodd" points="13.477,81.19 13.477,27.075 0,40.609 0,20.304 20.246,0 
	40.508,20.304 40.508,40.609 27.007,27.075 27.007,81.19 13.477,81.19 "/> <path fill-rule="evenodd" clip-rule="evenodd" d="M69.08,74.589V39.526h-12v35.063l-9-9.172v17.182l15.014,15.028
	L78.08,82.599V65.417L69.08,74.589z M77.08,82.102L63.063,95.886L49.08,82.102V68.32l9,9.192V40.526h10v36.986l9-9.192V82.102z"/> </symbol><symbol viewBox="0 0 64.516 100.607" id="icon-prices"><title>prices</title> <path fill-rule="evenodd" clip-rule="evenodd" d="M9.93,23.079c5.464,0,9.92,4.427,9.92,9.891
	c0,5.444-4.456,9.871-9.92,9.871C4.446,42.84,0,38.414,0,32.969C0,27.505,4.446,23.079,9.93,23.079 M9.93,26.813
	c3.395,0,6.141,2.762,6.141,6.156c0,3.389-2.746,6.136-6.141,6.136c-3.398,0-6.155-2.747-6.155-6.136
	C3.774,29.575,6.531,26.813,9.93,26.813z M9.93,29.237c2.085,0,3.774,1.665,3.774,3.732c0,2.06-1.689,3.735-3.774,3.735
	c-2.09,0-3.784-1.675-3.784-3.735C6.146,30.902,7.84,29.237,9.93,29.237z"/> <path fill-rule="evenodd" clip-rule="evenodd" d="M52.437,23.079c5.483,0,9.925,4.427,9.925,9.891
	c0,5.444-4.441,9.871-9.925,9.871c-5.474,0-9.921-4.426-9.921-9.871C42.516,27.505,46.963,23.079,52.437,23.079 M52.437,26.813
	c3.413,0,6.16,2.762,6.16,6.156c0,3.389-2.747,6.136-6.16,6.136c-3.385,0-6.136-2.747-6.136-6.136
	C46.301,29.575,49.052,26.813,52.437,26.813z M52.437,29.237c2.095,0,3.789,1.665,3.789,3.732c0,2.06-1.694,3.735-3.789,3.735
	c-2.07,0-3.77-1.675-3.77-3.735C48.667,30.902,50.366,29.237,52.437,29.237z"/> <polyline fill-rule="evenodd" clip-rule="evenodd" points="51.897,26.085 53.315,30.183 50.218,31.092 48.8,26.994 
	51.897,26.085 "/> <polyline fill-rule="evenodd" clip-rule="evenodd" points="12.751,31.729 17.706,23.773 14.475,21.861 9.56,29.874 
	12.751,31.729 "/> <path fill-rule="evenodd" clip-rule="evenodd" d="M57.14,21.861c4.317,1.855,7.376,6.136,7.376,11.143h-4.066
	l-2.095-5.316l-6.679-2.878l-6.833,4.553v8.376h-8.616c-4.125,0.057-6.955,0.057-10.503,0.057c-3.507,0-4.648-2.458-4.648-4.827
	c0-6.156-5.049-11.2-11.244-11.2l-0.178,0.035v-4.133h2.5c2.005,0,5.138-1.057,6.372-2.969l5.144-7.868
	c0.638-1,1.102-0.455,0.914,0.126l-2.104,8.742c-0.262,1.095,1.008,1.786,2.104,0.729l2.599-2.367l2.727-4.552V8.964
	c-1.324,0-2.416-0.89-2.416-2.003V3.923h-0.854C26.855,1.771,28.096,0,30.59,0c2.51,0,3.918,1.771,3.918,3.923
	c-0.039,1.946-0.459,1.912-0.771,2.492v1.423c0.312-0.057,0.677,0.035,1.274,0.271c0.549,0.217,2.643,1.038,3.093,1.312
	c0.459,0.271,0.638,0.271,1.226,0.874l4.91,5.136c1.102,1.148,1.19,2.332,1.19,3.424h9.92c1.374,0,1.828,0.854,1.828,2.495
	L57.14,21.861 M32.146,16.031l-7.786,4.464l6.318,2.549l4.239-4.281C33.644,17.98,32.957,17.397,32.146,16.031z M42.699,30.82
	c0.509-2.312,1.877-4.373,3.734-5.773c0.237-0.274,0.183-0.603-0.276-0.603h-4.096v6.375C42.062,31.24,42.61,31.332,42.699,30.82z"/> <path fill-rule="evenodd" clip-rule="evenodd" d="M4.327,67.517L7.42,51.853c0.316-1.729,2.411-4.952,6.605-5.006
	h31.316c4.185,0.054,6.274,3.278,6.61,5.006l3.033,15.664c2.011,0.363,4.065,2.332,4.065,4.461v12.985
	c0,1.862-1.689,3.498-2.509,4.099v9.416c-1.275,1.274-2.55,2.129-4.288,2.129c-1.729,0-3.543-0.941-4.585-2.129v-9.104l-8.156,0.638
	H19.801l-8.098-0.638v9.104c-1.047,1.188-2.87,2.129-4.6,2.129c-1.729,0-3.008-0.854-4.327-2.129v-9.416
	c-0.82-0.601-2.505-2.236-2.505-4.099V71.978C0.271,69.849,2.366,67.88,4.327,67.517 M51.616,70.34c2.248,0,4.065,1.84,4.065,4.098
	c0,2.261-1.817,4.096-4.065,4.096c-2.224,0-4.041-1.835-4.041-4.096C47.575,72.18,49.393,70.34,51.616,70.34z M7.697,70.34
	c2.257,0,4.09,1.84,4.09,4.098c0,2.261-1.833,4.096-4.09,4.096c-2.264,0-4.101-1.835-4.101-4.096
	C3.597,72.18,5.434,70.34,7.697,70.34z M8.379,61.472l0.859-4.644c1.003-4.919,6.239-5.612,11.57-5.612h17.696
	c5.38,0,10.621,0.693,11.619,5.612l0.854,4.644c0.42,2.821-1.121,3.824-4.18,3.641l-17.128-0.729l-17.152,0.729
	C9.466,65.296,7.964,64.293,8.379,61.472z M14.702,74.806v1.781H44.66v-1.781l-9.372-0.551H24.084L14.702,74.806z M29.73,78.991
	h15.028v2.331H14.613v-2.331H29.73z M14.702,85.33V83.6H44.66v1.729l-9.372,0.545H24.084L14.702,85.33z"/> </symbol><symbol viewBox="0 0 106.566 104.278" id="icon-testimonials"><title>testimonials</title> <path fill-rule="evenodd" clip-rule="evenodd" d="M16.52,0L6.228,9.443l11.986,0.514
	C3.63,21.698-3.467,41.399,1.66,60.701l9.004-2.399c-4.355-16.317,2.155-33.041,15.011-42.359l-0.599,14.072l10.289-9.442
	L36.2,0.883L16.52,0z"/> <path fill-rule="evenodd" clip-rule="evenodd" d="M103.558,30.459l-6.475,10.148
	C94.233,22.071,80.708,6.058,61.431,0.883l-2.389,8.96c16.272,4.356,27.475,18.39,29.143,34.213l-11.902-7.567l3.072,13.605
	l16.612,10.607l10.599-16.632L103.558,30.459z"/> <path fill-rule="evenodd" clip-rule="evenodd" d="M83.376,82.596l-6.558-6.562
	c-11.93,11.93-29.678,14.616-44.173,8.139l12.424-6.497l-13.302-4.205l-17.469,9.125l9.092,17.516l13.302,4.167l-5.548-10.659
	C48.636,100.414,69.275,96.746,83.376,82.596z"/> </symbol></svg>